<svg version="1.1" viewBox="0 0 105.33 50" xmlns="http://www.w3.org/2000/svg">
 <path d="m24.917 4.0083h1e-3c11.675 0 21.074 9.399 21.074 21.074v1e-3c0 11.675-9.399 21.074-21.074 21.074h-1e-3c-11.675 0-21.074-9.399-21.074-21.074v-1e-3c0-11.675 9.399-21.074 21.074-21.074z" fill="#d8d7d2"/>
 <path d="m23.761-3.5555e-8c-5.1918 0.29596-10.331 2.1599-14.633 5.6753-10.764 8.7949-12.217 24.566-3.2449 35.226 8.9717 10.66 24.971 12.172 35.734 3.3766 4.3046-3.5173 7.1155-8.1517 8.3707-13.127 0.05223-0.37304 0.10478-3.7848-3.8775-4.1611-4.5866-0.43322-8.1281-0.76792-12.634-1.1937 0 0-2.4503-0.24684-5.7153 2.421-1.7942 1.466-4.4603 1.2141-5.9558-0.56275-1.4955-1.7768-1.2533-4.4051 0.54087-5.8711 0 0 3.2131-2.2734 3.4722-5.0862 0.38501-4.1774 0.79517-8.6357 1.1472-12.454 0 0 0.67696-4.1084-3.2051-4.2428z" fill="#e5616b"/>
 <path d="m24.929 3.9256c-4.7329-6.317e-4 -9.4865 1.5787-13.406 4.8192-8.9588 7.407-10.168 20.689-2.7007 29.667 7.4673 8.9775 20.783 10.251 29.742 2.8437 4.4793-3.7034 7.0211-8.8759 7.5102-14.245l-8.4125-0.80423-4.2059-0.40218s-2.4473-0.24946-5.7083 2.4467c-1.792 1.4816-4.4548 1.227-5.9485-0.56873-1.4936-1.7957-1.2518-4.4519 0.5402-5.9334 0 0 3.2092-2.2975 3.468-5.1402l0.28822-3.1653c0.03038-0.33375 0.06169-0.67849 0.09367-1.0297 0.09373-1.0322 0.19318-2.1224 0.28797-3.1637l0.09404-1.032 0.23918-2.6282c0.04362-0.47927 0.07926-0.87093 0.10404-1.1431l0.03867-0.42426c-0.67279-0.064288-1.3485-0.096659-2.0246-0.096717z" fill="#fcd67c"/>
 <path d="m24.943 8.2645c-3.7585-6.278e-4 -7.5331 1.2535-10.646 3.827-7.1142 5.8819-8.0745 16.43-2.1447 23.559s16.505 8.1402 23.619 2.2583c3.5573-2.9411 5.5762-7.0484 5.964-11.312l-8.3503-0.79832s-2.4293-0.24763-5.6664 2.4288c-1.7788 1.4707-4.4221 1.218-5.9048-0.56454-1.4827-1.7825-1.2426-4.4191 0.53624-5.8898 0 0 3.1856-2.2806 3.4425-5.1024l0.28598-3.1422c0.03016-0.3313 0.06136-0.6735 0.09311-1.0222 0.09305-1.0246 0.19176-2.1067 0.28586-3.1404l0.09335-1.0244c-0.53428-0.05112-1.0709-0.076813-1.6079-0.076902z" fill="#15c68b"/>
 <path d="m24.957 12.397c-2.8305-6.28e-4 -5.6732 0.94393-8.0172 2.8819-5.3577 4.4297-6.0808 12.373-1.6151 17.742 4.4657 5.3689 12.429 6.1303 17.787 1.7006 2.6789-2.2149 4.1992-5.3079 4.4913-8.5188l-4.1921-0.40087s-2.4394-0.24865-5.6898 2.4388c-1.7861 1.4768-4.4402 1.223-5.929-0.56687-1.4888-1.7899-1.2478-4.4372 0.53832-5.914 0 0 3.1989-2.2902 3.4568-5.1236l0.28716-3.155c0.03028-0.33266 0.06161-0.67628 0.09349-1.0264-0.40237-0.0385-0.80651-0.05785-1.2109-0.05792z" fill="#2197e2"/>
 <path d="m18.497 30.391c3.0016 3.6087 8.3538 4.1204 11.955 1.143 1.8004-1.4885 2.8226-3.5677 3.0189-5.7256 0 0-2.4593-0.2507-5.7363 2.4587-1.8007 1.4888-4.4766 1.233-5.9775-0.57151-1.5009-1.8045-1.258-4.4735 0.54277-5.9624 0 0 3.2249-2.3088 3.485-5.1653-2.1633-0.20691-4.4019 0.40985-6.2023 1.8984-3.6011 2.9774-4.0871 8.3161-1.0855 11.925" fill="#405761"/>
 <path d="m38.886 20.913q-0.02532 0.15191-0.08861 0.2152-0.0633 0.0633-1.2406 0.2785-1.1773 0.21521-2.3799 0.21521-1.9748 0-3.0255-1.2786t-1.0507-3.4813q0-3.9117 0.93678-9.0893 0.49371-2.785 1.2153-3.9117 0.75955-1.1773 1.8229-1.6457 1.3292-0.58232 2.8356-0.58232 1.5191 0 2.0255 0.088614 0.51903 0.075955 0.58232 0.088614 0.16457 0.050637 0.16457 0.31648l-0.29116 2.3546q-0.05064 0.32914-0.25318 0.32914-0.20255 0-0.93678-0.10127-0.73423-0.11393-1.19-0.11393-1.2153 0-1.8482 0.6203-0.63296 0.60764-0.94944 2.3546-0.30382 1.7343-0.59498 4.6712-0.29116 2.9243-0.29116 4.4813 0 1.8356 1.6204 1.8356 0.46839 0 1.633-0.15191 1.1646-0.16457 1.3292-0.16457 0.26584 0 0.26584 0.31648z" fill="#405761" style="font-feature-settings:normal;font-variant-caps:normal;font-variant-ligatures:normal;font-variant-numeric:normal"/>
 <path d="m46.431 21.622q-2.2407 0-3.2914-1.3419-1.038-1.3545-1.038-3.937 0-1.2026 0.26584-3.1395t0.49371-2.8103q0.22786-0.88614 0.64562-1.7216 0.41775-0.84816 0.98741-1.3925 1.2533-1.2153 3.3927-1.2153 3.0382 0 3.937 2.228 0.48104 1.19 0.48104 2.8863 0 1.6837-0.26584 3.4939-0.25318 1.8103-0.48105 2.6837-0.22786 0.86082-0.64562 1.6963-0.40509 0.82284-0.97475 1.3672-1.2533 1.2026-3.5066 1.2026zm2.2407-5.5447q0.13925-0.67094 0.35446-2.5065 0.22786-1.8482 0.22786-2.7344 0-2.1521-1.5571-2.1521-0.73423 0-1.2153 0.69625-0.46839 0.69625-0.75955 2.3166-0.58232 3.2914-0.58232 5.3422t1.5444 2.0508q0.73423 0 1.2153-0.69625 0.49371-0.70891 0.77221-2.3166z" fill="#405761" style="font-feature-settings:normal;font-variant-caps:normal;font-variant-ligatures:normal;font-variant-numeric:normal"/>
 <path d="m60.23 0.40507-2.3293 20.685q-0.02532 0.17723-0.08862 0.25318-0.06329 0.07596-0.24052 0.08861l-2.5445 0.10127q-0.2785-0.02532-0.2785-0.24052l2.3419-20.799q0.02532-0.17723 0.08862-0.25318 0.06329-0.075955 0.24052-0.088614l2.4812-0.088614q0.32913 0.037977 0.32913 0.3418z" fill="#405761" style="font-feature-settings:normal;font-variant-caps:normal;font-variant-ligatures:normal;font-variant-numeric:normal"/>
 <path d="m67.116 0.40507-2.3293 20.685q-0.02532 0.17723-0.08862 0.25318-0.06329 0.07596-0.24052 0.08861l-2.5445 0.10127q-0.2785-0.02532-0.2785-0.24052l2.3419-20.799q0.02532-0.17723 0.08862-0.25318 0.06329-0.075955 0.24052-0.088614l2.4812-0.088614q0.32914 0.037977 0.32914 0.3418z" fill="#405761" style="font-feature-settings:normal;font-variant-caps:normal;font-variant-ligatures:normal;font-variant-numeric:normal"/>
 <path d="m79.75 6.5068-1.6457 14.596q-0.03798 0.32914-0.32914 0.3418l-2.5572 0.08861q-0.26584-0.02532-0.26584-0.24052l0.24052-1.7216q-0.58232 0.98741-1.2786 1.5191-0.6836 0.53168-1.5444 0.53168t-1.4685-0.29116q-0.60764-0.30382-1.0001-0.78487-0.37977-0.49371-0.6203-1.1773-0.44307-1.2153-0.44307-3.3167 0-2.1141 0.2785-3.5825 0.29116-1.4685 0.50637-2.228 0.2152-0.77221 0.56966-1.5824 0.36712-0.81019 0.82284-1.3545 1.038-1.2406 2.6204-1.2406 1.1773 0 1.7976 0.56966 0.6203 0.557 1.038 1.6583l0.15191-1.7216q0.025316-0.2785 0.31648-0.30382l2.4812-0.088614q0.32914 0.025318 0.32914 0.32914zm-7.7221 9.1779q0 3.0255 1.6204 3.0255 0.70891 0 1.152-0.64562 0.44307-0.65828 0.75955-2.6204 0.32914-1.9622 0.32914-2.861t-0.01266-1.1393-0.05064-0.63296q-0.03798-0.40509-0.13925-0.67093-0.10127-0.2785-0.26584-0.557-0.32914-0.54434-1.0634-0.54434-0.73423 0-1.1646 0.65828-0.43041 0.64562-0.67093 1.7343-0.4937 2.3293-0.4937 4.2535z" fill="#405761" style="font-feature-settings:normal;font-variant-caps:normal;font-variant-ligatures:normal;font-variant-numeric:normal"/>
 <path d="m88.422 21.938 0.32914-2.7217q-0.63296 1.1646-1.3545 1.7849-0.70892 0.6203-1.6204 0.6203-0.8988 0-1.5064-0.29116-0.60764-0.30382-1.0001-0.78487-0.37977-0.49371-0.6203-1.1773-0.44307-1.2153-0.44307-3.3167 0-2.1141 0.2785-3.5825 0.29116-1.4685 0.50637-2.228 0.21521-0.77221 0.56966-1.5824 0.36712-0.81019 0.82284-1.3545 1.038-1.2406 2.6204-1.2406 1.1646 0 1.7849 0.557 0.62029 0.557 1.0507 1.6583l0.1266-1.6963q0.02532-0.30382 0.32914-0.31648l2.5571-0.088614q0.26584 0.037977 0.26584 0.26584l-1.7216 15.356q-0.36712 3.4053-2.1141 4.8485-1.3798 1.152-3.7091 1.152-1.4811 0-3.0002-0.3418-0.2152-0.03798-0.29116-0.11393-0.07595-0.0633-0.07595-0.25318l0.25318-2.2913q0.03798-0.3418 0.2785-0.3418 0.16457 0 0.92412 0.25318t1.6963 0.25318q0.93677 0 1.4558-0.17723 0.53168-0.16457 0.84816-0.56966 0.557-0.68359 0.75955-2.2786zm-3.0255-6.2536q0 3.0255 1.6204 3.0255 0.70891 0 1.152-0.64562 0.44307-0.65828 0.75955-2.6204 0.32914-1.9622 0.32914-2.861t-0.01266-1.1393-0.05064-0.63296q-0.03798-0.40509-0.13925-0.67093-0.10127-0.2785-0.26584-0.557-0.32914-0.54434-1.0634-0.54434-0.73423 0-1.1646 0.65828-0.43041 0.64562-0.67093 1.7343-0.49371 2.3293-0.49371 4.2535z" fill="#405761" style="font-feature-settings:normal;font-variant-caps:normal;font-variant-ligatures:normal;font-variant-numeric:normal"/>
 <path d="m95.979 19.115q-0.29116-0.75955-0.40509-1.4938-0.10128-0.74689-0.10128-2.0381t0.27851-3.1901q0.92412-6.3296 5.7472-6.3296 1.8609 0 2.8483 1.2786 0.98741 1.2786 0.98741 3.3167t-0.25318 3.9623q-0.038 0.3418-0.39243 0.35446l-6.2536 0.21521q-0.01266 0.18989-0.01266 0.50636 0 1.4305 0.49371 2.266 0.50637 0.8355 1.5191 0.8355 1.0127 0 1.8736-0.29116 0.87349-0.30382 1.0254-0.30382 0.1519 0 0.26584 0.10127 0.11393 0.10127 0.11393 0.2785l-0.25318 2.228q-0.0127 0.18989-0.076 0.25318-0.0506 0.05064-0.2152 0.11393-1.5318 0.44307-2.9496 0.44307t-2.2027-0.3418q-0.78487-0.3418-1.2659-0.87348-0.46839-0.54434-0.77221-1.2912zm2.7597-7.1018-0.11393 0.81018 3.304-0.16457q0.21521-0.01266 0.2785-0.07595 0.18989-0.18989 0.18989-1.038 0-0.86082-0.0633-1.2026-0.0506-0.35446-0.18989-0.72157-0.29116-0.81019-1.0001-0.81019-0.69625 0-1.1013 0.24052-0.8988 0.557-1.3039 2.9622z" fill="#405761" style="font-feature-settings:normal;font-variant-caps:normal;font-variant-ligatures:normal;font-variant-numeric:normal"/>
 <path d="m58.449 26.465-1.8103 16.09 4.8485-0.18989q0.32914 0.01266 0.32914 0.32914l-0.32914 2.6204q-0.03798 0.32914-0.32913 0.3418l-7.798 0.2785q-0.26584 0-0.26584-0.24052l2.1647-19.153q0.02532-0.15191 0.07595-0.21521 0.0633-0.0633 0.24053-0.07596l2.5445-0.08861q0.32913 0.01266 0.32913 0.30382z" fill="#788890" style="font-feature-settings:normal;font-variant-caps:normal;font-variant-ligatures:normal;font-variant-numeric:normal"/>
 <path d="m75.463 30.909-1.6457 14.596q-0.03798 0.32914-0.32914 0.3418l-2.5571 0.08861q-0.26584-0.02531-0.26584-0.24052l0.24053-1.7216q-0.58232 0.98741-1.2786 1.5191-0.6836 0.53168-1.5444 0.53168t-1.4685-0.29116q-0.60764-0.30382-1.0001-0.78487-0.37978-0.49371-0.6203-1.1773-0.44307-1.2153-0.44307-3.3167 0-2.1141 0.2785-3.5825 0.29116-1.4685 0.50637-2.228 0.21521-0.77221 0.56966-1.5824 0.36711-0.81018 0.82284-1.3545 1.038-1.2406 2.6204-1.2406 1.1773 0 1.7976 0.56966 0.6203 0.557 1.038 1.6583l0.15191-1.7216q0.02532-0.2785 0.31648-0.30382l2.4812-0.08861q0.32914 0.02532 0.32914 0.32914zm-7.7221 9.1779q0 3.0255 1.6204 3.0255 0.70891 0 1.152-0.64562 0.44307-0.65828 0.75954-2.6204 0.32914-1.9622 0.32914-2.861t-0.01266-1.1393-0.05064-0.63296q-0.03798-0.40509-0.13925-0.67093-0.10127-0.2785-0.26584-0.557-0.32913-0.54434-1.0634-0.54434-0.73423 0-1.1646 0.65828-0.43041 0.64562-0.67094 1.7343-0.4937 2.3293-0.4937 4.2535z" fill="#788890" style="font-feature-settings:normal;font-variant-caps:normal;font-variant-ligatures:normal;font-variant-numeric:normal"/>
 <path d="m83.084 24.807-1.0634 8.0892q0.63296-1.1773 1.3545-1.7976 0.73423-0.63296 1.633-0.63296 0.91146 0 1.5191 0.30382 0.60764 0.29116 0.98741 0.78487 0.39243 0.48105 0.64562 1.1646 0.43041 1.2153 0.43041 3.3294 0 2.1014-0.29116 3.5699-0.2785 1.4685-0.4937 2.2407-0.21521 0.75955-0.58232 1.5697-0.35446 0.81019-0.81018 1.3545-1.038 1.2406-2.4432 1.2406-1.3925 0-2.0128-0.58232-0.6203-0.59498-1.0634-1.7849l-0.13925 1.8482q-0.02532 0.32914-0.31648 0.3418l-2.5571 0.08861q-0.2785-0.02532-0.2785-0.24052l2.3546-20.799q0.02532-0.17723 0.07595-0.25318 0.0633-0.07596 0.24053-0.08861l2.4812-0.08861q0.32914 0.03798 0.32914 0.3418zm2.3166 11.596q0-3.0255-1.6204-3.0255-0.70892 0-1.152 0.65828-0.44307 0.64562-0.77221 2.6078-0.31648 1.9622-0.31648 2.861t0.01266 1.1393q0.01266 0.24052 0.05063 0.64562 0.03798 0.39243 0.13926 0.67093 0.10127 0.26584 0.26584 0.53168 0.32914 0.557 1.0634 0.557 0.73423 0 1.1646-0.64562 0.43041-0.65828 0.65827-1.747 0.50637-2.3293 0.50637-4.2535z" fill="#788890" style="font-feature-settings:normal;font-variant-caps:normal;font-variant-ligatures:normal;font-variant-numeric:normal"/>
 <path d="m97.946 33.529-1.4305-0.0633q-0.60764 0-0.96209 0.2785-0.3418 0.2785-0.3418 0.81018 0 0.51902 0.18989 1.152 0.25318 0.84816 0.87348 1.9748 0.63296 1.1267 0.87348 1.5951 0.73423 1.4558 0.73423 2.7724 0 1.9115-1.1267 2.9496-1.114 1.0254-3.3926 1.0254-1.1267 0-1.7976-0.12659-0.67093-0.11393-0.74689-0.17723-0.06329-0.07596-0.06329-0.22786l0.32913-2.3419q0.02532-0.31648 0.2152-0.31648 0.20255 0 0.75955 0.13925t0.97476 0.13925q1.5444 0 1.5444-1.2279 0-0.87348-0.37978-1.633-0.36712-0.75955-0.81018-1.5697-0.43041-0.81018-0.67093-1.2912-0.24053-0.49371-0.50637-1.3545-0.25318-0.86082-0.25318-1.6204 0-1.7723 1.0507-2.861 1.0634-1.0887 3.0888-1.0887 1.3039 0 2.0381 0.12659 0.31648 0.05064 0.31648 0.32914l-0.2785 2.2533q0 0.35446-0.22787 0.35446z" fill="#788890" style="font-feature-settings:normal;font-variant-caps:normal;font-variant-ligatures:normal;font-variant-numeric:normal"/>
</svg>
