<svg
   xmlns:dc="http://purl.org/dc/elements/1.1/"
   xmlns:cc="http://creativecommons.org/ns#"
   xmlns:rdf="http://www.w3.org/1999/02/22-rdf-syntax-ns#"
   xmlns:svg="http://www.w3.org/2000/svg"
   xmlns="http://www.w3.org/2000/svg"
   xmlns:xlink="http://www.w3.org/1999/xlink"
   xmlns:sodipodi="http://sodipodi.sourceforge.net/DTD/sodipodi-0.dtd"
   xmlns:inkscape="http://www.inkscape.org/namespaces/inkscape"
   version="1"
   width="746.66669"
   height="496"
   id="svg2"
   inkscape:version="0.92.4 (5da689c313, 2019-01-14)"
   sodipodi:docname="sprite.svg"
   inkscape:export-filename="/home/huntingbears/Desarrollo/luisalejandro.github.io/static/img/site/sprite.png"
   inkscape:export-xdpi="90"
   inkscape:export-ydpi="90"><g xmlns="http://www.w3.org/2000/svg" id="g133">
    <path style="fill:#595959;fill-opacity:1;stroke:none;stroke-width:1.06666672" inkscape:connector-curvature="0" d="m 656.00001,57.75203 q 0,1.075318 -0.75087,1.835458 l -3.66164,3.661639 q -0.75087,0.75087 -1.83546,0.75087 -1.07533,0 -1.83546,-0.75087 l -7.91657,-7.916564 -7.91656,7.916564 q -0.75087,0.75087 -1.83547,0.75087 -1.07532,0 -1.83546,-0.75087 l -3.66164,-3.661639 q -0.75087,-0.750869 -0.75087,-1.835458 0,-1.075319 0.75087,-1.835458 l 7.91657,-7.91657 -7.91657,-7.916569 q -0.75087,-0.75087 -0.75087,-1.835459 0,-1.075318 0.75087,-1.835458 l 3.66164,-3.661645 q 0.75087,-0.750869 1.83546,-0.750869 1.07533,0 1.83547,0.750869 l 7.91656,7.91657 7.91657,-7.91657 q 0.75087,-0.750869 1.83546,-0.750869 1.07532,0 1.83546,0.750869 l 3.66164,3.661645 q 0.75087,0.75087 0.75087,1.835458 0,1.075319 -0.75087,1.835459 l -7.91656,7.916569 7.91656,7.91657 q 0.75087,0.750869 0.75087,1.835458 z" id="fa-times"/>
  </g></svg>