<?xml version="1.0" encoding="UTF-8" standalone="no"?>
<svg
   xmlns:dc="http://purl.org/dc/elements/1.1/"
   xmlns:cc="http://creativecommons.org/ns#"
   xmlns:rdf="http://www.w3.org/1999/02/22-rdf-syntax-ns#"
   xmlns:svg="http://www.w3.org/2000/svg"
   xmlns="http://www.w3.org/2000/svg"
   xmlns:sodipodi="http://sodipodi.sourceforge.net/DTD/sodipodi-0.dtd"
   xmlns:inkscape="http://www.inkscape.org/namespaces/inkscape"
   version="1.1"
   id="Layer_1"
   x="0px"
   y="0px"
   width="1600"
   height="400"
   viewBox="0 229.761 1600 399.99998"
   enable-background="new 0 229.761 2000 470.644"
   xml:space="preserve"
   sodipodi:docname="clouds.svg"
   inkscape:version="1.0.1 (3bc2e813f5, 2020-09-07)"><metadata
   id="metadata19"><rdf:RDF><cc:Work
       rdf:about=""><dc:format>image/svg+xml</dc:format><dc:type
         rdf:resource="http://purl.org/dc/dcmitype/StillImage" /><dc:title></dc:title></cc:Work></rdf:RDF></metadata><defs
   id="defs17">
	
		<linearGradient
   id="SVGID_1_"
   gradientUnits="userSpaceOnUse"
   x1="1579.7617"
   y1="201.6953"
   x2="1579.7617"
   y2="743.87183"
   gradientTransform="rotate(180,1276.8503,1167.4545)">
		<stop
   offset="0"
   style="stop-color:#080D15"
   id="stop5" />
		<stop
   offset="1"
   style="stop-color:#265270"
   id="stop7" />
	</linearGradient>
	
</defs><sodipodi:namedview
   pagecolor="#ffffff"
   bordercolor="#666666"
   borderopacity="1"
   objecttolerance="10"
   gridtolerance="10"
   guidetolerance="10"
   inkscape:pageopacity="0"
   inkscape:pageshadow="2"
   inkscape:window-width="1920"
   inkscape:window-height="1000"
   id="namedview15"
   showgrid="false"
   inkscape:zoom="1.9219162"
   inkscape:cx="1511.8908"
   inkscape:cy="459.15065"
   inkscape:window-x="0"
   inkscape:window-y="48"
   inkscape:window-maximized="1"
   inkscape:current-layer="Layer_1"
   inkscape:document-rotation="0"
   borderlayer="true" />
<g
   id="Layer_1_1_">
</g>
<g
   id="Layer_2">
</g>
<g
   id="Layer_3">
</g>
<path
   id="path10"
   style="fill:#ffffff;fill-opacity:1;stroke-width:0.790992"
   d="m -153.59829,115.18231 c -27.43151,308.37823 72.934467,572.01623 90.805802,834.2404 L 1609.264,834.99213 1603.0734,585.26974 c -7.9466,-29.37427 -46.5049,-36.57604 -68.6048,-35.06357 -31.2227,2.13677 -56.6184,21.54241 -65.0681,46.87165 -7.4783,-4.59172 -16.383,-7.01471 -25.8037,-6.36998 -11.8364,0.81005 -20.7937,6.17646 -28.1259,14.36725 -8.6176,-8.5755 -20.7177,-13.5641 -33.7994,-12.66882 -15.3907,1.05328 -28.3407,9.97153 -35.2746,22.54643 -13.6971,-9.96262 -31.5953,-15.43051 -50.7943,-14.11656 -15.0167,1.02768 -28.6869,6.04994 -39.7707,13.80452 -11.9939,-15.68456 -32.8345,-25.34136 -55.8262,-23.76788 -10.041,0.68718 -19.3823,3.44248 -27.5347,7.75485 -4.2989,-4.61858 -9.8081,-8.06281 -15.9968,-9.8502 0.1786,-1.87326 0.247,-3.77609 0.1139,-5.71403 -0.7045,-10.29291 -5.815,-19.21331 -13.3342,-25.13508 1.4502,-4.26667 2.102,-8.88146 1.7755,-13.65407 -1.3238,-19.3419 -18.1163,-33.95034 -37.5126,-32.6229 -6.1388,0.42013 -11.7991,2.4015 -16.6307,5.50503 -3.7297,-16.62926 -19.1274,-28.51856 -36.6987,-27.31605 -0.5405,0.037 -1.0673,0.12538 -1.6007,0.19002 -4.1854,-8.04329 -12.8624,-13.27939 -22.5072,-12.61934 -5.1166,0.35016 -9.7242,2.32286 -13.3935,5.35779 -6.683,-3.60303 -14.4176,-5.45975 -22.5582,-4.9027 -16.4153,1.12341 -29.9047,11.62609 -35.6825,25.88669 -6.5214,-3.36212 -14.0005,-5.08889 -21.8684,-4.55042 -1.1667,0.0798 -2.307,0.24027 -3.4404,0.41352 -0.01,-0.0585 0.01,-0.11901 0,-0.17811 -1.563,-22.83837 -21.3939,-40.08574 -44.29591,-38.51838 -3.18436,0.21792 -6.25034,0.82434 -9.18517,1.70631 0.53166,-3.15273 0.74953,-6.40274 0.52147,-9.73406 -1.56337,-22.84405 -21.39086,-40.08594 -44.29283,-38.51859 -3.83217,0.26226 -7.48595,1.07372 -10.94639,2.28677 -4.36275,-7.48936 -12.70497,-12.28669 -21.95344,-11.65376 -2.76185,0.18902 -5.36466,0.86569 -7.76674,1.90965 -8.15065,-7.76647 -19.38531,-12.24756 -31.51331,-11.41756 v 0 c -8.75603,0.59923 -16.68381,3.86638 -23.06293,8.94782 l 0.0504,0.73675 c -7.01207,-4.16498 -15.31084,-6.32165 -24.06697,-5.7224 -12.12799,0.83 -22.64427,6.79966 -29.66094,15.60424 -2.52188,-0.70699 -5.19725,-1.02093 -7.95903,-0.83195 -9.24856,0.63294 -16.85633,6.52202 -20.15801,14.53582 -3.59357,-0.73021 -7.32534,-1.03798 -11.1575,-0.77568 -22.902,1.56736 -40.19544,21.35269 -38.63206,44.19684 0.22798,3.33129 0.88648,6.51991 1.84271,9.57074 -3.02765,-0.47385 -6.14773,-0.65865 -9.33213,-0.44071 -22.90203,1.56734 -40.1967,21.35681 -38.63369,44.19543 0.004,0.0583 0.0205,0.11949 0.0245,0.17797 -1.14644,-0.0173 -2.29807,-0.0224 -3.46474,0.0575 -7.86782,0.53845 -15.04224,3.26677 -21.04466,7.48565 -7.66684,-13.34036 -22.45962,-21.90593 -38.87482,-20.78252 -8.14067,0.55712 -15.55178,3.45046 -21.68164,7.93035 -4.04851,-2.50676 -8.88042,-3.83343 -13.99699,-3.48327 -9.64467,0.66005 -17.52909,7.02957 -20.57978,15.5681 -0.53706,0.009 -1.06952,-0.007 -1.60999,0.0296 -8.01971,0.54884 -15.21445,3.74276 -20.80776,8.66179 -10.41974,-4.06529 -22.10948,-5.98171 -34.32977,-5.14539 -27.02391,1.84944 -49.68281,16.63498 -60.76838,36.99827 -16.76815,-9.74586 -37.68944,-12.29286 -57.44508,-5.19868 -1.16573,0.42379 -2.25444,0.93641 -3.38097,1.41755 -9.39389,-8.82159 -23.37381,-12.20527 -36.42154,-7.51706 -4.20304,1.50933 -7.91648,3.75532 -11.08944,6.4869 -6.91798,-15.16981 -19.01639,-26.67616 -33.50117,-33.13284 -1.04692,-4.2338 -2.30531,-8.45218 -3.84514,-12.62822 -15.82781,-42.8467 -54.47562,-70.99107 -97.55527,-76.07195 2.39923,-18.01362 0.59086,-36.82967 -6.13517,-55.07292 -9.53942,-25.81873 -27.38526,-46.27801 -49.47395,-59.60326 12.70876,-17.2483 16.78349,-40.17969 8.84108,-61.67257 -11.81964,-31.99567 -46.072871,-49.50545 -78.949276,-41.71684 0.02463,-7.59213 -1.200805,-15.30103 -3.988312,-22.84333 -10.72985,-29.03423 -39.94757,-46.09275 -69.845062,-43.1808 -0.49169,-1.65052 -1.01886,-3.29961 -1.62894,-4.95375 -6.73874,-18.25411 -19.3582,-32.72502 -34.98011,-42.13997 z"
   sodipodi:nodetypes="ccccscscscscsccscsscscscscscsscsscscccccscsccscsscscscscscsccccccccccccccccc" />
<g
   id="Layer_5">
</g>
<path
   style="fill:#1c97e3;fill-opacity:1;fill-rule:nonzero;stroke:none;stroke-width:1.33502"
   d="m 1742.9902,962.55469 v 0.65234 c -0.1829,-0.0473 -0.3604,-0.10425 -0.5429,-0.15625 0.1828,-0.1615 0.3603,-0.32939 0.5429,-0.49609 z"
   transform="translate(0,229.761)"
   id="path925" /><path
   style="fill:#1c97e3;fill-opacity:1;fill-rule:nonzero;stroke:none;stroke-width:1.33502"
   d="m 1742.9902,961.83594 c 0.1826,0.1667 0.3602,0.33264 0.543,0.49414 -0.1825,0.052 -0.3601,0.1109 -0.543,0.1582 z"
   transform="translate(0,229.761)"
   id="path923" /><path
   style="fill:#1c97e3;fill-opacity:1;fill-rule:nonzero;stroke:none;stroke-width:1.33502"
   d="m 1472.8184,897.13086 c 0.1198,0.1251 0.2245,0.2552 0.3496,0.375 -0.1358,0.2084 -0.2561,0.42266 -0.3868,0.63086 -0.1252,-0.1303 -0.2345,-0.27555 -0.3652,-0.40625 0.1356,-0.1979 0.2667,-0.39661 0.4024,-0.59961 z"
   transform="translate(0,229.761)"
   id="path921" /><path
   style="fill:#1c97e3;fill-opacity:1;fill-rule:nonzero;stroke:none;stroke-width:1.33502"
   d="m 2013.1641,896.41211 c 0.1357,0.203 0.2667,0.40171 0.4023,0.59961 -0.1307,0.1307 -0.24,0.27595 -0.3652,0.40625 -0.1307,-0.2082 -0.2509,-0.42246 -0.3867,-0.63086 0.1251,-0.1198 0.2298,-0.2499 0.3496,-0.375 z"
   transform="translate(0,229.761)"
   id="path919" /><path
   style="fill:#1c97e3;fill-opacity:1;fill-rule:nonzero;stroke:none;stroke-width:1.33502"
   d="m 1642.1348,836.07422 h 0.023 v 0.004 0.0898 c -0.01,-0.03 -0.012,-0.0637 -0.023,-0.0937 z"
   transform="translate(0,229.761)"
   id="path917" /><path
   style="fill:#1c97e3;fill-opacity:1;fill-rule:nonzero;stroke:none;stroke-width:1.33502"
   d="m 1843.8242,835.35547 h 0.022 c -0.011,0.03 -0.014,0.0618 -0.022,0.0918 v -0.0879 z"
   transform="translate(0,229.761)"
   id="path915" /><path
   style="fill:#1c97e3;fill-opacity:1;fill-rule:nonzero;stroke:none;stroke-width:1.33502"
   d="m 1742.9902,806.0957 c 0.2037,0.1406 0.4038,0.29244 0.6075,0.42774 -0.2034,0.088 -0.4038,0.19721 -0.6075,0.29101 v 0.72071 c -0.2037,-0.0938 -0.402,-0.20497 -0.6054,-0.29297 0.2037,-0.1353 0.4017,-0.28714 0.6054,-0.42774 z"
   transform="translate(0,229.761)"
   id="path913" /></svg>
