<svg
   xmlns:dc="http://purl.org/dc/elements/1.1/"
   xmlns:cc="http://creativecommons.org/ns#"
   xmlns:rdf="http://www.w3.org/1999/02/22-rdf-syntax-ns#"
   xmlns:svg="http://www.w3.org/2000/svg"
   xmlns="http://www.w3.org/2000/svg"
   xmlns:xlink="http://www.w3.org/1999/xlink"
   xmlns:sodipodi="http://sodipodi.sourceforge.net/DTD/sodipodi-0.dtd"
   xmlns:inkscape="http://www.inkscape.org/namespaces/inkscape"
   version="1"
   width="746.66669"
   height="496"
   id="svg2"
   inkscape:version="0.92.4 (5da689c313, 2019-01-14)"
   sodipodi:docname="sprite.svg"
   inkscape:export-filename="/home/huntingbears/Desarrollo/luisalejandro.github.io/static/img/site/sprite.png"
   inkscape:export-xdpi="90"
   inkscape:export-ydpi="90"><g xmlns="http://www.w3.org/2000/svg" id="g1018">
    <path id="path985" d="m 643.96017,326.4 -4.03603,4.05333 q -0.8497,0.85334 -1.91181,0.85334 -1.06211,0 -1.91181,-0.85334 L 598.28924,292.48 q -0.8497,-0.85333 -0.8497,-1.92 0,-1.06667 0.8497,-1.92 l 37.91749,-37.97333 q 0.8497,-0.85334 1.91181,-0.85334 1.06211,0 1.91181,0.85334 l 4.03603,4.05333 q 0.84969,0.85333 0.84969,1.92 0,1.06667 -0.84969,1.92 l -31.96965,32.10667 31.96965,32.10666 q 0.84969,0.85334 0.84969,1.92 0,1.06667 -0.84969,1.92 z" style="fill:#c2beb2;stroke-width:1.06666672"/>
    <path id="path983" d="m 691.96775,239.36 -30.27027,105.28 q -0.31863,1.06667 -1.27454,1.6 -0.95589,0.53333 -1.91179,0.21333 l -4.99195,-1.38666 q -1.06211,-0.32 -1.59317,-1.28 -0.53105,-0.96 -0.21242,-2.02667 l 30.27027,-105.28 q 0.31864,-1.06667 1.27454,-1.6 0.95589,-0.53333 1.9118,-0.21333 l 4.99195,1.38666 q 1.06211,0.32 1.59317,1.28 0.53105,0.96 0.21241,2.02667 z" style="fill:#c2beb2;stroke-width:1.06666672"/>
    <path id="path981" d="m 745.39213,292.48 -37.81129,37.97333 q -0.84968,0.85334 -1.91181,0.85334 -1.06211,0 -1.9118,-0.85334 L 699.72119,326.4 q -0.84969,-0.85333 -0.84969,-1.92 0,-1.06667 0.84969,-1.92 l 31.96966,-32.10667 -31.96966,-32.10666 q -0.84969,-0.85334 -0.84969,-1.92 0,-1.06667 0.84969,-1.92 l 4.03604,-4.05334 q 0.84969,-0.85333 1.9118,-0.85333 1.06213,0 1.91181,0.85333 l 37.9175,37.97334 q 0.84969,0.85333 0.84969,1.92 0,1.06666 -0.84969,1.92 z" style="fill:#c2beb2;stroke-width:1.06666672"/>
  </g></svg>