<svg
   xmlns:dc="http://purl.org/dc/elements/1.1/"
   xmlns:cc="http://creativecommons.org/ns#"
   xmlns:rdf="http://www.w3.org/1999/02/22-rdf-syntax-ns#"
   xmlns:svg="http://www.w3.org/2000/svg"
   xmlns="http://www.w3.org/2000/svg"
   xmlns:xlink="http://www.w3.org/1999/xlink"
   xmlns:sodipodi="http://sodipodi.sourceforge.net/DTD/sodipodi-0.dtd"
   xmlns:inkscape="http://www.inkscape.org/namespaces/inkscape"
   version="1"
   width="746.66669"
   height="496"
   id="svg2"
   inkscape:version="0.92.4 (5da689c313, 2019-01-14)"
   sodipodi:docname="sprite.svg"
   inkscape:export-filename="/home/huntingbears/Desarrollo/luisalejandro.github.io/static/img/site/sprite.png"
   inkscape:export-xdpi="90"
   inkscape:export-ydpi="90"><g xmlns="http://www.w3.org/2000/svg" id="g1044" transform="matrix(0.21768384,-0.10910423,0.10928143,0.21470968,-541.44623,260.58344)">
    <path style="fill:#e6e7e8;stroke:#808184;stroke-width:3;stroke-miterlimit:10" inkscape:connector-curvature="0" id="path1006" d="m 2770.897,903.8 c 3.832,3.8 3.8,10 0,13.874 l -13.219,13.218 c -3.83,3.83 -10.041,3.83 -13.873,0 l -61.652,-61.653 c -3.83,-3.831 -3.83,-10.043 0,-13.873 l 13.219,-13.218 c 3.83,-3.831 10.041,-3.831 13.9,0 l 61.625,61.655 z" stroke-miterlimit="10"/>
    <path style="fill:#e6e7e8;stroke:#808184;stroke-miterlimit:10" inkscape:connector-curvature="0" id="path1008" d="m 2768.147,906.552 c 3.832,3.8 4.5,9.4 1.4,12.5 l -10.537,10.537 c -3.055,3.053 -8.635,2.422 -12.465,-1.409 l -61.654,-61.652 c -3.83,-3.83 -4.461,-9.409 -1.408,-12.465 l 10.537,-10.536 c 3.053,-3.054 8.635,-2.424 12.5,1.406 z" stroke-miterlimit="10"/>
    <circle style="fill:#ffffff;stroke:#808184;stroke-width:3;stroke-miterlimit:10" id="circle1010" r="143.8" cy="768.59998" cx="2608.6001" stroke-miterlimit="10"/>
    <path style="fill:#e6e7e8;stroke:#808184;stroke-miterlimit:10" inkscape:connector-curvature="0" id="path1012" d="m 2736.317,768.605 c 0,46.141 -24.471,86.565 -61.141,109 -5.287,3.234 -6.328,6.869 -12.086,9.32 -2.016,0.857 -8.559,0.895 -10.627,1.651 -13.676,5 -28.447,7.729 -43.855,7.7 -70.531,0 -127.711,-57.178 -127.711,-127.709 0,-70.531 57.18,-127.71 127.711,-127.71 13.016,0 25.6,1.9 37.4,5.6 14.117,-1.66 9,3 13.3,4.896 45.314,19.647 76.992,64.747 76.992,117.252 z" stroke-miterlimit="10"/>
    <circle style="fill:#3b2314;stroke:#3b2314;stroke-width:3;stroke-miterlimit:10" id="circle1014" r="117" cy="768.59998" cx="2608.6001" stroke-miterlimit="10"/>
    <path style="fill:#754c28" inkscape:connector-curvature="0" id="path1016" d="m 2691.313,685.899 c -45.678,-45.678 -119.734,-45.678 -165.41,0 -45.678,45.677 -45.678,119.7 0,165.4 27.689,27.7 65.8,38.6 101.7,32.706 -0.256,-0.098 -4.256,-1.615 -8.762,-1.085 -4.656,0.548 -11.996,1.511 -15.482,-3.271 -2.893,-3.965 -7.291,-8.795 -15.205,-4.396 -3.311,-8.796 -15.455,-7.877 -19.975,-7.533 -9.037,0.684 -8.488,2.738 -13.967,0 -5.477,-2.738 -18.209,-14.104 -22.455,-19.854 -1.23,-5.065 -13.691,-19.307 -17.389,-25.192 1.369,-6.299 -8.764,-30.262 -10.133,-34.506 -1.369,-4.244 1.781,-30.811 2.055,-34.644 0.274,-3.833 4.381,-9.856 4.381,-9.856 0,0 4.268,-1.31 6.006,-7.584 2.908,-10.508 -1.055,-14.435 -1.738,-16.623 -0.686,-2.19 9.834,-13.313 15.588,-17.418 5.75,-4.108 9.283,-6.989 19.123,-8.245 8.576,-1.095 9.396,-10.081 9.396,-10.081 4.09,-1.896 5.1,3.6 16.826,-3.325 1.934,-1.146 1.2,0.8 4.2,1.231 6.262,0.9 10.434,-4.229 10.434,-4.229 0,0 2.6,0.4 14.4,0.687 19.939,0.1 28.07,-8.354 28.891,-9.313 0.822,-0.958 4.2,0.7 9,0 0.547,1.1 4.5,2.9 10.1,0.771 1.646,4.2 14.4,5.1 17.7,5.938 3.285,0.8 25.7,19.4 29.3,24.5 3.564,5.1 7.9,9.2 9.9,9.961 v -0.005 C 2704.84,701.4 2698.7,693.3 2691.3,685.899 Z"/>
    <path style="fill:#3b2314" inkscape:connector-curvature="0" id="path1018" d="m 2567.942,664.246 c 3.57,-0.849 11.6,4 11.8,4.611 1.418,4.028 -2.166,8.684 -7.504,10.2 -5.336,1.554 -10.631,-0.511 -11.822,-4.611 -1.173,-4.046 2.084,-8.946 7.484,-10.2 z"/>
    <path style="fill:#3b2314" inkscape:connector-curvature="0" id="path1020" d="m 2574.393,661.474 c 2.75,1.7 6.1,4.9 6.1,2.104 -0.021,-1.163 -1.195,-3.96 -2.887,-4.484 -2.32,-0.694 -5.106,1.206 -3.206,2.38 z"/>
    <path style="fill:#3b2314" inkscape:connector-curvature="0" id="path1022" d="m 2581.999,679.588 c 3.555,-0.363 5.605,-5.377 3.145,-6.204 -2.468,-0.784 -7.944,6.716 -3.144,6.204 z"/>
    <path style="fill:#3b2314" inkscape:connector-curvature="0" id="path1024" d="m 2583.879,668.321 c 2.959,2.8 4.6,4.2 8,3.3 3.42,-0.873 4.934,-2.581 4.934,-6.143 0,-3.564 -1.354,-6.668 -3.422,-7.543 -2.07,-0.876 -6.207,-0.479 -8.438,3.422 -2.193,3.943 -3.353,5.243 -1.053,6.964 z"/>
    <path style="fill:#3b2314" inkscape:connector-curvature="0" id="path1026" d="m 2572.889,880.013 c -4.266,-1.458 -6.002,-4.737 -2.92,-6.972 3.084,-2.23 9.627,-2.189 12.629,-0.545 5.445,3 4.4,10.32 -1.596,9.8"/>
    <path style="fill:#3b2314" inkscape:connector-curvature="0" id="path1028" d="m 2538.811,679.476 c 3.049,-1.923 5.639,-0.97 7.1,1.372 1.48,2.3 1.3,5.186 -1.77,7.1 -3.051,1.926 -6.719,1.582 -8.195,-0.759 -1.476,-2.341 -0.19,-5.789 2.854,-7.713 z"/>
    <path style="fill:#3b2314" inkscape:connector-curvature="0" id="path1030" d="m 2549.149,684.731 c 1.137,-2.537 3.027,-4.159 4.225,-3.623 1.197,0.5 2.5,3.4 1.4,5.9 -1.137,2.538 -4.324,3.813 -5.521,3.278 -1.19,-0.486 -1.253,-2.986 -0.153,-5.555 z"/>
    <path style="fill:#3b2314" inkscape:connector-curvature="0" id="path1032" d="m 2547.647,672.076 c 1.889,-1.507 3.066,-0.635 4.2,0.731 1.134,1.366 1.682,2.71 -0.209,4.218 -1.891,1.508 -4.307,1.622 -5.395,0.3 -1.137,-1.425 -0.443,-3.725 1.357,-5.249 z"/>
    <path style="fill:#3b2314" inkscape:connector-curvature="0" id="path1034" d="m 2606.866,654.157 c 0,0 17.7,0.9 19,1.963 1.309,1.1 0.7,9.228 -3.486,12.4 -4.143,3.127 -13.518,5.522 -18.094,1.601 -4.619,-4.021 -1.286,-16.221 2.614,-15.964 z"/>
    <path style="fill:#3b2314" inkscape:connector-curvature="0" id="path1036" d="m 2590.004,884.026 c -1.543,-0.188 -2.523,-3.134 -1.262,-5.446 1.26,-2.312 5.467,-4.312 10.2,0 4.73,4.3 4.6,7 1.1,6.7"/>
    <path style="fill:#3b2314" inkscape:connector-curvature="0" id="path1038" d="m 2563.188,872.375 c 1.787,1.9 4.2,0.6 4.521,-1.065 0.315,-1.71 -7.109,-1.81 -4.509,1.065 z"/>
    <path style="fill:#3b2314" inkscape:connector-curvature="0" id="path1040" d="m 2508.311,741.09 c -11.984,-0.773 -4.385,-13.662 -0.645,-17.145 3.738,-3.479 6.996,-3.193 7.1,3.4 0.174,13.055 -6.466,13.755 -6.466,13.745 z"/>
    <path style="opacity:0.5;fill:#754c28" inkscape:connector-curvature="0" id="path1042" d="m 2677.075,700.14 c -11.885,-11.884 -26.086,-20.029 -41.152,-24.444 -8.33,5.313 -24.674,9.25 -43.563,4.35 -1.387,4.715 -10.189,8.155 -15.24,3.779 -3.367,4.251 -7.461,8.74 -14.445,3.2 -4,12.624 -12.773,11.893 -16.922,10.735 -1.385,-0.386 -4.512,1.272 -5.605,2.368 -7.773,7.771 -13.945,16.537 -18.521,25.9 1.73,10.467 -1.15,20.38 -8.291,25.312 -4.973,27.6 2.1,56.9 21.1,79.559 10.061,-18.245 31.268,-44.826 74.127,-62.29 42.727,-17.409 64.006,-43.95 74.162,-62.247 -1.746,-2.162 -3.625,-4.262 -5.625,-6.222 z" enable-background="new    "/>
  </g></svg>