<svg
   xmlns:dc="http://purl.org/dc/elements/1.1/"
   xmlns:cc="http://creativecommons.org/ns#"
   xmlns:rdf="http://www.w3.org/1999/02/22-rdf-syntax-ns#"
   xmlns:svg="http://www.w3.org/2000/svg"
   xmlns="http://www.w3.org/2000/svg"
   xmlns:xlink="http://www.w3.org/1999/xlink"
   xmlns:sodipodi="http://sodipodi.sourceforge.net/DTD/sodipodi-0.dtd"
   xmlns:inkscape="http://www.inkscape.org/namespaces/inkscape"
   version="1"
   width="746.66669"
   height="496"
   id="svg2"
   inkscape:version="0.92.4 (5da689c313, 2019-01-14)"
   sodipodi:docname="sprite.svg"
   inkscape:export-filename="/home/huntingbears/Desarrollo/luisalejandro.github.io/static/img/site/sprite.png"
   inkscape:export-xdpi="90"
   inkscape:export-ydpi="90"><g xmlns="http://www.w3.org/2000/svg" id="g142">
    <path d="m 390,89.999996 c -16.58182,0 -30,13.418184 -30,30.000004 0,16.58182 13.41818,30 30,30 16.58182,0 30,-13.41818 30,-30 0,-16.58182 -13.41818,-30.000004 -30,-30.000004 z m 7.96363,29.890914 h -5.23636 c 0,8.29091 0,18.54545 0,18.54545 h -7.74546 c 0,0 0,-10.14545 0,-18.54545 h -3.70909 v -6.54546 h 3.70909 v -4.25454 c 0,-3.05455 1.41819,-7.74546 7.74546,-7.74546 H 398.4 v 6.32727 c 0,0 -3.49091,0 -4.14546,0 -0.65454,0 -1.63636,0.32728 -1.63636,1.74546 v 3.81818 h 5.89091 z" class="st0" id="XMLID_5_-3" inkscape:connector-curvature="0" style="fill:#7f99cf;stroke-width:1.09090912;fill-opacity:1"/>
  </g></svg>