<svg
   xmlns:dc="http://purl.org/dc/elements/1.1/"
   xmlns:cc="http://creativecommons.org/ns#"
   xmlns:rdf="http://www.w3.org/1999/02/22-rdf-syntax-ns#"
   xmlns:svg="http://www.w3.org/2000/svg"
   xmlns="http://www.w3.org/2000/svg"
   xmlns:xlink="http://www.w3.org/1999/xlink"
   xmlns:sodipodi="http://sodipodi.sourceforge.net/DTD/sodipodi-0.dtd"
   xmlns:inkscape="http://www.inkscape.org/namespaces/inkscape"
   version="1"
   width="746.66669"
   height="496"
   id="svg2"
   inkscape:version="0.92.4 (5da689c313, 2019-01-14)"
   sodipodi:docname="sprite.svg"
   inkscape:export-filename="/home/huntingbears/Desarrollo/luisalejandro.github.io/static/img/site/sprite.png"
   inkscape:export-xdpi="90"
   inkscape:export-ydpi="90"><g xmlns="http://www.w3.org/2000/svg" id="g1005">
    <path id="path166" d="m 240.54453,31.999995 c -2.90405,0 -5.58521,0.704 -8.04084,2.133333 -2.45562,1.429333 -4.37475,3.38 -5.80542,5.833333 -1.43067,2.453334 -2.16869,5.132 -2.16869,8.033334 0,3.235555 0.88972,6.161778 2.66916,8.8 1.76519,2.638222 4.07847,4.600888 6.93981,5.866666 -0.057,-1.486222 0.032,-2.725778 0.26691,-3.7 l 2.0686,-8.7 c -0.34877,-0.675555 -0.53383,-1.516444 -0.53383,-2.533333 0,-1.180445 0.30295,-2.177333 0.90085,-2.966667 0.59788,-0.789333 1.3408,-1.166666 2.20205,-1.166666 0.69042,0 1.22425,0.211555 1.60149,0.666666 0.37724,0.455112 0.56719,1.036445 0.56719,1.733334 0,0.426666 -0.077,0.948 -0.23354,1.566666 -0.16371,0.618667 -0.37769,1.356 -0.63393,2.166667 -0.25623,0.817778 -0.45331,1.449778 -0.56719,1.933333 -0.19218,0.846222 -0.012,1.562222 0.50046,2.166667 0.51248,0.604445 1.18822,0.933333 2.03523,0.933333 1.48761,0 2.71632,-0.850222 3.6701,-2.5 0.95377,-1.649778 1.4013,-3.639111 1.4013,-6 0,-1.820444 -0.56052,-3.295555 -1.73494,-4.433333 -1.17444,-1.137778 -2.83821,-1.7 -4.93795,-1.7 -2.34886,0 -4.21994,0.725778 -5.67196,2.233333 -1.45202,1.507556 -2.20205,3.335556 -2.20205,5.433334 0,1.251555 0.35588,2.287111 1.06765,3.133333 0.23489,0.277333 0.31897,0.58 0.23356,0.9 -0.0285,0.08533 -0.0814,0.299111 -0.16682,0.633333 -0.0854,0.334222 -0.13835,0.533778 -0.16683,0.633334 -0.10676,0.440888 -0.3808,0.596888 -0.80075,0.433333 -1.07478,-0.448 -1.88041,-1.238222 -2.4356,-2.333333 -0.55519,-1.095112 -0.83411,-2.356445 -0.83411,-3.8 0,-0.931556 0.13479,-1.868445 0.43374,-2.8 0.29895,-0.931556 0.76782,-1.832445 1.40131,-2.7 0.63347,-0.867556 1.38617,-1.631556 2.26878,-2.3 0.88261,-0.661334 1.96939,-1.194667 3.23635,-1.6 1.26697,-0.405334 2.64469,-0.6 4.10383,-0.6 1.97162,0 3.73194,0.425333 5.30495,1.3 1.57302,0.874666 2.77771,2.013333 3.60337,3.4 0.82565,1.386666 1.23448,2.880888 1.23448,4.466666 0,2.083556 -0.37501,3.936 -1.10103,5.6 -0.71889,1.664 -1.74563,2.980445 -3.06952,3.933334 -1.32391,0.952888 -2.82443,1.433333 -4.50421,1.433333 -0.84701,0 -1.62864,-0.201778 -2.36888,-0.6 -0.74024,-0.398222 -1.25717,-0.859555 -1.53476,-1.4 -0.61925,2.460445 -0.97291,3.930667 -1.10103,4.4 -0.26336,0.981333 -0.81632,2.105778 -1.63486,3.4 1.4876,0.440889 2.99301,0.666667 4.53757,0.666667 2.90404,0 5.58521,-0.704 8.04084,-2.133334 2.45562,-1.429333 4.40811,-3.38 5.83877,-5.833333 1.43068,-2.453333 2.13534,-5.132 2.13534,-8.033333 0,-2.901334 -0.70466,-5.58 -2.13534,-8.033334 -1.43066,-2.453333 -3.38315,-4.404 -5.83877,-5.833333 -2.45563,-1.429333 -5.1368,-2.133333 -8.04084,-2.133333 z" style="fill:#999999;fill-opacity:1;stroke:none;stroke-width:1.06716478"/>
  </g></svg>