<svg
   xmlns:dc="http://purl.org/dc/elements/1.1/"
   xmlns:cc="http://creativecommons.org/ns#"
   xmlns:rdf="http://www.w3.org/1999/02/22-rdf-syntax-ns#"
   xmlns:svg="http://www.w3.org/2000/svg"
   xmlns="http://www.w3.org/2000/svg"
   xmlns:xlink="http://www.w3.org/1999/xlink"
   xmlns:sodipodi="http://sodipodi.sourceforge.net/DTD/sodipodi-0.dtd"
   xmlns:inkscape="http://www.inkscape.org/namespaces/inkscape"
   version="1"
   width="746.66669"
   height="496"
   id="svg2"
   inkscape:version="0.92.4 (5da689c313, 2019-01-14)"
   sodipodi:docname="sprite.svg"
   inkscape:export-filename="/home/huntingbears/Desarrollo/luisalejandro.github.io/static/img/site/sprite.png"
   inkscape:export-xdpi="90"
   inkscape:export-ydpi="90"><g xmlns="http://www.w3.org/2000/svg" id="g1002">
    <path id="path168" d="m 195.16885,31.999997 c -0.0568,0 -0.0908,0.024 -0.13345,0.06666 -0.0427,0.04267 -0.0859,0.102656 -0.1,0.16665 -0.0641,0.583054 -0.13879,1.145222 -0.26691,1.699834 -0.12812,0.554613 -0.36123,1.188772 -0.6673,1.899814 -0.31318,0.711043 -0.7002,1.3692 -1.13439,1.966475 -0.43419,0.597276 -1.00182,1.178553 -1.73495,1.733165 -0.73314,0.554612 -1.57703,0.999013 -2.50234,1.333203 v 4.13293 h 3.23636 v 10.465645 c 0,0.746594 0.12011,1.498521 0.33364,2.266446 0.21353,0.767924 0.56941,1.53185 1.06767,2.299775 0.49824,0.767925 1.11615,1.442971 1.83504,2.033135 0.71889,0.590164 1.62552,1.077673 2.73588,1.433193 1.11038,0.362632 2.33908,0.528394 3.6701,0.499951 1.13884,-0.01422 2.27145,-0.235088 3.40318,-0.633271 1.13172,-0.398183 1.8435,-0.818587 2.13532,-1.266543 l -1.53476,-4.532891 c -0.71889,0.341301 -1.56546,0.53817 -2.56907,0.566611 -0.61924,0.01422 -1.14107,-0.07466 -1.56812,-0.266641 -0.42707,-0.19198 -0.76117,-0.458621 -0.96758,-0.799921 -0.20641,-0.3413 -0.34832,-0.699043 -0.43373,-1.033233 -0.0854,-0.334189 -0.13347,-0.682599 -0.13347,-1.066562 v -9.965694 h 6.43935 v -4.832862 h -6.40598 v -8.165869 h -4.70439 z" style="fill:#999999;fill-opacity:1;stroke:none;stroke-width:1.06716478"/>
  </g></svg>