<svg
   xmlns:dc="http://purl.org/dc/elements/1.1/"
   xmlns:cc="http://creativecommons.org/ns#"
   xmlns:rdf="http://www.w3.org/1999/02/22-rdf-syntax-ns#"
   xmlns:svg="http://www.w3.org/2000/svg"
   xmlns="http://www.w3.org/2000/svg"
   xmlns:xlink="http://www.w3.org/1999/xlink"
   xmlns:sodipodi="http://sodipodi.sourceforge.net/DTD/sodipodi-0.dtd"
   xmlns:inkscape="http://www.inkscape.org/namespaces/inkscape"
   version="1"
   width="746.66669"
   height="496"
   id="svg2"
   inkscape:version="0.92.4 (5da689c313, 2019-01-14)"
   sodipodi:docname="sprite.svg"
   inkscape:export-filename="/home/huntingbears/Desarrollo/luisalejandro.github.io/static/img/site/sprite.png"
   inkscape:export-xdpi="90"
   inkscape:export-ydpi="90"><g xmlns="http://www.w3.org/2000/svg" id="g1010">
    <path id="path164" d="m 270.57254,32 c -1.21001,0 -2.18871,0.329333 -2.93607,1.033333 -0.74737,0.704 -1.13439,1.592889 -1.13439,2.666667 0,1.066667 0.37501,1.955555 1.10102,2.666667 0.72601,0.711111 1.67357,1.066666 2.86934,1.066666 h 0.0333 c 1.22427,0 2.22208,-0.355555 2.96944,-1.066666 0.74737,-0.711112 1.11527,-1.573778 1.10103,-2.633334 V 35.7 c -0.0142,-1.073778 -0.37502,-1.962667 -1.10103,-2.666667 C 272.74919,32.329333 271.78251,32 270.57249,32 Z" style="fill:#999999;fill-opacity:1;stroke:none;stroke-width:1.06716478"/>
    <path id="path162" d="m 291.72562,41.9 c -0.9182,0 -1.72161,0.105781 -2.46898,0.333333 -0.74736,0.227556 -1.38217,0.561334 -1.90177,0.966667 -0.51248,0.405333 -0.92842,0.784889 -1.23448,1.133333 -0.29683,0.337926 -0.58405,0.721729 -0.86748,1.166667 v -3.1 h -7.17337 l 0.0333,1.033333 c 0.0142,0.696889 0,2.861334 0,6.466667 0,3.605333 -0.005,8.304444 -0.0333,14.1 h 7.17337 V 51.966667 c 0,-0.746667 0.077,-1.366222 0.23354,-1.8 0.30608,-0.739556 0.78207,-1.361778 1.40131,-1.866667 0.61925,-0.504889 1.38396,-0.733333 2.30215,-0.733333 1.25273,0 2.17848,0.432444 2.76926,1.3 0.59077,0.860444 0.86748,2.037778 0.86748,3.566666 V 64 H 300 V 51.633333 c 0,-3.178666 -0.7527,-5.616888 -2.26878,-7.266666 C 296.21514,42.716889 294.20972,41.9 291.72562,41.9 Z" style="fill:#999999;fill-opacity:1;stroke:none;stroke-width:1.06716478"/>
    <path id="path159" d="M 266.90245,42.4 V 64 h 7.20673 V 42.4 Z" style="fill:#999999;fill-opacity:1;stroke:none;stroke-width:1.06716478"/>
  </g></svg>