<svg
   xmlns:dc="http://purl.org/dc/elements/1.1/"
   xmlns:cc="http://creativecommons.org/ns#"
   xmlns:rdf="http://www.w3.org/1999/02/22-rdf-syntax-ns#"
   xmlns:svg="http://www.w3.org/2000/svg"
   xmlns="http://www.w3.org/2000/svg"
   xmlns:xlink="http://www.w3.org/1999/xlink"
   xmlns:sodipodi="http://sodipodi.sourceforge.net/DTD/sodipodi-0.dtd"
   xmlns:inkscape="http://www.inkscape.org/namespaces/inkscape"
   version="1"
   width="746.66669"
   height="496"
   id="svg2"
   inkscape:version="0.92.4 (5da689c313, 2019-01-14)"
   sodipodi:docname="sprite.svg"
   inkscape:export-filename="/home/huntingbears/Desarrollo/luisalejandro.github.io/static/img/site/sprite.png"
   inkscape:export-xdpi="90"
   inkscape:export-ydpi="90"><g xmlns="http://www.w3.org/2000/svg" id="g124">
    <path style="fill:#c2beb2;stroke-width:1.06666672" inkscape:connector-curvature="0" id="path52" d="m 0,341.33333 v 80.21334 h 586.66667 v -80.21334 z"/>
    <path style="fill:#cfcbbf;stroke-width:1.06666672" inkscape:connector-curvature="0" id="path54" d="m 83.094243,363.52 c -1.384903,0.85333 -2.769808,0.74667 -3.622056,2.13333 -1.597966,2.45334 -0.745718,7.89334 -0.106528,10.13334 -2.237152,0.85333 -2.769808,0.74666 -2.450215,3.73333 0,0.10667 0,0.10667 -0.106528,0.10667 -1.065311,0.32 -2.98287,0.21333 -3.94165,0.85333 -1.597966,1.06667 -2.98287,4.16 -3.515525,6.08 -0.213063,0.96 -0.319594,1.81333 -0.532656,2.77333 V 389.44 c -0.532655,0 -0.95878,-0.10667 -1.491435,-0.10667 -0.532656,0.10667 -1.171842,0.21334 -1.704497,0.32 -0.426125,-0.21333 -0.95878,-0.53333 -1.384904,-0.74666 -0.745718,-0.21334 -1.597966,-0.53334 -2.343684,-0.74667 -0.106528,-0.21333 -0.106528,-0.21333 0,-0.42667 0.213062,-0.53333 0.95878,-0.32 1.171841,-0.74666 0.426125,-0.64 0,-1.49334 0.213063,-2.34667 0.319593,-0.32 0.639186,-0.64 0.852248,-0.96 0.319594,-1.06667 -0.958779,-4.8 -1.384903,-5.44 -0.319594,-0.53333 -1.278373,-1.28 -1.811028,-1.6 -0.85225,-0.42667 -2.024091,-0.32 -2.982871,-0.10667 -0.532656,0.10667 -1.171842,0.21334 -1.704498,0.32 -1.704497,0.64 -2.556746,2.88 -3.0894,4.69334 -0.319594,0.96 -1.384905,1.92 -1.065311,3.30666 0.213062,1.06667 1.278372,1.17334 1.811028,1.92 0.426124,0.42667 0.426124,1.38667 0.745717,1.92 -0.319593,0.53334 -1.171842,0.53334 -1.704497,0.85334 -0.319593,0.32 -0.639186,0.64 -0.95878,0.96 -1.278373,0.74666 -2.876339,0.42666 -3.622056,1.70666 0.106528,0.42667 0.106528,0.85334 0.106528,1.17334 -1.491436,-3.73334 -2.769809,-7.68 -5.752679,-9.92 -0.852249,-0.32 -1.704498,-0.53334 -2.450215,-0.85334 -0.745717,-0.42666 -1.491435,-0.74666 -2.237153,-1.17333 -0.95878,-0.42667 -2.024091,-0.42667 -2.556746,-1.28 -0.106528,-0.21333 -0.319593,-0.53333 -0.213062,-0.85333 0.213062,-0.21334 0.426125,-0.53334 0.745717,-0.74667 0.426125,-0.96 0.85225,-1.92 1.278374,-2.88 0.213062,-0.74667 -0.213063,-1.06667 -0.319593,-1.49333 0,-0.42667 -0.106528,-0.74667 -0.106528,-1.17334 -0.426125,-1.49333 -1.171842,-2.88 -2.343684,-3.62666 -1.065311,-0.74667 -3.302464,-0.42667 -4.367774,0 -2.343684,0.96 -3.302464,2.77333 -2.663278,6.08 0,0.53333 -0.106528,1.06666 -0.213061,1.6 0.319592,1.6 0.852248,3.2 1.597966,4.48 -0.426125,0.53333 -1.278374,0.64 -1.811029,0.96 -1.597967,0.96 -3.515526,2.45333 -5.113492,3.2 -0.106528,0.10666 0,0.10666 -0.213062,0.10666 -0.213062,-0.10666 -0.319593,-0.42666 -0.319593,-0.85333 0.95878,-0.32 2.024091,-0.10667 2.450215,-0.96 -0.106528,-0.85333 -0.426124,-0.85333 -0.213063,-1.81333 -0.106528,-0.10667 -0.213061,-0.32 -0.319592,-0.42667 0.106528,-0.10667 0.319592,-0.10667 0.426123,-0.21333 0.106528,-0.42667 -0.106528,-0.53334 -0.213062,-1.06667 0.319594,-0.21333 0.532656,-0.42667 0.745718,-0.74667 C 24.182565,378.88 23.436845,378.88 23.223782,378.24 c 0,-0.42667 0,-0.85333 -0.106528,-1.28 -0.213062,0 -0.319593,0 -0.532656,0 -0.213061,-0.32 -0.319592,-0.53333 -0.532655,-0.85333 0.106528,-0.21334 0.106528,-0.53334 0.213063,-0.74667 0.213062,-0.96 0,-2.13333 -0.532656,-2.45333 -0.639186,-0.42667 -1.811028,0.10666 -2.876339,-0.10667 -1.704497,-0.32 -3.515526,-0.10667 -4.687368,0.53333 -1.811028,1.06667 -2.556745,2.45334 -2.876339,4.26667 -0.639186,0 -1.3849038,0.10667 -1.9175593,0 -1.8110283,-0.42667 -3.7285878,-1.70667 -5.5396162,-1.6 -0.3195932,-0.64 -0.4261243,-1.49333 -0.3195932,-2.56 0.1065312,-0.10667 0.5326554,-0.10667 0.6391865,-0.21333 0.6391865,-0.53334 0.9587797,-2.98667 -0.1065312,-3.2 -0.4261339,-1.6 -0.2130717,-2.88 -0.9587892,-4.05334 C 2.4502148,365.01333 1.278373,364.48 0,364.48 v 52.90667 h 47.512863 c 0.213061,-0.32 0.426124,-0.64 0.745717,-0.74667 0,0.21333 0,0.53333 0,0.74667 h 20.560498 c -0.106528,-0.53334 -0.213061,-1.17334 -0.213061,-1.81334 0,0 0.106528,0 0.106528,-0.10666 0.426125,0.42666 0.639187,1.17333 0.85225,1.92 h 66.901515 c 0,-0.32 0,-0.64 0.10656,-0.85334 -0.21305,-2.13333 -0.31958,-4.37333 -0.53265,-6.50666 h 0.10656 c 0.63919,1.92 1.17184,3.94666 1.49144,6.08 0,0.42666 0,0.96 0,1.38666 h 21.09315 c 0,-0.21333 -0.10656,-0.53333 -0.10656,-0.74666 0,-0.74667 0.10656,-1.49334 0.10656,-2.24 -0.21306,-1.81334 -0.63918,-3.94667 -0.53265,-5.97334 2.13062,0.21334 4.15471,0.32 6.28533,0.53334 -0.74571,1.81333 -1.27836,4.05333 -1.7045,6.08 -0.10656,0.85333 -0.10656,1.6 -0.21305,2.45333 h 14.48822 c 0.31959,-1.06667 0.53266,-2.34667 0.63919,-3.52 -0.10656,-0.64 -0.10656,-1.17333 -0.21307,-1.81333 -0.10656,-0.85334 0.42613,-1.70667 0.3196,-2.45334 -0.10656,-0.74666 -0.53265,-1.81333 -0.74572,-2.56 -0.21306,-0.85333 -0.21306,-2.02666 -0.42612,-3.09333 0,-0.10667 0,-0.10667 0,-0.21333 0.21306,0.21333 0.53265,0.42666 0.74571,0.64 0.10656,0.85333 0.10656,1.38666 0.3196,2.02666 0.10656,0 0.10656,0.10667 0.21306,0.10667 -0.31959,-0.85333 -0.21306,-1.49333 0.21306,-2.13333 h 0.21307 c 0.31958,0.64 0.10656,1.06666 0.85224,1.28 0,0.10666 0,0.32 -0.10656,0.42666 0.10656,0 0.21306,0 0.3196,-0.10666 0.10656,0.32 0.31958,0.64 0.42612,0.96 0.21306,0.64 -1.06531,5.54666 -1.17185,6.4 -0.10656,1.28 -0.21306,2.56 -0.31958,3.84 h 50.70879 c 0,-0.10667 0,-0.32 -0.10656,-0.42667 0.74571,-0.32 1.49143,-0.64 1.81103,-1.6 0.10656,-0.10667 0.21305,-0.21333 0.31959,-0.21333 0,0.74666 0.10656,1.6 0.10656,2.34666 h 115.79929 c 0.21306,-0.32 0.42612,-0.64 0.74571,-0.74666 0,0.21333 0,0.53333 0,0.74666 h 20.5605 C 368.17142,416.96 368.06492,416.32 368.06492,415.68 c 0,0 0.10656,0 0.10656,-0.10667 0.42613,0.42667 0.74571,1.17334 0.85225,1.92 h 66.79499 c 0,-0.32 0.10656,-0.64 0.10656,-0.85333 -0.21306,-2.13333 -0.31959,-4.37333 -0.53265,-6.50667 h 0.10656 c 0.63919,1.92 1.17184,3.94667 1.49143,6.08 0,0.42667 0,0.96 0,1.38667 h 21.09316 c 0,-0.21333 -0.10656,-0.53333 -0.10656,-0.74667 0,-0.74666 0.10656,-1.49333 0.10656,-2.24 -0.21306,-1.81333 -0.63918,-3.84 -0.53265,-5.97333 2.13062,0.21333 4.1547,0.32 6.28533,0.53333 -0.74572,1.81334 -1.27838,4.05334 -1.7045,6.08 -0.10656,0.85334 -0.21306,1.6 -0.21306,2.45334 h 14.48823 c 0.31959,-1.06667 0.53265,-2.34667 0.63918,-3.52 -0.10656,-0.64 -0.10656,-1.17334 -0.21306,-1.81334 -0.10656,-0.85333 0.42612,-1.70666 0.31959,-2.45333 -0.10656,-0.74667 -0.53265,-1.81333 -0.74571,-2.56 -0.21307,-0.85333 -0.21307,-2.02667 -0.53266,-3.09333 0,-0.10667 0,-0.10667 0,-0.21334 0.21306,0.21334 0.42613,0.42667 0.63918,0.64 0.10656,0.85334 0.10656,1.38667 0.3196,2.02667 0.10656,0 0.10656,0.10667 0.21306,0.10667 -0.31959,-0.85334 -0.21306,-1.49334 0.21306,-2.13334 h 0.21307 c 0.31959,0.64 0.10656,1.06667 0.85224,1.28 0,0.10667 -0.10656,0.32 -0.10656,0.42667 0.10656,0 0.21306,0 0.3196,-0.10667 0.10656,0.32 0.31959,0.64 0.42612,0.96 0.21306,0.64 -1.06531,5.54667 -1.17184,6.4 -0.10656,1.28 -0.21307,2.56 -0.31959,3.84 h 50.70878 c 0,-0.10666 0,-0.32 -0.10656,-0.42666 0.85225,-0.32 1.49144,-0.64 1.91756,-1.6 0.10656,-0.10667 0.21307,-0.21334 0.3196,-0.21334 0,0.74667 0.10656,1.6 0.10656,2.34667 h 56.24841 v -43.30667 c -0.53265,-0.21333 -1.17184,-0.42666 -1.81103,-0.53333 -2.55674,-0.32 -4.68737,2.88 -4.4743,5.33333 0.21307,0.64 0.53265,1.28 0.74572,1.92 -0.10656,0.42667 -0.10656,0.85334 -0.21307,1.28 -0.21306,1.06667 0.10656,2.88 0.42613,3.73334 0.21306,0.42666 0.95878,0.53333 1.27837,0.96 0.10656,0.74666 -0.10656,0.96 0.21307,1.70666 -1.06531,0.74667 -2.34369,1.28 -3.51553,1.92 -0.21307,-0.64 -0.53265,-1.17333 -0.85225,-1.70666 -0.85225,-1.17334 -2.02409,-1.17334 -3.51553,-1.81334 -1.59796,-0.74666 -3.0894,-1.49333 -4.36777,-2.45333 -0.21306,-0.74667 0.10656,-1.28 0.31959,-1.92 0.42612,-0.21333 0.95878,-0.32 1.38491,-0.53333 0.10656,-0.32 0.21306,-0.53334 0.31959,-0.85334 0.3196,-0.53333 -0.42612,-0.42666 -0.31959,-1.06666 0.10656,-0.42667 0.74571,-1.17334 0.42612,-1.92 -1.17184,-3.09334 -3.0894,-7.57334 -8.09636,-5.44 -3.0894,1.28 -2.02409,5.33333 -2.45021,8.42666 0.21305,0.10667 0.42612,0.10667 0.53265,0.21334 0.21307,0.42666 0.10656,0.53333 -0.10656,0.96 0.74572,0.32 1.3849,2.02666 1.59796,2.77333 -0.53265,0.64 -1.59796,0.85333 -2.34368,1.38667 -3.62206,2.24 -5.22002,3.41333 -5.96574,8.64 0,0 -0.10656,0 -0.21306,0.10666 -1.27838,-1.92 -1.81103,-5.12 -2.55675,-7.68 -0.42612,-1.38666 0.31959,-2.77333 0.31959,-3.94666 -0.74571,-0.74667 -2.34368,-1.28 -2.66327,-2.45334 -0.85226,-3.2 2.55675,-4.8 0,-8.42666 -0.53266,-0.74667 -1.17185,-1.38667 -2.34369,-1.6 -4.15471,-0.85334 -6.71146,3.52 -7.67024,6.50666 -0.10656,0 -0.10656,0 -0.21306,0.10667 -0.31959,0.21333 -0.42612,-0.10667 -0.53266,0 -0.31958,0.21333 -0.21305,-0.10667 -0.63918,0.21333 -0.10656,0.10667 -0.42612,0 -0.53266,0.10667 -0.10656,0.10667 -0.42612,0.32 -0.63918,0.32 -0.21306,0 -0.42613,0.10667 -0.53266,0.21333 -0.10656,0.10667 -0.31959,0.21334 -0.53265,0.32 -0.10656,0.10667 -0.31959,0.21334 -0.42612,0.32 -0.10656,0.10667 -0.21307,0.10667 -0.3196,0.32 -0.10656,0.21334 -0.10656,0.21334 -0.42613,0.32 -0.21306,0.10667 -0.31958,0.21334 -0.31958,0.32 0,0.10667 -0.10656,0.21334 -0.21307,0.32 0,0.10667 -0.21307,0.32 -0.21307,0.42667 0,0.10667 -0.53265,0.21333 -0.53265,0.53333 0.10656,-0.10666 0.10656,-0.21333 0.3196,-0.21333 -0.10656,0.10667 -0.21307,0.32 -0.10656,0.42667 0,-0.10667 0.10656,-0.10667 0.10656,0 0,0 0.10656,0.21333 0.31959,0.32 0,-0.10667 0.10656,-0.10667 0.3196,-0.10667 0.10656,0 0.10656,-0.10667 0,0.21333 0,0.21334 -0.3196,1.70667 -0.3196,2.13334 0,0.42666 -0.10656,0.42666 0.10656,0.53333 0.10656,0.10667 0.21307,0.32 0.21307,0.53333 -0.21307,0 -0.42613,0.10667 -0.63919,0.10667 -1.17184,0.32 -2.55675,1.70667 -3.0894,2.56 -0.95878,2.34667 -1.91757,4.58667 -2.87634,6.93333 0,0.42667 -0.10656,0.85334 -0.10656,1.28 -0.10656,0.21334 -0.21306,0.32 -0.21306,0.53334 -0.31959,-0.85334 -0.42612,-1.70667 -0.95878,-2.34667 -0.85224,-1.06667 -3.30246,-1.38667 -4.68736,-1.92 -0.63919,-1.06667 1.17184,-1.92 0.85225,-3.62667 -0.21307,-1.28 -0.74572,-2.77333 -0.95879,-4.05333 v -1.38667 c -0.31959,-2.02666 -0.85224,-3.94666 -2.23715,-4.90666 -1.91756,-1.38667 -4.68737,0 -5.43309,1.70666 -0.31958,0.85334 0.10656,2.34667 -0.21305,2.98667 -0.10656,0.10667 -0.3196,0.21333 -0.3196,0.42667 -0.31959,1.38666 0.95879,2.98666 0.85225,4.16 -0.10656,0.64 -0.10656,1.38666 -0.21306,2.02666 0.10656,0.64 0.63918,0.96 0.3196,1.81334 -0.42614,1.28 -2.13063,1.38666 -3.7286,1.70666 0.31959,-0.10666 0.53266,-0.42666 0.42613,-1.28 0,-0.42666 0,0.10667 0.31959,-0.42666 0.21306,-0.21334 0,-0.64 -0.21306,-0.96 0,0 -0.10656,0 0,-0.21334 0,-0.21333 0.10656,-0.10666 0.21306,-0.21333 0.21306,0 0.21306,0 0.31959,-0.21333 0.10656,-0.21334 0.10656,0 0,-0.53334 -0.10656,-0.64 -0.10656,-0.32 0.21307,-0.42666 0.31959,-0.10667 0.53265,-0.32 0.31959,-0.85334 -0.10656,-0.21333 -0.31959,-0.42666 -0.53266,-0.74666 -0.10656,-0.10667 0,-0.10667 0.10656,-0.10667 -0.10656,0 -0.21307,0 -0.21307,-0.10667 0,-0.10666 -0.10656,-0.10666 0,-0.53333 0,-0.10667 0,-0.21333 0.10656,-0.32 -0.10656,0.21333 -0.10656,0.21333 -0.10656,0.21333 -0.10656,-0.10666 -0.10656,0 -0.10656,-0.10666 0,-0.21334 0.10656,-0.21334 0.21306,-0.32 0.21307,-0.21334 0.21307,-0.21334 0.31959,-0.21334 0.10656,0 0.10656,0 0,0.10667 0,0 -0.10656,0.10667 -0.10656,0.10667 0.10656,-0.10667 0.21307,-0.21334 0.3196,-0.21334 0.10656,0 0.10656,0 0.21305,0.10667 0.10656,0.10667 0,0.64 -0.10656,0.74667 -0.10656,0.10666 -0.10656,0.32 -0.21305,0.32 0,0 0.10656,-0.10667 0.21305,-0.21334 0.10656,-0.21333 0.21307,-0.42666 0.21307,-0.74666 0,-0.10667 0.21306,-0.10667 0,-0.32 0,0 0,-0.10667 -0.10656,-0.21334 0,0 0,0 0,0.10667 0,0.10667 0,0.10667 -0.21305,0 -0.10656,0 -0.10656,0 0,-0.10667 0,0 0,0 -0.10656,0 -0.10656,0.10667 0,0.10667 -0.3196,0 -0.10656,0 0.10656,-0.10666 -0.10656,-0.53333 -0.10656,-0.32 -0.31959,-0.32 -0.21306,-1.06667 0,-0.42666 0,-0.64 -0.53266,-1.6 -0.10656,-0.21333 0.21307,-0.21333 -0.10656,-0.53333 -0.31959,-0.32 -0.42612,-0.42667 -0.42612,-0.42667 -0.10656,0 -0.10656,-0.10666 -0.21307,-0.21333 -0.10656,0 -0.21305,-0.21333 -0.53265,-0.32 -0.21306,-0.10667 -0.10656,-0.21333 -0.31959,-0.32 -0.21307,0 -0.3196,-0.21333 -0.42612,-0.21333 -0.10656,0 -0.21307,-0.10667 -0.42613,-0.21334 -0.21306,0 -0.21306,0 -0.42612,-0.21333 -0.21307,-0.10667 -0.21307,-0.21333 -0.42613,-0.21333 -0.21306,0 -0.31959,-0.10667 -0.42613,-0.10667 -0.21305,0 -0.53265,-0.21333 -0.63918,-0.10667 -0.10656,0 -0.10656,-0.10666 -0.21306,0 -0.10656,0 -0.3196,-0.10666 -0.42612,0 -0.10656,0.10667 -0.21307,0.10667 -0.3196,0.10667 -0.10656,0 -0.31959,0 -0.42612,0.10667 -0.10656,0.10666 -0.3196,0 -0.42612,0.10666 -0.10656,0.10667 -0.21307,0.10667 -0.3196,0.21334 -0.21306,0.10666 -0.10656,0.10666 -0.42612,0.21333 -0.10656,0 -0.10656,0.10667 -0.21307,0.21333 -0.10656,0.10667 -0.21306,0.21334 -0.21306,0.32 -0.10656,0.10667 -0.21306,0 -0.31959,0.21334 -0.10656,0.10666 -0.10656,0.21333 -0.31959,0.32 -0.10656,0.10666 -0.10656,0.21333 -0.21307,0.32 -0.10656,0.10666 -0.10656,0.21333 -0.21306,0.32 -0.10656,0.10666 -0.10656,0.21333 -0.21306,0.32 0,0.32 -0.10656,0.53333 -0.21307,0.74666 -0.10656,0.10667 -0.10656,0.32 -0.10656,0.42667 0,0.10667 -0.10656,0.32 -0.10656,0.42667 0.10656,0.10666 0.10656,0.42666 0,0.64 -0.10656,0.10666 -0.10656,0.21333 -0.10656,0.32 0,0.10666 -0.10656,0.21333 0.10656,1.17333 0,0.21333 0.10656,0.42667 0.10656,0.74667 0,0.32 0.21307,1.06666 0.3196,1.81333 0,0.21333 -0.10656,0.85333 -0.21307,1.06667 -0.10656,0.10666 -0.10656,-0.10667 -0.3196,0.32 -0.10656,0.32 -0.21305,0.64 -0.42612,1.28 -0.74572,-2.13334 -1.49143,-4.16 -2.23715,-6.29334 -0.53265,-0.42666 -1.06531,-0.85333 -1.59796,-1.28 -1.38491,-0.74666 -2.87634,-1.38666 -4.26125,-2.13333 -0.63918,-0.21333 -1.70449,-0.32 -2.02409,-0.85333 -0.21306,-0.85334 1.06532,-2.66667 1.38491,-3.41334 0.21306,-0.85333 -0.21307,-1.81333 -0.10656,-2.66666 0.85226,-3.62667 -1.27837,-6.4 -5.22002,-6.4 -0.95877,0.42666 -1.81103,0.53333 -2.45021,1.06666 -3.19593,2.56 0.10656,6.08 -0.53266,9.81334 -0.53265,0.32 -1.17184,0.64 -1.49143,1.06666 -0.10656,0.32 -0.3196,0.53334 -0.42613,0.85334 -0.53266,0.21333 -0.95878,0.53333 -1.49143,0.85333 -1.17184,0.74667 -2.76982,1.38667 -4.04818,2.34667 0,0 0,0 0,0 -0.21307,-0.42667 -0.53266,-1.17334 -0.63919,-1.6 0,-0.42667 -0.10656,-0.85334 -0.10656,-1.28 -0.21307,-0.32 -0.3196,-0.74667 -0.53266,-1.17334 -0.21306,-1.06666 -0.42613,-2.13333 -0.74572,-3.2 -0.63918,-1.81333 -2.66328,-4.69333 -5.22002,-4.37333 -1.17184,0.10667 -1.91756,0 -2.66328,0.53333 -0.53265,0.32 -1.81103,0.42667 -2.23715,0.85334 -0.74572,0.64 -1.38491,2.02666 -1.81103,2.98666 0,0.32 0,0.64 0.10656,0.96 -0.10656,0.32 -0.42612,0.53334 -0.31959,1.06667 0.10656,0.42667 0,1.49333 0.10656,1.81333 0.10656,0.21334 0.53265,0.42667 0.42612,0.85334 -0.21307,0.21333 -0.42612,0.42666 -0.63919,0.74666 0,0.21334 0.10656,0.53334 0.10656,0.74667 0.10656,2.02667 0.85226,1.92 -0.31958,3.62667 0.42612,-0.10667 0.63917,-0.32 0.85224,-0.74667 0.10656,0 0.10656,0 0.21306,0 0,0.32 -0.21306,0.53333 -0.10656,0.85333 0.10656,0.21334 0.31959,0.42667 0.42612,0.64 0,0.42667 0,0.85334 0,1.17334 0.21307,0.85333 1.17185,3.52 0.85226,4.69333 -0.3196,0.96 -1.17185,1.6 -1.59798,2.56 -0.85224,2.13333 0.53266,4.58667 1.91757,5.22667 0.10656,0.21333 0.10656,0.32 0,0.74666 -0.53266,-0.10666 -1.06531,-0.21333 -1.59797,-0.21333 -0.3196,-1.70667 -0.63919,-3.30667 -0.95878,-5.01333 -0.53266,-2.02667 -1.06531,-4.05334 -1.59797,-6.08 -0.42612,-1.49334 -0.85224,-3.09334 -1.81103,-4.05334 -2.55675,-2.24 -6.71145,-2.77333 -9.48126,-4.90666 -0.31959,-2.13334 1.70449,-3.52 1.49144,-5.76 -0.10656,-0.74667 0.31959,-1.6 -0.21307,-2.02667 0.3196,-1.06667 1.17184,-2.45333 0.74572,-3.94667 -0.74572,-2.24 -4.47431,-4.26666 -7.35065,-3.2 -3.62206,1.38667 -4.15471,6.29334 -2.7698,10.13334 0.21306,0.10666 0.31959,0.21333 0.63918,0.21333 0.42613,0.74667 1.17185,4.58667 0.42613,5.33333 -0.31959,0.42667 -1.17185,0.42667 -1.59797,0.74667 -1.49144,0.96 -3.51552,1.92 -5.00696,3.09333 -1.7045,-0.74666 -3.51553,-1.38666 -4.58084,-2.13333 -0.85224,-0.64 -1.17184,-1.92 -2.13062,-2.45333 0,-0.10667 0,-0.10667 -0.10656,-0.21334 0.74571,-0.74666 1.27838,-1.92 1.3849,-3.30666 1.27837,0 2.55675,-2.98667 2.23716,-4.48 -0.53265,-2.56 -1.27837,-5.01334 -3.94166,-5.44 -4.4743,-0.64 -7.88329,0.96 -7.35064,6.18666 0.10656,0.64 -0.31959,0.85334 -0.10656,1.6 0.21306,0.85334 2.13062,4.48 1.81103,5.01334 -2.55675,3.94666 -10.44005,0.42666 -11.07924,6.82666 -0.63918,-0.32 -1.27837,-0.64 -1.91755,-0.85333 0.10656,-2.24 0.74571,-1.81333 1.49143,-2.98667 0.53265,-0.74666 1.70449,-5.01333 1.59796,-5.86666 -0.21305,-1.6 0.42613,-4.16 -0.74571,-5.01334 -0.63919,-0.42666 -1.38491,-0.53333 -2.23715,-0.74666 -4.58084,-1.17334 -6.81799,1.81333 -6.60493,6.18666 0,0.85334 -0.53265,1.81334 0.10656,2.66667 0.21306,0.32 0.31959,0.32 0.74571,0.32 0.10656,0.10667 0.10656,0.21333 0.21307,0.21333 -0.74572,1.06667 -1.38491,2.24 -1.91756,3.52 v 0.53334 c 0.21306,-0.10667 0.3196,-0.21334 0.3196,-0.53334 0,0 0.10656,-0.10666 0.21305,-0.10666 0,0.32 0.10656,0.64 0.10656,0.96 -1.17185,1.38666 -3.19593,1.92 -5.00696,2.56 -0.42612,-1.49334 -0.85225,-3.09334 -1.7045,-4.16 -0.74572,-0.96 -2.34368,-0.85334 -3.40899,-1.38667 -0.3196,-0.21333 -0.53265,-0.64 -0.95878,-0.74667 -0.21306,-0.32 -0.31959,-0.96 -0.31959,-1.38666 0.31959,-0.42667 0.74572,-0.85334 0.42612,-1.70667 -0.21307,-0.53333 -2.98287,-2.88 -3.72859,-2.98667 -0.10656,-1.49333 -0.21306,-3.09333 -0.31959,-4.69333 0.21306,-0.64 0.74572,-1.92 0.53265,-2.77333 -0.42612,-2.02667 -3.40899,-3.73334 -5.96574,-3.73334 -1.38491,0.85334 -2.7698,0.74667 -3.62206,2.13334 -1.59796,2.45333 -0.74571,7.89333 -0.10656,10.13333 -2.23715,0.85333 -2.76981,0.74667 -2.45022,3.73333 0,0.10667 0,0.10667 -0.10656,0.10667 -1.06531,0.32 -2.98287,0.21333 -4.04818,0.85333 -1.59796,1.06667 -2.87634,4.16 -3.51552,6.08 -0.21306,0.96 -0.31959,1.81334 -0.53266,2.77334 v 0.10666 c -0.53265,0 -1.06531,-0.10666 -1.59796,-0.10666 -0.53266,0.10666 -1.06531,0.21333 -1.7045,0.32 -0.42613,-0.21334 -0.95878,-0.53334 -1.38491,-0.74667 -0.74572,-0.21333 -1.59796,-0.53333 -2.45021,-0.74667 -0.10656,-0.21333 -0.10656,-0.21333 0,-0.42666 0.21306,-0.53334 0.95878,-0.32 1.27837,-0.74667 0.42612,-0.64 0,-1.49333 0.21307,-2.34667 0.31959,-0.32 0.63918,-0.64 0.85224,-0.96 0.3196,-1.06666 -0.95878,-4.8 -1.3849,-5.44 -0.3196,-0.53333 -1.27837,-1.28 -1.81103,-1.6 -0.85225,-0.42666 -2.02409,-0.32 -2.98287,-0.10666 -0.53265,0.10666 -1.17184,0.21333 -1.81103,0.32 -1.70449,0.64 -2.55675,2.88 -3.0894,4.69333 -0.31959,0.96 -1.38491,1.92 -1.06531,3.30667 0.21307,1.06666 1.27838,1.17333 1.81103,1.92 0.42612,0.42666 0.42612,1.38666 0.74572,1.92 -0.3196,0.53333 -1.17184,0.53333 -1.70451,0.85333 -0.31958,0.32 -0.63917,0.64 -0.95877,0.96 -1.27838,0.74667 -2.87634,0.42667 -3.62206,1.70667 0.10656,0.42666 0.21307,0.85333 0.10656,1.28 -1.49143,-3.73334 -2.7698,-7.78667 -5.85921,-10.02667 -0.85224,-0.32 -1.59796,-0.53333 -2.45021,-0.85333 -0.74571,-0.42667 -1.49143,-0.74667 -2.23715,-1.17334 -0.95878,-0.42666 -2.02409,-0.32 -2.55675,-1.28 -0.10656,-0.21333 -0.31959,-0.53333 -0.21306,-0.85333 0.21306,-0.21333 0.53266,-0.42667 0.74572,-0.74667 0.42612,-0.96 0.85225,-1.92 1.27837,-2.88 0.21306,-0.74666 -0.21306,-1.06666 -0.31959,-1.49333 0,-0.42667 -0.10656,-0.74667 -0.10656,-1.17333 -0.42613,-1.49334 -1.17185,-2.88 -2.34369,-3.62667 -1.06531,-0.74667 -3.30247,-0.42667 -4.36778,0 -2.34368,0.96 -3.30246,2.77333 -2.66327,6.08 0,0.53333 -0.10656,1.06667 -0.10656,1.6 0.31959,1.6 0.85224,3.2 1.49143,4.48 -0.42612,0.53333 -1.27838,0.64 -1.81103,0.96 -1.59796,0.96 -3.51553,2.45333 -5.11349,3.30667 -0.10656,0.10666 0,0.10666 -0.21306,0 -0.21306,-0.10667 -0.31959,-0.42667 -0.31959,-0.85334 0.95877,-0.32 2.02408,-0.10666 2.45021,-0.96 C 324.4934,384.96 324.28036,384.96 324.4934,384 c -0.10656,-0.10667 -0.21307,-0.32 -0.3196,-0.42667 0.10656,-0.10666 0.21307,-0.10666 0.3196,-0.21333 0.10656,-0.42667 -0.10656,-0.53333 -0.21307,-1.06667 0.3196,-0.21333 0.53266,-0.42666 0.63919,-0.74666 -0.10656,-0.85334 -0.74572,-0.85334 -1.06531,-1.49334 0,-0.42666 0,-0.85333 -0.10656,-1.28 -0.21307,0 -0.3196,0 -0.53265,0 -0.21307,-0.32 -0.3196,-0.53333 -0.53266,-0.85333 0.10656,-0.21333 0.10656,-0.53333 0.21306,-0.74667 0.21306,-0.96 0,-2.13333 -0.53266,-2.45333 -0.63919,-0.42667 -1.81103,0.10667 -2.87634,-0.10667 -1.70449,-0.32 -3.51552,-0.10666 -4.68736,0.53334 -1.81103,1.06666 -2.55675,2.45333 -2.87634,4.26666 -0.63919,0 -1.27838,0.10667 -1.91756,0 -1.81103,-0.42666 -3.72859,-1.70666 -5.64615,-1.6 -0.31959,-0.64 -0.31959,-1.49333 -0.31959,-2.56 0.10656,-0.10666 0.53265,-0.10666 0.63918,-0.21333 0.63919,-0.53333 0.95879,-2.98667 -0.21305,-3.2 -0.42613,-1.6 -0.21307,-2.88 -0.95879,-4.05333 -1.38491,-2.02667 -5.11349,-2.02667 -6.60493,-0.10667 -0.74571,0.96 -2.98287,7.46667 -0.31959,7.68 0.42612,1.06667 0.74572,2.45333 0.85225,3.84 -1.17185,0.53333 -1.81102,1.49333 -2.87634,2.13333 -0.53266,0.32 -1.06531,0.53334 -1.59797,0.85334 0,0 0,0.10666 0,0.10666 -0.74572,-3.41333 -2.7698,-6.4 -6.39186,-6.93333 -2.55675,-0.32 -4.68737,2.88 -4.36778,5.33333 0.21307,0.64 0.53266,1.28 0.74572,1.92 -0.10656,0.42667 -0.10656,0.85334 -0.21306,1.28 -0.21306,1.06667 0.10656,2.88 0.42613,3.73334 0.21305,0.42666 1.06531,0.53333 1.3849,0.96 0.10656,0.74666 -0.10656,0.96 0.21306,1.70666 -1.06531,0.74667 -2.45021,1.28 -3.51552,1.92 -0.21307,-0.64 -0.53266,-1.17333 -0.85226,-1.70666 -0.85224,-1.17334 -2.02408,-1.17334 -3.51552,-1.81334 -1.59796,-0.74666 -3.0894,-1.49333 -4.36777,-2.45333 -0.21307,-0.74667 0.10656,-1.28 0.31959,-1.92 0.42612,-0.21333 0.95878,-0.32 1.38491,-0.53333 0.10656,-0.32 0.21305,-0.53334 0.31959,-0.85334 0.31959,-0.53333 -0.53266,-0.42666 -0.42613,-1.06666 0.10656,-0.42667 0.74572,-1.17334 0.42613,-1.92 -1.17185,-3.09334 -3.0894,-7.57334 -8.09636,-5.44 -3.08941,1.28 -2.0241,5.33333 -2.45022,8.42666 0.21306,0.10667 0.3196,0.10667 0.53265,0.21334 0.21307,0.42666 0.10656,0.53333 -0.10656,0.96 0.74572,0.32 1.38491,2.02666 1.59797,2.77333 -0.53266,0.64 -1.59797,0.85333 -2.34368,1.38667 -3.62206,2.24 -5.22003,3.41333 -5.96574,8.64 0,0 -0.10656,0 -0.21307,0.10666 -1.27837,-1.92 -1.81103,-5.12 -2.55675,-7.68 -0.42612,-1.38666 0.3196,-2.77333 0.3196,-3.94666 -0.74572,-0.74667 -2.34368,-1.28 -2.66328,-2.45334 -0.85224,-3.2 2.55675,-4.8 0,-8.42666 -0.53265,-0.74667 -1.17184,-1.38667 -2.34368,-1.6 -4.15472,-0.85334 -6.71146,3.52 -7.67024,6.50666 -0.10656,0 -0.10656,0 -0.21306,0.10667 -0.3196,0.21333 -0.42613,-0.10667 -0.63918,0 -0.3196,0.21333 -0.21307,-0.10667 -0.63919,0.21333 -0.10656,0.10667 -0.42612,0 -0.63919,0.10667 -0.10656,0.10667 -0.42612,0.32 -0.63919,0.32 -0.21306,0 -0.42612,0.10667 -0.53265,0.21333 -0.10656,0.10667 -0.3196,0.21334 -0.53266,0.32 -0.10656,0.10667 -0.31959,0.21334 -0.42612,0.32 -0.10656,0.10667 -0.21306,0.10667 -0.3196,0.32 -0.10656,0.21334 -0.10656,0.21334 -0.42612,0.32 -0.21306,0.10667 -0.3196,0.21334 -0.3196,0.32 0,0.10667 -0.10656,0.21334 -0.21305,0.32 0,0.10667 -0.21307,0.32 -0.21307,0.42667 0,0.10667 -0.53265,0.21333 -0.53265,0.53333 0.10656,-0.10666 0.10656,-0.21333 0.31959,-0.21333 -0.10656,0.10667 -0.21306,0.32 -0.10656,0.42667 0,-0.10667 0.10656,-0.10667 0.10656,0 0,0 0.10656,0.21333 0.3196,0.32 0,-0.10667 0.21306,-0.10667 0.31958,-0.10667 0.10656,0 0.10656,-0.10667 0,0.21333 0,0.21334 -0.31958,1.70667 -0.31958,2.13334 0,0.42666 -0.10656,0.42666 0.10656,0.53333 0.10656,0.10667 0.21306,0.32 0.21306,0.53333 -0.21306,0 -0.42613,0.10667 -0.63918,0.10667 -1.17185,0.32 -2.55675,1.70667 -3.08941,2.56 -0.95877,2.34667 -1.91756,4.58667 -2.87634,6.93333 0,0.42667 -0.10656,0.85334 -0.10656,1.28 -0.10656,0.21334 -0.21306,0.32 -0.21306,0.53334 -0.31959,-0.85334 -0.42613,-1.70667 -0.95878,-2.34667 -0.85225,-1.06667 -3.30247,-1.38667 -4.58083,-1.92 -0.63919,-1.06667 1.17184,-1.92 0.85224,-3.62667 -0.21307,-1.28 -0.74572,-2.77333 -0.95878,-4.05333 v -1.38667 c -0.3196,-2.02666 -0.95878,-3.94666 -2.34368,-4.90666 -1.91756,-1.38667 -4.68737,0 -5.43309,1.70666 -0.3196,0.85334 0.10656,2.34667 -0.21306,2.98667 -0.10656,0.10667 -0.31959,0.21333 -0.42613,0.42667 -0.31958,1.38666 0.95878,2.98666 0.85226,4.16 -0.10656,0.64 -0.10656,1.38666 -0.10656,2.02666 0.10656,0.64 0.63918,0.96 0.31959,1.81334 -0.42612,1.28 -2.13061,1.38666 -3.72859,1.70666 0.3196,-0.10666 0.53266,-0.42666 0.42613,-1.28 0,-0.42666 0,0.10667 0.42613,-0.42666 0.21306,-0.21334 0,-0.64 -0.21307,-0.96 0,0 -0.10656,0 0,-0.21334 0,-0.21333 0.10656,-0.10666 0.21307,-0.21333 0.21306,0 0.21306,0 0.31958,-0.21333 0.10656,-0.21334 0.10656,0 0,-0.53334 -0.10656,-0.64 -0.10656,-0.32 0.21307,-0.42666 0.31959,-0.10667 0.63919,-0.32 0.31959,-0.85334 -0.10656,-0.21333 -0.31959,-0.42666 -0.53266,-0.74666 -0.10656,-0.10667 0,-0.10667 0.10656,-0.10667 -0.10656,0 -0.21306,0 -0.21306,-0.10667 0,-0.10666 -0.10656,-0.10666 0,-0.53333 0,-0.10667 0,-0.21333 0.10656,-0.32 -0.10656,0.21333 0,0.21333 -0.10656,0.21333 -0.10656,-0.10666 -0.10656,0 -0.10656,-0.10666 0,-0.21334 0.10656,-0.21334 0.21305,-0.32 0.21307,-0.21334 0.21307,-0.21334 0.3196,-0.21334 0.10656,0 0.10656,0 0,0.10667 0,0 0,0.10667 -0.10656,0.21333 0.10656,-0.10666 0.21306,-0.21333 0.31959,-0.21333 0.10656,0 0.10656,0 0.21306,0.10667 0.10656,0.10666 0,0.64 -0.10656,0.74666 -0.10656,0.10667 -0.10656,0.32 -0.21306,0.32 0,0 0.10656,-0.10666 0.21306,-0.21333 0.10656,-0.21333 0.21306,-0.42667 0.21306,-0.74667 0,-0.10666 0.21306,-0.10666 0,-0.32 0,0 0,-0.10666 -0.10656,-0.21333 0,0 0,0 0,0.10667 0,0.10666 0,0.10666 -0.10656,0 -0.10656,0 -0.10656,-0.10667 -0.10656,-0.10667 -0.10656,0.10667 0,0.10667 -0.31959,0 -0.10656,0 0.10656,-0.10667 -0.10656,-0.53333 -0.10656,-0.32 -0.21307,-0.32 -0.21307,-1.06667 0,-0.42667 0,-0.64 -0.53265,-1.6 -0.10656,-0.21333 0.21306,-0.21333 -0.10656,-0.53333 -0.31958,-0.32 -0.42612,-0.42667 -0.42612,-0.42667 -0.10656,0 -0.10656,-0.10667 -0.21306,-0.21333 -0.10656,0 -0.21306,-0.21334 -0.53266,-0.32 -0.21305,-0.10667 -0.10656,-0.21334 -0.31959,-0.32 -0.21306,0 -0.3196,-0.21334 -0.42612,-0.21334 -0.10656,0 -0.10656,-0.10666 -0.42613,-0.21333 -0.21306,0 -0.31959,0 -0.42612,-0.21333 -0.21307,-0.10667 -0.21307,-0.21334 -0.42612,-0.21334 -0.21307,0 -0.3196,-0.10666 -0.42613,-0.10666 -0.21306,0 -0.53266,-0.21334 -0.63918,-0.10667 -0.10656,0 -0.10656,0 -0.21307,0 -0.10656,0 -0.3196,-0.10667 -0.42612,0 -0.10656,0.10667 -0.21306,0.10667 -0.3196,0.10667 -0.10656,0 -0.31959,0 -0.42612,0.10666 -0.10656,0.10667 -0.21306,0 -0.42612,0.10667 -0.10656,0.10667 -0.21307,0.10667 -0.3196,0.21333 -0.21307,0.10667 -0.10656,0.10667 -0.31959,0.21334 -0.10656,0 -0.21306,0.10666 -0.21306,0.21333 -0.10656,0.10667 -0.21307,0.21333 -0.21307,0.32 -0.10656,0.10667 -0.21306,0 -0.21306,0.21333 -0.10656,0.10667 -0.21306,0.21334 -0.31959,0.32 -0.10656,0.10667 -0.10656,0.21334 -0.21306,0.32 -0.10656,0.10667 -0.10656,0.21334 -0.21307,0.32 -0.10656,0.10667 -0.10656,0.21334 -0.21306,0.32 0,0.32 -0.10656,0.53334 -0.21306,0.74667 -0.10656,0.10667 -0.10656,0.32 -0.10656,0.42667 0,0.10666 -0.10656,0.32 -0.10656,0.42666 0.10656,0.10667 0.10656,0.42667 0,0.64 -0.10656,0.10667 0,0.21334 0,0.32 0,0.10667 -0.10656,0.21334 0.10656,1.17334 0,0.21333 0.10656,0.42666 0.10656,0.74666 0,0.32 0.21306,1.06667 0.31959,1.81334 0,0.21333 -0.10656,0.85333 -0.21305,1.06666 -0.10656,0.10667 -0.10656,-0.10666 -0.3196,0.32 -0.10656,0.32 -0.21307,0.64 -0.42612,1.17334 -0.74572,-2.02667 -1.49144,-4.16 -2.23716,-6.18667 -0.53265,-0.42667 -0.95878,-0.85333 -1.49144,-1.28 -1.38489,-0.74667 -2.87633,-1.38667 -4.36776,-2.13333 -0.63919,-0.21334 -1.70451,-0.32 -2.0241,-0.85334 -0.21306,-0.85333 1.06531,-2.66666 1.38491,-3.41333 0.21305,-0.85333 -0.21307,-1.81333 -0.10656,-2.66667 0.85224,-3.62666 -1.27838,-6.4 -5.22004,-6.4 -0.95877,0.42667 -1.81101,0.53334 -2.4502,1.06667 -3.19594,2.56 0.10656,6.08 -0.63919,9.81333 -0.53265,0.32 -1.17184,0.64 -1.49144,1.06667 -0.10656,0.32 -0.31959,0.53333 -0.42612,0.85333 -0.53266,0.21334 -1.06531,0.53334 -1.59796,0.85334 -1.17185,0.74666 -2.76982,1.38666 -4.04818,2.34666 0,0 0,0 0,0 -0.21307,-0.42666 -0.53267,-1.17333 -0.63919,-1.6 0,-0.42666 -0.10656,-0.85333 -0.10656,-1.28 -0.21307,-0.32 -0.3196,-0.74666 -0.53266,-1.17333 -0.21307,-1.06667 -0.42613,-2.13333 -0.74572,-3.2 -0.63919,-1.81333 -2.55675,-4.69333 -5.22002,-4.37333 -1.17184,0.10666 -1.91756,0 -2.76982,0.53333 -0.53265,0.32 -1.70449,0.42667 -2.23715,0.85333 -0.74572,0.64 -1.49143,2.02667 -1.81103,2.98667 0,0.32 0,0.64 0.10656,0.96 -0.10656,0.32 -0.42612,0.53333 -0.31959,1.06667 0.10656,0.42666 0.10656,1.49333 0.21305,1.81333 0.10656,0.21333 0.53266,0.42667 0.42614,0.85333 -0.21307,0.21334 -0.42614,0.42667 -0.53266,0.74667 0,0.21333 0,0.53333 0.10656,0.74667 0.10656,2.02666 0.85225,1.92 -0.31959,3.62666 0.42612,-0.10666 0.63918,-0.32 0.85225,-0.74666 0.10656,0 0.21305,0 0.31959,0 0,0.32 -0.21307,0.53333 -0.21307,0.85333 0.10656,0.21333 0.3196,0.42667 0.42613,0.64 0,0.42667 0,0.85333 -0.10656,1.17333 0.21306,0.85334 1.17184,3.52 0.85224,4.69334 -0.31959,0.96 -1.17184,1.6 -1.59796,2.56 -0.85225,2.13333 0.53265,4.58666 1.91756,5.22666 0.10656,0.21334 0.10656,0.32 0,0.74667 -0.53265,-0.10667 -1.06531,-0.21333 -1.59797,-0.21333 -0.31959,-1.70667 -0.63918,-3.30667 -0.95878,-5.01334 -0.53265,-2.02666 -1.06531,-4.05333 -1.59796,-6.08 C 163.63113,391.04 163.205,389.44 162.24622,388.48 c -2.55675,-2.24 -6.71146,-2.77333 -9.48127,-4.90667 -0.3196,-2.13333 1.7045,-3.52 1.49143,-5.76 -0.10656,-0.74666 0.3196,-1.6 -0.21305,-2.02666 0.31959,-1.06667 1.17184,-2.45334 0.74572,-3.94667 -0.74572,-2.24 -4.47431,-4.26667 -7.35065,-3.2 -3.62206,1.38667 -4.15471,6.29333 -2.76981,10.13333 0.21306,0.10667 0.21306,0.21334 0.63919,0.21334 0.42612,0.74666 1.17184,4.58666 0.42612,5.33333 -0.3196,0.42667 -1.17184,0.42667 -1.59796,0.74667 -1.49144,0.96 -3.51553,1.92 -5.00697,3.09333 -1.70449,-0.74667 -3.51552,-1.38667 -4.58083,-2.13333 -0.85225,-0.64 -1.06531,-1.92 -2.13063,-2.45334 0,-0.10666 -0.10656,-0.10666 -0.10656,-0.21333 0.74572,-0.74667 1.27837,-1.92 1.38491,-3.30667 1.27837,0 2.55675,-2.98666 2.23715,-4.48 -0.53266,-2.56 -1.27838,-5.01333 -3.94165,-5.44 -4.4743,-0.64 -7.8833,0.96 -7.35065,6.18667 0.10656,0.64 -0.31959,0.85333 -0.10656,1.6 0.21306,0.85333 2.13063,4.48 1.81103,5.01333 -2.55674,3.94667 -10.33351,0.42667 -10.9727,6.82667 -0.63919,-0.32 -1.38491,-0.64 -2.0241,-0.85333 0.10656,-2.24 0.74572,-1.81334 1.49144,-2.98667 0.53266,-0.74667 1.7045,-5.01333 1.59797,-5.86667 -0.21306,-1.6 0.42612,-4.16 -0.74572,-5.01333 -0.63918,-0.42667 -1.3849,-0.53333 -2.23715,-0.74667 -4.58084,-1.17333 -6.81799,1.81334 -6.60493,6.18667 0,0.85333 -0.53266,1.81333 0.10656,2.66667 0.21307,0.32 0.3196,0.32 0.74572,0.32 0.10656,0.10666 0.10656,0.21333 0.10656,0.21333 -0.74572,1.06667 -1.3849,2.24 -1.91756,3.52 v 0.53333 c 0.21307,-0.10666 0.3196,-0.21333 0.42613,-0.53333 0,0 0.10656,-0.10667 0.10656,-0.10667 0,0.32 0.10656,0.64 0.21305,0.96 -1.17184,1.38667 -3.19593,1.81334 -5.00696,2.56 -0.42612,-1.49333 -0.85225,-3.09333 -1.704495,-4.16 -0.745717,-0.96 -2.343684,-0.85333 -3.408995,-1.38666 -0.319593,-0.21334 -0.532655,-0.64 -0.95878,-0.74667 -0.213061,-0.32 -0.319592,-0.96 -0.319592,-1.38667 0.319592,-0.42666 0.745717,-0.85333 0.426123,-1.70666 -0.213061,-0.53334 -2.98287,-2.88 -3.728587,-2.98667 -0.106528,-1.49333 -0.213063,-3.09333 -0.319593,-4.69333 0.213062,-0.64 0.745718,-1.92 0.532655,-2.77334 C 91.722661,368.74667 88.739792,367.04 86.183045,367.04 v 0 z m -47.086738,7.89333 h 0.213062 c 0,0.21334 -0.106528,0.10667 -0.213062,0 z m 298.926215,0 h 0.10656 c 0,0.21334 -0.10656,0.10667 -0.10656,0 z m -171.08892,8.85334 c 0.10656,0 0.10656,0 0.21307,0 0,0.21333 0,0.42666 0.10656,0.53333 -0.10656,0.21333 -0.21306,0.32 -0.3196,0.42667 -0.10656,0 -0.21305,0.10666 -0.31959,0.10666 C 163.41868,380.8 163.6318,380.48 163.84483,380.16 Z m 298.92622,0 c 0.10656,0 0.10656,0 0.21307,0 0,0.21333 0.10656,0.42666 0.10656,0.53333 -0.10656,0.21333 -0.21307,0.32 -0.3196,0.42667 -0.10656,0 -0.21307,0.10666 -0.31959,0.10666 C 462.3449,380.8 462.66452,380.48 462.87758,380.16 Z m -214.02094,3.30666 h 0.31958 c 0.53267,2.02667 1.70451,3.2 2.0241,5.12 -1.38491,-1.06666 -3.19594,-1.17333 -4.4743,-2.13333 0,-0.21333 -0.10656,-0.42667 -0.10656,-0.64 0.74571,-0.85333 1.59796,-1.38667 2.34368,-2.34667 z m 298.92621,0 h 0.31959 c 0.53266,2.02667 1.7045,3.2 2.0241,5.12 -1.38491,-1.06666 -3.19594,-1.17333 -4.47432,-2.13333 0,-0.21333 -0.10656,-0.42667 -0.10656,-0.64 0.74572,-0.85333 1.59798,-1.38667 2.34369,-2.34667 z m -335.25331,1.92 c 0,0 0,0 0.10656,0 0.10656,0 0.10656,0.10667 0,0.32 0,0.21334 0,0.32 -0.10656,0 0,-0.10666 0,-0.10666 0,-0.21333 0,0 0,-0.10667 0,-0.10667 z m 298.92621,0 c 0,0 0,0 0,0 0.10656,0 0.10656,0.10667 0,0.32 0,0.21334 0.10656,0.32 -0.10656,0 0,-0.10666 0,-0.10666 0,-0.21333 0,0 0,-0.10667 0,-0.10667 z m -302.12215,6.08 c 0.10656,0 0.21307,0 0.31959,0.10667 0.21307,0.10667 1.17184,0.42667 1.70451,0.32 -1.17184,0.21333 -2.23716,0.53333 -2.66328,1.6 0,0 -0.10656,0 -0.10656,0 -0.10656,-0.10667 0,0 0,-0.53333 0,-0.53334 0,-0.64 0.21307,-0.96 0.21306,-0.32 0.31959,-0.42667 0.42612,-0.53334 z m 298.92622,0 c 0.10656,0 0.21307,0 0.31959,0.10667 0.21307,0.10667 1.17184,0.42667 1.7045,0.32 -1.17185,0.21333 -2.23716,0.53333 -2.66328,1.6 0,0 0,0 0,0 -0.10656,-0.10667 -0.10656,0 0,-0.53333 0,-0.53334 0,-0.64 0.21307,-0.96 0.21305,-0.32 0.31959,-0.42667 0.42612,-0.53334 z m -414.192846,5.97334 c 0,0.21333 0,0.42666 -0.106528,0.64 v 3.84 c -0.106528,-0.32 -0.426124,-0.64 -0.95878,-0.96 0,-0.96 0,-2.13334 0.319594,-2.88 0.213062,-0.32 0.426123,-0.42667 0.745717,-0.74667 z m 298.926206,0 c 0,0.21333 0,0.42666 -0.10656,0.64 v 3.84 c -0.10656,-0.32 -0.42612,-0.64 -0.85224,-0.85334 0,-0.96 0,-2.13333 0.31959,-2.88 0.21306,-0.32 0.42613,-0.42666 0.74572,-0.64 z m -133.16385,0.32 c 0.74572,0.74666 0.53266,2.02666 0.85226,3.30666 0.21306,0.96 0.31959,1.81334 0.53265,2.66667 -0.21306,0.32 -0.42612,0.53333 -0.63919,0.85333 0,0.53334 -0.10656,0.96 -0.21306,1.49334 -0.21306,0.10666 -0.42612,0.32 -0.63918,0.42666 -0.10656,0.53334 -0.21307,1.06667 -0.21307,1.49334 0,-0.21334 0,-0.42667 -0.21306,-0.64 -0.10656,-0.21334 -0.53266,-2.02667 -0.63919,-2.45334 0.10656,-0.42666 0.21307,-0.85333 0.3196,-1.38666 0.31959,-1.92 0.10656,-4.16 0.95878,-5.76 z m 298.92622,0 c 0.74572,0.74666 0.63919,2.02666 0.85225,3.30666 0.21306,0.96 0.31959,1.81334 0.42612,2.66667 -0.21306,0.32 -0.42612,0.53333 -0.63918,0.85333 0,0.53334 -0.10656,0.96 -0.21307,1.49334 -0.21305,0.10666 -0.42612,0.32 -0.63918,0.42666 -0.10656,0.53334 -0.21306,1.06667 -0.21306,1.49334 0,-0.21334 0,-0.42667 -0.21307,-0.64 -0.10656,-0.21334 -0.63918,-2.02667 -0.74571,-2.45334 0.10656,-0.42666 0.21306,-0.85333 0.31959,-1.38666 0.31959,-1.92 0.10656,-4.16 0.85225,-5.76 z m -326.41123,0.10666 h 0.31959 c 0.53266,1.49334 0.10656,4.37334 -1.49143,4.8 h -0.10656 c -0.42612,-1.81333 0.63919,-3.84 1.27838,-4.8 z m 298.92621,0 h 0.31959 c 0.53266,1.49334 0.10656,4.37334 -1.49143,4.8 h -0.10656 c 0,-0.10666 0,-0.21333 -0.10656,-0.32 -0.21307,-1.70666 0.74572,-3.52 1.38489,-4.48 z M 157.45294,399.04 c 0.31959,0.32 0.53265,0.96 0.74572,1.49333 0,0 0,0.10667 -0.10656,0.10667 -0.10656,0 -0.3196,0 -0.42613,0 -0.21306,-0.42667 -0.31959,-0.85333 -0.21306,-1.6 z m 298.92622,0 c 0.31959,0.32 0.53265,0.96 0.63918,1.49333 0,0 0,0.10667 0,0.10667 -0.10656,0 -0.31959,0 -0.42613,0 -0.21305,-0.42667 -0.31959,-0.85333 -0.21305,-1.6 z m -230.85286,1.06667 h 0.10656 c 0.10656,0.42666 0.21306,0.96 0.3196,1.38666 -0.10656,0.53334 -0.3196,0.96 -0.42612,1.49334 -0.3196,1.28 0,2.24 -0.3196,3.30666 -0.21307,0.53334 -0.42612,1.06667 -0.63919,1.6 0,-0.32 0.21307,-0.74666 0.21307,-0.85333 -0.53266,-1.92 0.42612,-5.01333 0.74572,-6.82667 0,0 0,0 0.10656,-0.10666 z m 298.92621,0 v 0 c 0.10656,0.42666 0.21307,0.96 0.3196,1.38666 -0.10656,0.53334 -0.3196,0.96 -0.42613,1.49334 -0.31959,1.28 0.10656,2.24 -0.31959,3.30666 -0.21306,0.53334 -0.42612,1.06667 -0.63919,1.70667 -0.10656,-0.32 0.21307,-0.74667 0.21307,-0.85333 -0.53265,-1.92 0.42612,-5.01334 0.74571,-6.82667 0,0 0,0 0.10656,-0.10667 z m -479.389863,2.02666 c -0.213062,1.06667 -0.532654,2.24 -0.745717,3.30667 -0.319593,0.96 -0.532656,2.02667 -0.852248,2.98667 -0.213063,-0.21334 -0.426125,-0.42667 -0.532656,-0.53334 0.106528,-0.53333 0.426124,-0.74666 0.532656,-1.28 0.532655,-1.49333 0.213062,-2.88 -0.213063,-4.26666 V 402.24 c 0.639186,-0.10667 1.278374,-0.10667 1.91756,-0.21333 z m 298.926213,0 c -0.21306,1.06667 -0.53266,2.24 -0.74571,3.30667 -0.3196,0.96 -0.53266,2.02667 -0.85225,2.98667 -0.21307,-0.21334 -0.42613,-0.42667 -0.53266,-0.53334 0.10656,-0.53333 0.42612,-0.74666 0.53266,-1.28 0.53265,-1.49333 0.21306,-2.88 -0.21307,-4.26666 V 402.24 c 0.63919,-0.10667 1.27837,-0.10667 1.91756,-0.21333 z m -168.10604,0.32 c 0.31959,0.10667 0.42612,0.64 0.53265,0.85334 -0.21306,0.10666 -0.42613,-0.10667 -0.53265,-0.32 0,-0.21334 0,-0.42667 0,-0.53334 z m 298.92621,0 c 0.3196,0.10667 0.42613,0.64 0.53266,0.85334 -0.21306,0.10666 -0.42613,-0.10667 -0.53266,-0.32 0,-0.21334 0,-0.42667 0,-0.53334 z M 163.8448,403.52 c 0.31959,0.10667 0.53266,0.10667 0.85226,0.21333 0,0.32 -0.10656,1.6 -0.21307,1.92 -0.3196,0.74667 -4.90043,0.53334 -5.75268,0.21334 0,-0.10667 -0.10656,-0.10667 -0.21306,-0.21334 2.55675,-0.53333 4.26124,0.10667 5.32655,-2.13333 z m 298.92622,0 c 0.31959,0.10667 0.53265,0.10667 0.85224,0.21333 0,0.32 -0.10656,1.6 -0.21305,1.92 -0.3196,0.74667 -4.90044,0.53334 -5.75268,0.21334 0,-0.10667 -0.10656,-0.10667 -0.21306,-0.21334 2.55674,-0.53333 4.26124,0.10667 5.32655,-2.13333 z m -183.44652,3.62667 c 0.10656,1.17333 0.21306,2.24 0,2.98666 -0.21307,0.85334 -0.85225,1.17334 -1.06531,2.13334 -0.10656,0.96 -0.3196,1.92 -0.42613,2.88 0,-0.21334 0,-0.32 0,-0.53334 -0.10656,-0.74666 -0.95878,-1.6 -0.95878,-2.24 0,-0.21333 0.42613,-0.32 0.3196,-0.74666 -0.21307,-0.32 -0.42613,-0.53334 -0.63919,-0.85334 -0.3196,-0.74666 -0.3196,-1.28 -0.63919,-2.02666 0.42612,-0.21334 0.85225,0.10666 1.59797,-0.10667 0.95878,-0.21333 1.59796,-0.74667 2.02409,-1.6 z m 298.92621,0 c 0.10656,1.17333 0.21307,2.24 0,2.98666 -0.21306,0.85334 -0.85225,1.17334 -1.06531,2.13334 -0.10656,0.96 -0.3196,1.81333 -0.42613,2.77333 0,-0.10667 0,-0.21333 0,-0.42667 -0.10656,-0.74666 -0.95877,-1.6 -0.95877,-2.24 0,-0.21333 0.42612,-0.32 0.31959,-0.74666 -0.21306,-0.32 -0.42613,-0.53334 -0.63918,-0.85334 -0.3196,-0.74666 -0.3196,-1.28 -0.63919,-2.02666 0.42612,-0.21334 0.85224,0.10666 1.59796,-0.10667 0.95878,-0.21333 1.59797,-0.74667 2.0241,-1.6 z m -324.6002,5.12 c 0,0 0.10656,0 0.10656,0 0,0.10666 0,0.32 0,0.42666 -0.21306,0.10667 -0.21306,-0.10666 -0.21306,-0.21333 0,-0.10667 0,-0.10667 0.10656,-0.10667 z m 298.92622,0 c 0,0 0.10656,0 0.10656,0 0,0.10666 0,0.32 0,0.42666 -0.21307,0.10667 -0.21307,-0.10666 -0.21307,-0.21333 0,-0.10667 0,-0.10667 0.10656,-0.10667 z m -299.67194,0.64 c 0.21306,0 0.42612,0.10666 -0.21307,0.32 -0.31959,0.10666 -0.10656,0.32 -0.63918,0.32 -0.21306,0 -0.53266,0 -0.74571,0 -0.21307,0 -0.3196,0 -0.21307,-0.10667 0.10656,-0.10667 0.10656,-0.10667 0.21307,-0.10667 0.31958,0 1.0653,-0.32 1.38489,-0.42666 0.10656,0 0.21307,0 0.3196,0 z m 298.92622,0 c 0.21305,0 0.42612,0.10666 -0.21307,0.32 -0.31959,0.10666 0,0.32 -0.63919,0.32 -0.21305,0 -0.53265,0 -0.74572,0 -0.21305,0 -0.31959,0 -0.21305,-0.10667 0.10656,-0.10667 0.10656,-0.10667 0.21305,-0.10667 0.3196,0 1.06532,-0.32 1.38491,-0.42666 0.10656,0 0.10656,0 0.21307,0 z m -321.93694,0.42666 c 0,0.10667 0,0.10667 0.10656,0.21334 0,0.96 -1.06531,2.45333 -2.0241,2.88 -0.10656,-0.42667 -0.10656,-0.85334 -0.31959,-1.28 -0.10656,-0.32 -0.31959,-0.74667 -0.42612,-1.06667 1.06531,0 2.02409,-0.32 2.76981,-0.64 z m 298.92622,0 c 0,0.10667 0,0.10667 0.10656,0.21334 0,0.96 -1.0653,2.56 -2.13062,2.88 -0.10656,-0.42667 -0.10656,-0.85334 -0.21306,-1.28 -0.10656,-0.32 -0.3196,-0.74667 -0.53265,-1.06667 1.06531,0 2.02408,-0.32 2.7698,-0.64 z"/>
    <path style="fill:#dfdbcf;stroke-width:1.06666672" inkscape:connector-curvature="0" id="path56" d="m 115.41333,381.22667 c -0.10666,0 -0.21333,0 -0.21333,0 0.10667,0 0.21333,0.74666 -0.21333,0.42666 0.21333,0.21334 0.10666,0.32 0.21333,0.42667 0,0 0,0 0,0 l -0.10667,0.10667 C 114.98667,382.08 114.98667,382.08 114.88,381.97333 c 0,0 0.10667,0 0.10667,0 -0.32,-0.21333 -1.06667,-0.53333 -0.96,-0.10666 0,0.10666 0.21333,0.10666 0.21333,0.21333 0,0.42667 -1.49333,0.21333 -0.85333,0.74667 0,0 0,0 0,0.10666 H 113.28 V 383.04 c -0.21333,0.42667 -0.74667,1.06667 -1.17333,1.28 0.96,-0.42667 0,1.17333 0,1.70667 0,0.96 -0.21334,1.81333 -0.32,2.77333 0,0.53333 -0.10667,1.17333 0,1.6 0.10666,0.85333 0.21333,0.64 0.64,1.28 0.32,0.42667 -0.21334,0.53333 -0.32,0.85333 -0.10667,0.32 0.10666,0.96 0.21333,1.28 0.21333,0.64 0.32,1.28 0.74667,1.92 0.42666,0.53334 1.49333,0.64 1.49333,1.28 -0.32,0 -0.53333,0 -0.85333,0 -1.28,-0.10666 -2.66667,0 -3.94667,0.53334 -0.96,0.32 -2.13333,1.49333 -3.2,1.6 -0.10667,0 -0.74667,0.53333 -0.74667,0.53333 -0.32,0.53333 0.21334,0.96 0.21334,1.28 -0.21334,0.53333 -0.96,0.74667 -1.17334,1.38667 -0.42666,1.49333 -1.17333,3.2 -2.02666,4.48 -0.32,0.53333 -0.42667,1.06666 -1.06667,1.38666 -1.06667,0.53334 -2.24,0.64 -3.413333,0.96 -0.853334,0.21334 -1.493334,0.21334 -2.346667,0.32 -0.106667,0 -0.32,0.10667 -0.426667,0.10667 -0.32,0 -0.64,0 -0.96,0.10667 -1.493333,-0.42667 -3.093333,0.64 -3.84,1.70666 -0.106666,0.10667 -0.106666,0.21334 -0.213333,0.32 -1.28,-0.64 -2.56,-1.17333 -3.946667,-1.6 -0.426666,-0.10666 -0.106666,-1.6 -0.746666,-1.81333 -0.426667,-0.21333 -1.706667,-0.42667 -1.6,-1.06667 0.213333,-0.96 0.533333,-2.02666 0.746666,-2.98666 0.106667,-0.64 0.853334,-0.74667 1.28,-1.38667 0.32,-0.42667 1.173334,-2.24 0.32,-2.56 -0.426666,-0.10667 0,-1.70667 -0.106666,-2.13333 -0.32,-1.81334 -0.64,-2.66667 -2.133334,-3.84 -1.493333,-1.06667 -2.88,-1.49334 -4.16,-1.28 -2.88,-0.42667 -5.333333,1.70666 -6.293333,4.8 -0.213333,0.85333 0,1.38666 -0.426667,1.92 -0.533333,0.53333 -0.213333,1.92 0,2.45333 0.213334,0.64 0.96,0.96 1.066667,1.49333 0.106667,0.85334 0.213333,1.70667 0.426667,2.56 0.106666,0.42667 -1.066667,1.06667 -1.28,1.49334 -0.32,0.42666 -1.6,0.32 -2.133334,0.32 -0.106666,0 -0.106666,0 -0.213333,0 -0.426667,0 -0.96,-0.10667 -1.386667,0 0,0 0,0 -0.106666,0 -0.426667,0 -0.853334,-0.10667 -1.386667,0 -0.106667,0 -0.32,0.10666 -0.533333,0.21333 -0.213334,-0.10667 -0.32,-0.10667 -0.426667,-0.21333 C 67.093333,408 66.773333,407.89333 66.453333,407.68 c 0.106667,0.10667 0.106667,0.10667 0.213334,0.21333 -0.213334,0 -0.426667,-0.10666 -0.533334,-0.42666 -0.106666,0 -0.213333,-0.10667 -0.32,-0.21334 0.213334,0.10667 0.426667,0.32 0.533334,0.53334 -0.106667,0 -0.213334,-0.10667 -0.32,-0.21334 L 66.24,407.78667 c -0.213333,0 -0.32,-0.10667 -0.32,-0.32 l 0.213333,0.10666 C 66.026667,407.46667 65.92,407.36 65.92,407.25333 c -0.96,-0.64 -1.813333,-1.38666 -2.56,-2.34666 -0.533333,-0.64 -1.6,-2.24 -2.666667,-2.02667 -0.106666,0 -0.32,0.10667 -0.426666,0.21333 -0.32,-0.21333 -0.64,-0.32 -0.96,-0.21333 0,0 -0.106667,0 -0.106667,0 -0.106667,-0.10667 -0.213333,-0.21333 -0.32,-0.21333 -0.426667,-0.10667 -0.853333,-0.10667 -1.386667,0 0,0 0,0 -0.106666,0 -1.28,-0.42667 -2.986667,0.74666 -3.733334,1.70666 -0.426666,0.53334 -1.386666,0.85334 -1.92,1.28 C 50.986667,406.29333 50.56,407.14667 50.24,408 c -0.106667,0.21333 -0.106667,0.42667 -0.213333,0.64 -0.213334,-0.10667 0.213333,-1.06667 -0.106667,-1.38667 -0.533333,-0.32 -1.066667,-0.64 -1.6,-0.96 -0.213333,-0.21333 0.426667,-2.34666 0.533333,-2.88 0,-0.10666 1.6,-1.17333 1.813334,-1.70666 0.213333,-0.42667 0.426666,-0.96 0.32,-1.38667 0,-0.64 -0.32,-0.32 -0.533334,-0.53333 -0.106666,-0.10667 0.213334,-2.34667 0.32,-2.56 0.106667,-1.49334 -0.213333,-2.56 -1.28,-3.62667 -1.386666,-1.28 -3.093333,-1.81333 -4.8,-1.6 -1.173333,-0.10667 -2.453333,0.10667 -3.626666,0.74667 -1.173334,0.64 -2.026667,1.70666 -2.666667,2.88 -0.533333,0.85333 -0.213333,2.02666 -0.853333,2.77333 -0.853334,0.96 -0.853334,1.70667 -0.746667,2.88 0,-0.64 0.213333,-1.28 0.64,-1.49333 h 0.106667 c 0,0.96 0.106666,1.81333 0.106666,2.77333 C 37.12,402.56 36.8,401.92 36.8,401.28 c 0,0.10667 0,0.10667 0,0.21333 0.106667,0.64 0.106667,1.06667 0.853333,1.17334 0,0 0.213334,1.38666 0.213334,1.17333 0.213333,0.74667 1.6,2.56 0.106666,2.88 C 37.12,406.93333 37.12,407.89333 36.16,408.10667 c -1.386667,0.42666 -2.666667,0.21333 -4.053333,0.96 -1.173334,0.64 -2.56,1.06666 -3.733334,1.81333 -1.92,1.06667 -2.133333,4.16 -2.88,5.86667 -0.106666,0.10666 -0.106666,0.21333 -0.106666,0.32 -0.533334,-0.64 -1.173334,-0.85334 -1.92,-1.38667 -1.386667,-0.74667 -2.88,-0.74667 -3.626667,-2.24 -0.213333,-0.53333 -0.213333,-0.96 0.106667,-1.38667 0.213333,-0.32 0,-1.38666 0.106666,-1.81333 0.106667,-0.53333 0.32,-1.17333 0.213334,-1.70667 C 20.48,408.42667 20.693333,408.21333 20.8,408 c 0.106667,0.10667 0.32,0.10667 0.533333,0 -0.213333,0 -0.426666,-0.21333 -0.64,-0.42667 0.213334,-0.42666 0.32,-1.06666 0.32,-1.70666 0.426667,0 0.746667,0.10666 0.96,0.21333 0.32,0.21333 0,1.49333 -0.213333,1.70667 C 21.653333,407.89333 21.653333,408 21.546667,408 c 0.106666,0 0.32,-0.10667 0.32,-0.10667 0.64,-0.42666 0.64,-2.24 0.533333,-2.98666 -0.746667,-0.32 -1.28,-0.10667 -2.026667,-0.21334 -0.32,-0.53333 -0.32,-1.38666 -0.426666,-2.02666 C 19.733333,401.81333 20.16,400.53333 19.093333,400 c -2.133333,-0.96 -3.946666,-1.92 -6.08,-1.70667 -1.28,-0.10666 -2.453333,0 -3.9466663,0.85334 -1.7066667,0.96 -2.7733334,1.70666 -3.52,3.41333 -1.28,2.98667 -2.3466667,6.29333 -2.56,9.49333 -0.1066667,1.49334 -0.32,2.13334 -1.92,2.56 C 0.74666667,414.72 0.42666667,414.82667 0,414.93333 v 32.53334 h 114.24 c -0.10667,-1.17334 -0.21333,-2.56 -0.32,-2.77334 -0.42667,-2.13333 -0.32,-4.26666 -0.53333,-6.4 -0.10667,-0.64 1.28,-0.64 1.70666,-0.96 0.32,-0.21333 0.64,-0.64 0.85334,-1.06666 0,0.21333 0,0.42666 0,0.53333 -0.21334,1.38667 -0.42667,2.66667 -0.53334,3.94667 -0.10666,0.96 0,1.81333 -0.21333,2.77333 -0.21333,1.17333 -0.42667,2.56 -0.74667,3.94667 H 532.16 c 0,-0.74667 0,-1.38667 0,-2.13334 0,-1.6 0.32,-3.09333 0.64,-4.58666 0,0 0.10667,0.10666 0.10667,0.10666 0.42666,0.32 0.85333,1.6 0.96,2.24 0.10666,0.32 -0.32,0.85334 -0.42667,1.17334 -0.21333,0.74666 -0.42667,1.49333 -0.53333,2.24 0,0.32 -0.10667,0.64 -0.21334,0.96 h 53.97334 V 412.48 c 0,0 0,0 -0.10667,-0.10667 -0.64,-0.42666 -0.85333,-0.85333 -1.28,-1.49333 -0.42667,-0.64 0.10667,-0.85333 0.42667,-1.49333 0.32,-0.53334 0.53333,-0.42667 0.85333,-0.53334 V 394.56 c -0.10667,-0.10667 -0.96,-0.85333 -0.85333,-0.85333 -0.32,0 -0.53334,0.64 -0.85334,0.21333 -0.10666,-0.10667 -0.21333,-0.10667 -0.42666,0 -0.10667,-0.10667 -0.21334,-0.21333 -0.21334,-0.21333 -0.32,0 -0.53333,0.64 -0.85333,0.21333 -0.21333,-0.32 -0.64,0.42667 -0.96,0.53333 0,0 -0.32,0.21334 -0.64,0.32 -0.10667,0 -0.10667,0 -0.21333,-0.10666 -0.21334,0 -0.32,0.10666 -0.32,0.32 -0.42667,0.53333 -0.64,-0.21334 -1.06667,-0.21334 -0.53333,0 -0.53333,0.74667 -0.42667,1.06667 0.10667,0.21333 -1.49333,0 -0.85333,0.96 0.21333,0.32 0.10667,0.42667 -0.21333,0.53333 -0.21334,-0.21333 -0.42667,-0.42666 -0.64,-0.32 C 577.92,397.12 577.28,397.12 577.6,397.44 c -0.10667,0 -0.21333,0.10667 -0.10667,0.21333 -0.10666,-0.10666 -0.53333,-0.96 -0.85333,-0.64 -0.21333,0.21334 -0.96,0 -0.32,0.53334 0.32,0.21333 1.81333,1.38666 1.81333,1.81333 0,0.53333 -0.85333,0.96 -0.85333,1.49333 -0.10667,0.64 -0.42667,1.06667 -0.64,1.6 -0.10667,0.53334 -0.21333,1.38667 -0.53333,2.02667 -0.10667,0 -0.21334,-0.10667 -0.21334,-0.10667 -0.74666,-0.42666 -1.49333,-0.42666 -2.24,-0.96 -0.64,-0.42666 -1.6,-0.42666 -2.13333,-0.96 -0.74667,-0.74666 -0.85333,-0.42666 -0.42667,-1.28 0.10667,-0.21333 0.53334,-0.42666 0.74667,-0.53333 0.32,-0.21333 0.32,-1.06667 0.74667,-0.96 0.53333,0.10667 0.96,-0.42667 1.06666,-0.96 0.10667,-0.96 0.53334,-2.02667 0.64,-2.98667 0.10667,-1.70666 0.21334,-5.54666 -1.6,-6.50666 -0.42666,-0.21334 -1.06666,-0.10667 -1.38666,-0.21334 -0.32,-0.10666 -0.42667,-0.74666 -0.85334,-1.06666 -0.42666,-0.21334 -1.06666,-0.21334 -1.6,-0.10667 -0.96,-0.42667 -2.45333,0.32 -3.2,0.74667 -1.06666,0.64 -2.02666,1.28 -2.88,2.34666 -0.32,0.74667 -0.96,2.13334 -1.49333,2.56 -0.32,0.21334 -0.74667,1.17334 -0.85333,1.49334 -0.53334,0.96 0.21333,0.96 0.74666,1.38666 0.10667,0.10667 0.42667,2.45334 0.32,2.88 -0.21333,1.28 -0.96,1.38667 -2.13333,1.92 -1.6,0.64 -3.52,0.96 -5.44,1.28 -0.74667,0.10667 -1.28,0.32 -1.92,0.53334 0.21333,-0.64 0.64,-1.49334 0.64,-2.13334 0,-0.32 0,-0.64 0,-0.96 0.10667,-0.53333 0.74667,-0.53333 0.64,-0.85333 0,-0.32 -0.42667,-0.85333 -0.42667,-0.96 0.21334,-0.32 0,-0.53333 -0.21333,-0.74667 -0.32,-0.42666 -0.85333,-0.96 -1.38667,-1.38666 -0.32,-0.21334 -0.32,-0.42667 -0.32,-0.85334 -0.32,0 -0.74666,-0.32 -0.96,-0.53333 -0.53333,-0.42667 -1.70666,-0.42667 -2.56,-0.32 -0.74666,-0.10667 -1.6,0 -2.02666,0.10667 -0.21334,0.10666 -1.49334,0.32 -1.49334,0.32 -0.10666,0.74666 -0.53333,0 -0.74666,0 -0.42667,0.42666 -1.17334,0.32 -1.6,0.64 -0.42667,0.32 -0.53334,0.85333 -0.85334,1.17333 -0.32,0.32 -0.42666,0 -0.64,0.53333 -0.32,0.74667 -0.32,1.70667 -0.42666,2.45334 0,0.85333 -0.32,1.70666 -0.42667,2.56 -0.21333,1.17333 -0.53333,2.56 0.21333,3.73333 0.53334,0.74667 0.74667,0.74667 0.74667,1.70667 0,0.53333 0.10667,0.96 0,1.49333 -0.10667,0.85333 -0.21333,1.81333 -0.74667,2.56 -0.32,0.53333 -0.85333,0.64 -1.28,1.17333 -0.21333,0.32 -0.85333,0.85334 -1.49333,1.28 -0.10667,-0.42666 -0.21333,-0.85333 -0.64,-1.17333 -0.64,-0.53333 -1.28,-1.06667 -1.92,-1.49333 -1.49333,-1.06667 -3.62667,-1.38667 -5.01333,-2.45334 -0.21334,-0.10666 -0.85334,-1.6 -1.06667,-1.81333 -0.21333,-0.21333 -0.74667,-0.64 -0.64,-1.06667 0.21333,-0.53333 0.85333,-0.96 1.06667,-1.49333 0.32,-0.74667 0.64,-1.49333 0.96,-2.24 0.53333,-1.49333 0.32,-3.09333 0.96,-4.48 0.53333,-1.17333 -0.32,-2.66667 -0.10667,-3.84 0.10667,-0.74667 0.53333,-1.17333 0.10667,-2.02667 -0.21334,-0.42666 -0.85334,-0.85333 -1.28,-0.85333 -0.96,0 -1.70667,-0.96 -2.66667,-0.96 -0.21333,0 -0.53333,0.10667 -0.85333,0.10667 -0.21334,-0.10667 -0.42667,-0.10667 -0.64,-0.10667 -0.74667,0 -1.70667,0.32 -2.56,0.53333 -0.21334,0 -0.53334,0 -0.74667,0.10667 -0.10667,0 -0.32,0 -0.42667,-0.10667 -0.64,-0.10666 -1.28,0.10667 -1.6,0.53334 -0.42666,0.74666 -0.96,1.17333 -1.06666,1.92 -0.21334,0.96 -0.42667,1.92 -0.53334,2.88 -0.10666,0.64 -0.32,0.74666 -0.74666,1.28 -0.53334,0.64 0.21333,1.81333 0.74666,2.34666 0.64,0.64 0.53334,2.02667 0.53334,2.77334 0,0.85333 -0.21334,0.64 -0.64,1.06666 -0.96,0.96 -0.53334,2.13334 -2.13334,2.56 -1.81333,0.53334 -3.62666,0.42667 -5.44,0.53334 0.10667,0 0.21334,-0.10667 0.32,-0.10667 0.21334,0 0.42667,-0.53333 0.85334,-0.74667 0.42666,-0.32 0.32,-0.74666 0.32,-0.74666 0,0 0.53333,-0.10667 0.85333,-0.21334 0.32,-0.10666 0.64,-0.85333 0.96,-1.06666 0.32,-0.21334 0.32,-0.96 0.64,-1.17334 0.21333,-0.21333 0.10667,-1.06666 0,-1.49333 -0.10667,-0.42667 -0.21333,-1.17333 -0.21333,-1.49333 0,-0.32 -0.42667,-0.96 -0.64,-1.28 -0.21334,-0.32 -0.42667,-2.02667 -0.64,-2.45334 C 512.53333,395.30667 512.53333,393.92 512,393.28 c -0.42667,-0.53333 -1.81333,-0.96 -2.24,-1.28 -0.32,-0.32 -2.02667,-1.06667 -2.56,-1.17333 -0.21333,0 -0.74667,0 -1.28,0.10666 -0.10667,0 -0.10667,0 -0.21333,-0.10666 -0.53334,-0.10667 -2.13334,0.21333 -2.56,0.32 -0.42667,0.10666 -1.6,0.32 -2.02667,0.53333 -0.42667,0.21333 -1.06667,0.96 -1.38667,1.28 -0.32,0.21333 -1.70666,0.96 -1.92,1.28 -0.21333,0.32 -0.21333,1.06667 -0.32,1.38667 0,0.32 -0.53333,0.85333 -0.74666,2.24 0,0.53333 0.10666,1.49333 0,1.92 0,0.42666 0.53333,0.96 0.64,1.28 0.10666,0.32 0.74666,0.74666 0.85333,0.96 0.10667,0.32 0.64,0.74666 0.64,0.74666 0,0.32 0.10667,1.6 0.32,1.92 0.21333,0.32 0.85333,0.10667 0.85333,0.10667 0,1.17333 0.53334,1.70667 0.64,1.92 0.10667,0.21333 0.21334,0.96 0.21334,1.38667 0,0.32 -0.85334,1.17333 -0.85334,1.28 -0.42666,0 -0.96,0 -1.38666,0 -0.85334,0 -1.81334,0 -2.66667,0.10666 -1.49333,0.21334 -3.30667,0.85334 -3.94667,1.28 -0.64,0.32 -1.06666,1.70667 -1.17333,2.56 v 0 c -0.32,-0.21333 -1.38667,-0.10666 -1.38667,-0.10666 0,0 -1.06666,-0.64 -1.28,-0.85334 V 411.84 c 0,0 0.96,-0.53333 1.06667,-0.96 0,0 1.06667,-0.10667 0.85333,-1.28 0,0 0.74667,-0.21333 0.85334,-1.06667 0,0 1.17333,-0.64 1.28,-1.38666 0.10666,-0.42667 0,-1.06667 0.10666,-1.38667 0,-0.32 0.32,-1.17333 0.32,-1.6 0,-0.42667 0.10667,-1.70667 0.10667,-2.13333 0,-0.42667 -0.21333,-1.6 -0.53333,-1.70667 -0.32,-0.10667 -0.64,-0.64 -0.74667,-0.85333 -0.10667,-0.21334 -0.10667,-1.28 -1.28,-1.81334 -1.17333,-0.42666 -1.6,-0.32 -1.81333,-0.64 -0.32,-0.32 -0.85334,-0.96 -1.28,-0.85333 -0.42667,0.10667 -1.38667,-0.42667 -1.70667,-0.21333 -0.10667,0.10666 -0.32,0.10666 -0.53333,0.10666 -0.32,-0.10666 -0.64,-0.21333 -0.85334,-0.10666 -0.32,0.21333 -1.6,0.10666 -1.92,0.32 -0.32,0.21333 -1.17333,0.21333 -1.49333,0.42666 -0.32,0.21334 -1.17333,1.06667 -1.49333,1.38667 -0.32,0.32 -1.6,1.06667 -1.70667,1.49333 -0.10667,0.42667 -0.10667,0.53334 -0.21333,0.85334 -0.10667,0.32 -0.42667,1.06666 -0.32,1.38666 0.10666,0.32 0.32,0.64 0.32,0.96 0,0.32 -0.32,0.96 -0.32,1.38667 0,0.42667 0.10666,1.6 0.10666,1.92 0,0.32 0.21334,0.64 0.21334,1.06667 0,0.42666 0.21333,0.74666 0.42666,0.96 0.21334,0.32 0.64,0.32 0.85334,0.64 0,0 -0.32,0.32 -0.32,0.74666 0,0.42667 0.53333,0.64 0.53333,0.64 0,0 0.32,0.96 0.64,1.17334 0,0 -0.21333,0.85333 -0.42667,1.06666 0,0 -2.56,0.32 -3.2,0.42667 -0.42666,0.10667 -2.02666,0.21333 -3.41333,0.42667 -0.85333,-1.92 -1.81333,-3.73334 -3.2,-5.33334 -3.30667,-1.6 -7.46667,-2.34666 -11.2,-3.73333 -0.85333,-1.38667 -2.13333,-2.66667 -1.81333,-5.01333 0.10666,-0.21334 0.53333,-0.21334 0.64,-0.42667 0.42666,-1.17333 1.6,-3.41333 0.21333,-4.37333 0,-1.28 0.42667,-2.34667 0,-3.41334 -0.42667,-1.06666 -1.81333,-1.49333 -2.45333,-2.24 -0.64,0 -0.96,-0.42666 -1.49334,-0.64 -0.64,-0.21333 -1.28,-0.21333 -1.92,-0.10666 -1.6,-0.21334 -3.2,0.53333 -4.48,0.74666 0,0.21334 -0.21333,0.42667 -0.42666,0.64 -0.74667,0.64 -1.70667,1.06667 -2.24,1.6 0,0.42667 -0.32,0.85334 -0.32,1.38667 0,0.74667 0.42666,1.49333 0.32,2.24 0,0.21333 -0.21334,0.42667 -0.21334,0.74667 -0.32,1.81333 0.74667,3.41333 1.6,4.37333 0.64,1.70667 1.28,3.94667 1.17334,5.65333 -0.85334,0.64 -1.92,0.96 -2.88,1.49334 -0.96,0.53333 -1.70667,1.28 -2.66667,1.70666 -0.42667,0.21334 -1.06667,0.21334 -1.49333,0.32 -0.74667,0.32 -1.17334,0.85334 -1.81334,1.38667 -1.70666,-0.64 -4.26666,-0.21333 -5.54666,-1.28 0.21333,-0.53333 0.85333,-0.74667 1.38666,-1.17333 0.96,-0.96 1.6,-1.92 2.24,-3.30667 0,-2.98667 1.28,-5.44 0.10667,-7.89333 -0.64,-1.28 -2.77333,-2.56 -5.01333,-2.34667 0,0 -0.10667,0 -0.10667,0 -0.42667,0 -0.85333,-0.10667 -1.28,0 -2.02667,0.21333 -3.84,1.38667 -4.48,2.98667 -0.21333,0.53333 0,1.28 -0.32,1.92 -0.10667,0.42666 -0.74667,0.53333 -0.85333,1.17333 -0.21334,0.96 -0.21334,2.34667 0.32,3.09333 0.10666,0.21334 0.74666,0.10667 0.85333,0.10667 0.64,2.34667 -0.10667,4.05333 -2.24,4.37333 -0.10667,0 -0.32,0 -0.42667,0 0,0 -0.10666,0.10667 -0.10666,0.10667 0,0 0,0 -0.10667,0 0.64,-0.96 0.85333,-2.88 0,-3.09333 0.64,0.10666 0.64,-3.41334 0.42667,-3.84 -0.21334,-0.85334 -0.64,-1.49334 -1.28,-2.13334 -0.21334,-0.21333 -0.96,-0.53333 -1.06667,-0.74666 -0.10667,-0.42667 -0.42667,-0.64 -0.64,-1.06667 -0.42667,-0.53333 -2.02667,-0.85333 -2.66667,-0.74667 -0.21333,0 -0.42666,0 -0.64,0.10667 -0.32,0 -0.64,-0.10667 -0.74666,-0.10667 -2.88,0.10667 -4.37334,1.6 -5.65334,3.84 -0.96,1.49334 -0.42666,2.77334 -0.32,4.48 -0.85333,0.21334 -0.32,2.02667 -0.21333,2.66667 0.21333,1.06667 1.17333,0.74667 1.38667,1.38667 0.32,0.74666 0.32,1.49333 -0.42667,2.02666 -0.53333,0.21334 -0.74667,0.10667 -1.17333,0.53334 -0.21334,0.32 -0.64,0.32 -1.06667,0.32 -1.17333,0.10666 -2.34667,0.32 -3.52,0.53333 0.10667,-1.92 0.10667,-4.26667 -2.34667,-4.8 -0.42666,-0.10667 -0.96,0.10667 -1.38666,-0.10667 -0.42667,-0.21333 0.32,-0.21333 -0.42667,-0.32 -0.42667,0 -1.28,0 -1.6,-0.21333 -0.32,-0.10667 -0.96,0 -1.38667,0 -0.10666,0 -0.42666,0 -0.64,0 -0.85333,-0.10667 -1.38666,-0.53333 -2.13333,-0.85333 -1.38667,-0.64 -0.64,-3.09334 -0.64,-4.16 0,-0.64 1.17333,-0.85334 1.28,-1.70667 0.10667,-0.64 0.32,-1.92 -0.10667,-2.45333 -0.21333,-0.32 -0.21333,-1.17334 -0.21333,-1.6 0.10667,-0.96 -0.53333,-1.92 -0.85333,-2.77334 0,0 -0.10667,-0.10666 -0.10667,-0.21333 -1.28,-1.92 -3.30667,-2.66667 -5.22667,-2.34667 -2.24,-0.21333 -4.69333,0.85334 -6.08,2.77334 -1.06666,1.38666 -1.17333,3.30666 -0.53333,4.90666 0.21333,0.53334 -0.64,0.53334 -0.21333,1.38667 0.21333,0.53333 0.42666,2.34667 1.28,2.45333 C 384,402.24 384,402.24 384.21333,403.09333 384.42667,403.84 383.89333,403.52 384,404.16 c 0.10667,0.74667 1.17333,0.10667 0.85333,1.38667 -0.21333,0.64 -1.49333,0.85333 -2.13333,1.17333 -0.32,0.21333 -0.53333,0.32 -0.85333,0.42667 -0.21334,-0.32 -0.32,-0.64 -0.53334,-0.96 -0.85333,-1.38667 -1.70666,-3.2 -3.2,-4.16 -1.6,-1.06667 -3.41333,-0.85334 -5.33333,-0.85334 -0.42667,0 -0.96,0 -1.38667,0 -0.74666,0 -1.38666,0.10667 -2.02666,0.21334 -0.42667,-0.21334 -0.85334,-0.64 -1.38667,-0.96 -0.64,-0.32 -0.74667,-0.74667 -1.49333,-0.21334 0,0 -0.10667,0.10667 -0.21334,0.10667 -0.42666,-0.32 -0.64,-0.53333 -1.28,-0.10667 -0.21333,0.10667 -0.42666,0.32 -0.74666,0.42667 -0.96,-0.42667 -1.70667,-1.38667 -1.81334,-2.34667 0,-0.53333 -0.21333,-1.06666 -0.21333,-1.70666 0,-0.32 0.53333,-0.53334 0.74667,-0.85334 0.64,-0.85333 0.42666,-2.56 0.21333,-3.52 -0.10667,-0.32 -0.64,-0.53333 -0.32,-0.74666 -0.21333,0.10666 -0.21333,-1.38667 -0.21333,-1.6 -0.10667,-0.32 -0.21334,-0.53334 -0.32,-0.74667 L 362.24,389.01333 c 0,0 0,0 0,0 -0.10667,-0.21333 -0.21333,-0.32 -0.32,-0.53333 0,-0.10667 -0.85333,-0.96 -0.74667,-0.85333 -1.38666,-0.42667 -1.49333,-3.09334 -3.2,-2.88 0.10667,0 0.10667,0 0.21334,-0.10667 -0.53334,0.10667 -1.38667,0 -1.81334,-0.21333 0.10667,-0.85334 -0.74666,-0.32 -1.06666,0.10666 -0.10667,0 -0.21334,-0.10666 -0.32,-0.10666 0,-0.64 -0.42667,-0.42667 -0.74667,-0.21334 -0.42667,-0.32 -0.85333,-0.74666 -1.17333,-0.53333 0.10666,0 0.21333,0.74667 -0.21334,0.42667 0.21334,0.21333 0.10667,0.32 0.21334,0.42666 -0.42667,-0.32 -1.06667,-0.96 -1.38667,-0.74666 0.10667,0 0.21333,0.74666 -0.21333,0.42666 0.21333,0.21334 0.10666,0.32 0.21333,0.42667 l -0.10667,0.10667 C 351.46667,384.64 351.46667,384.64 351.36,384.53333 c 0,0 0.10667,0 0.10667,0 -0.32,-0.21333 -1.06667,-0.53333 -0.96,-0.10666 0,0.10666 0.21333,0.10666 0.21333,0.21333 0,0.42667 -1.49333,0.21333 -0.85333,0.74667 0,0 0,0 0,0.10666 H 349.76 L 349.65333,385.6 349.76,385.49333 c -0.21333,0.42667 -0.85333,1.06667 -1.28,1.28 0.96,-0.42666 0,1.17334 0,1.70667 0,0.96 -0.32,1.81333 -0.32,2.77333 0,0.53334 -0.10667,1.17334 0,1.6 0.10667,0.85334 0.21333,0.64 0.64,1.28 0.32,0.42667 -0.21333,0.53334 -0.32,0.85334 -0.10667,0.32 0.10667,0.96 0.21333,1.28 0,0.10666 0,0.10666 0.10667,0.21333 -0.10667,0.10667 -0.10667,0.10667 -0.21333,0.10667 0,0 -0.32,0.21333 -0.64,0.32 -0.10667,0 -0.10667,0 -0.21334,-0.10667 -0.21333,0 -0.32,0.10667 -0.42666,0.32 -0.42667,0.53333 -0.53334,-0.21333 -1.06667,-0.21333 -0.53333,0 -0.53333,0.74666 -0.42667,1.06666 0.10667,0.21334 -1.49333,0 -0.85333,0.96 0.21333,0.32 0.10667,0.42667 -0.21333,0.53334 -0.21334,-0.21334 -0.42667,-0.42667 -0.64,-0.32 -0.10667,0.10666 -0.74667,0.10666 -0.42667,0.42666 -0.10667,0 -0.21333,0.10667 -0.10667,0.21334 -0.10666,-0.10667 -0.53333,-0.96 -0.85333,-0.64 -0.21333,0.21333 -0.96,0 -0.32,0.53333 0.21333,0.21333 1.28,1.06667 1.70667,1.49333 C 343.68,401.38667 343.36,401.6 342.93333,401.6 c -0.10666,0 -0.74666,0.53333 -0.74666,0.53333 -0.32,0.53334 0.32,0.96 0.21333,1.28 -0.21333,0.53334 -0.96,0.74667 -1.17333,1.38667 -0.10667,0.42667 -0.21334,0.85333 -0.32,1.28 -0.32,-0.10667 -0.64,-0.21333 -1.06667,-0.42667 -0.64,-0.42666 -1.6,-0.42666 -2.13333,-0.96 -0.74667,-0.74666 -0.74667,-0.42666 -0.42667,-1.28 0.10667,-0.21333 0.53333,-0.42666 0.74667,-0.53333 0.32,-0.21333 0.32,-1.06667 0.74666,-0.96 0.53334,0.10667 0.96,-0.42667 1.06667,-0.96 0.10667,-0.96 0.53333,-2.02667 0.64,-2.98667 0.10667,-1.70666 0.21333,-5.54666 -1.6,-6.50666 -0.42667,-0.21334 -1.06667,-0.10667 -1.38667,-0.21334 -0.32,-0.10666 -0.42666,-0.74666 -0.85333,-1.06666 -0.42667,-0.21334 -1.06667,-0.21334 -1.6,-0.10667 -0.96,-0.42667 -2.45333,0.32 -3.2,0.74667 -1.06667,0.64 -2.13333,1.28 -2.88,2.34666 -0.32,0.74667 -0.96,2.13334 -1.49333,2.56 -0.32,0.21334 -0.74667,1.17334 -0.74667,1.49334 -0.53333,0.96 0.21333,0.96 0.74667,1.38666 0.10666,0.10667 0.32,2.45334 0.32,2.88 -0.21334,1.28 -0.96,1.38667 -2.13334,1.92 -0.64,0.21334 -1.28,0.42667 -2.02666,0.64 0.10666,-0.53333 0.21333,-1.06666 -0.21334,-1.28 -0.42666,-0.10666 0,-1.70666 -0.10666,-2.13333 -0.32,-1.81333 -0.64,-2.66667 -2.24,-3.84 -1.49334,-1.06667 -2.88,-1.49333 -4.16,-1.28 -1.17334,-0.21333 -2.34667,0.10667 -3.41334,0.74667 -0.74666,-0.10667 -1.38666,0 -1.81333,0.10666 -0.21333,0.10667 -1.6,0.32 -1.6,0.32 -0.10667,0.74667 -0.53333,0 -0.74667,0 -0.42666,0.42667 -1.17333,0.32 -1.6,0.64 -0.42666,0.32 -0.53333,0.85334 -0.85333,1.17334 -0.32,0.32 -0.42667,0 -0.64,0.53333 -0.32,0.74667 -0.32,1.70667 -0.42667,2.45333 0,0.85334 -0.32,1.70667 -0.42666,2.56 -0.21334,1.17334 -0.53334,2.56 0.21333,3.73334 0.53333,0.74666 0.74667,0.74666 0.85333,1.70666 0,0.42667 0.10667,0.85334 0,1.28 0,0 0,0 0,0 -0.42666,0 -0.96,0 -1.38666,0 -0.10667,0 -0.32,0.10667 -0.53334,0.21334 C 304.32,410.88 304.21333,410.88 304.10667,410.77333 303.68,410.66667 303.36,410.56 303.04,410.34667 c 0.10667,0.10666 0.21333,0.10666 0.21333,0.21333 -0.21333,0 -0.42666,-0.10667 -0.53333,-0.42667 -0.10667,0 -0.21333,-0.10666 -0.32,-0.21333 0.21333,0.10667 0.42667,0.32 0.53333,0.53333 -0.10666,0 -0.21333,-0.10666 -0.32,-0.21333 l 0.21334,0.21333 c -0.21334,0 -0.32,-0.10666 -0.32,-0.32 l 0.10666,0.10667 c -0.10666,-0.10667 -0.21333,-0.21333 -0.21333,-0.32 -0.96,-0.64 -1.81333,-1.38667 -2.56,-2.34667 -0.53333,-0.64 -1.6,-2.24 -2.66667,-2.02666 -0.10666,0 -0.32,0.10666 -0.53333,0.21333 -0.32,-0.21333 -0.64,-0.32 -0.96,-0.21333 0,0 -0.10667,0 -0.10667,0 -0.10666,-0.10667 -0.21333,-0.21334 -0.32,-0.21334 0.21334,-0.42666 0.42667,-0.85333 0.53334,-1.28 0.53333,-1.49333 0.42666,-3.09333 0.96,-4.48 0.53333,-1.17333 -0.32,-2.66666 -0.10667,-3.84 0.10667,-0.74666 0.53333,-1.17333 0.10667,-2.02666 -0.21334,-0.42667 -0.85334,-0.85334 -1.28,-0.85334 -0.96,0 -1.70667,-0.96 -2.66667,-0.96 -0.21333,0 -0.53333,0.10667 -0.85333,0.10667 -0.21334,-0.10667 -0.42667,-0.10667 -0.64,-0.10667 -0.74667,0 -1.70667,0.32 -2.56,0.53334 -0.21334,0 -0.53334,0 -0.74667,0.10666 -0.10667,0 -0.32,0 -0.42667,-0.10666 -0.64,-0.10667 -1.28,0.10666 -1.6,0.53333 -0.42666,0.74667 -0.96,1.17333 -1.06666,1.92 0,0.21333 -0.10667,0.42667 -0.10667,0.64 -1.17333,-0.74667 -2.45333,-0.96 -3.73333,-0.85333 -0.85334,-0.10667 -1.81334,0 -2.66667,0.32 0,0 0,0 0,-0.10667 -0.42667,-0.53333 -1.81333,-0.96 -2.24,-1.28 -0.32,-0.32 -2.02667,-1.06667 -2.56,-1.17333 -0.21333,0 -0.74667,0 -1.28,0.10666 -0.10667,0 -0.10667,0 -0.21333,-0.10666 -0.53334,-0.10667 -2.13334,0.21333 -2.56,0.32 -0.42667,0.10666 -1.6,0.32 -2.02667,0.53333 -0.42667,0.21333 -1.06667,0.96 -1.38667,1.28 -0.32,0.21333 -1.70666,0.96 -1.92,1.28 -0.21333,0.32 -0.21333,1.06667 -0.32,1.38667 0,0.32 -0.53333,0.85333 -0.74666,2.24 0,0.53333 0.10666,1.49333 0,1.92 0,0.42666 0.53333,0.96 0.64,1.28 0.10666,0.32 0.74666,0.74666 0.85333,0.96 0.10667,0.32 0.64,0.74666 0.64,0.74666 0,0.32 0.10667,1.6 0.32,1.92 0.21333,0.32 0.85333,0.10667 0.85333,0.10667 0,1.17333 0.53334,1.70667 0.64,1.92 0.10667,0.21333 0.21334,0.96 0.21334,1.38667 0,0.32 -0.85334,1.17333 -0.85334,1.28 -0.42666,0 -0.96,0 -1.38666,0 -0.85334,0 -1.92,0 -2.66667,0.10666 -1.49333,0.21334 -3.30667,0.85334 -3.94667,1.28 -0.64,0.32 -1.06666,1.70667 -1.17333,2.56 v 0 c -0.32,-0.10666 -0.85333,-0.10666 -1.17333,-0.10666 0.21333,-0.32 0.10666,-1.38667 0.21333,-1.81334 0.10667,-0.32 0.10667,-0.64 0.21333,-0.85333 0.10667,-0.21333 0.21334,-0.42667 0.10667,-0.74667 0,0 0.42667,-0.10666 0.74667,-0.64 H 257.6 c -0.10667,0 -0.10667,0 -0.21333,0 0.10666,-0.10666 0.10666,-0.32 0.21333,-0.42666 0,0 0.42667,-0.21334 0.74667,-0.53334 -0.10667,0.32 -0.21334,0.74667 -0.32,0.85334 -0.10667,0.10666 -0.21334,0.21333 -0.21334,0.21333 0.21334,0 0.32,-0.10667 0.42667,-0.10667 0.32,-0.21333 0.42667,-0.74666 0.53333,-1.28 0.10667,-0.10666 0.21334,-0.32 0.21334,-0.53333 0.10666,-0.42667 0,-1.06667 0,-1.38667 0,-0.32 0.32,-1.17333 0.42666,-1.6 0,-0.42666 0.10667,-1.70666 0.10667,-2.13333 0,-0.42667 -0.21333,-1.6 -0.53333,-1.70667 -0.32,-0.10666 -0.64,-0.64 -0.74667,-0.85333 -0.10667,-0.21333 -0.10667,-1.28 -1.28,-1.81333 -1.17333,-0.42667 -1.49333,-0.32 -1.81333,-0.64 -0.32,-0.32 -0.85334,-0.96 -1.28,-0.85334 -0.42667,0.10667 -1.28,-0.42666 -1.70667,-0.21333 -0.10667,0.10667 -0.32,0.10667 -0.53333,0.10667 -0.32,-0.10667 -0.64,-0.21334 -0.85334,-0.10667 -0.32,0.21333 -1.6,0.10667 -1.92,0.32 -0.32,0.21333 -1.17333,0.21333 -1.49333,0.42667 -0.32,0.21333 -1.17333,1.06666 -1.49333,1.38666 -0.32,0.32 -1.6,1.06667 -1.70667,1.49334 -0.10667,0.42666 -0.10667,0.53333 -0.21333,0.85333 -0.10667,0.32 -0.53334,1.06667 -0.32,1.38667 -0.64,0.53333 -1.06667,1.17333 -1.49334,2.02666 -1.28,2.88 -2.24,6.08 -2.56,9.28 -0.21333,0 -0.42666,0.10667 -0.74666,0.10667 -0.85334,-1.92 -1.81334,-3.73333 -3.09334,-5.33333 -2.56,-1.17334 -5.65333,-1.92 -8.53333,-2.77334 0.10667,-0.10666 0.32,-0.32 0.32,-0.53333 -0.53333,-0.53333 -0.96,-0.21333 -1.28,0.21333 -0.10667,0 -0.10667,0 -0.21333,-0.10666 0,0 0.10666,-0.10667 0.10666,-0.10667 -0.42666,-0.32 -0.64,-0.32 -0.85333,-0.10667 -0.21333,-0.10666 -0.42667,-0.10666 -0.74667,-0.21333 -0.21333,-0.32 -0.42666,-0.64 -0.64,-0.96 -0.10666,-0.32 -0.21333,-0.64 -0.21333,-0.74667 -0.10667,-0.32 -0.64,-1.38666 -0.85333,-1.49333 -0.10667,-0.53333 -0.21334,-1.17333 -0.10667,-1.81333 0.10667,-0.21334 0.53333,-0.21334 0.64,-0.42667 0.42667,-1.17333 1.6,-3.41333 0.21333,-4.37333 0,-1.28 0.42667,-2.34667 0,-3.41334 -0.42666,-1.06666 -1.81333,-1.49333 -2.45333,-2.24 -0.64,0 -0.96,-0.42666 -1.49333,-0.64 -0.64,-0.21333 -1.28,-0.21333 -1.92,-0.10666 -1.6,-0.21334 -3.2,0.53333 -4.48,0.74666 0,0.21334 -0.32,0.42667 -0.53334,0.64 -0.74666,0.64 -1.70666,1.06667 -2.24,1.6 0,0.42667 -0.32,0.85334 -0.32,1.38667 0,0.74667 0.42667,1.49333 0.32,2.24 0,0.21333 -0.21333,0.42667 -0.21333,0.74667 -0.32,1.81333 0.74667,3.41333 1.6,4.37333 0.64,1.70667 1.28,3.94667 1.17333,5.65333 -0.85333,0.64 -1.92,0.96 -2.88,1.49334 -0.96,0.53333 -1.70666,1.28 -2.66666,1.70666 -0.42667,0.21334 -1.06667,0.21334 -1.49334,0.32 -0.74666,0.32 -1.17333,0.85334 -1.70666,1.38667 -1.70667,-0.64 -4.37334,-0.21333 -5.54667,-1.28 0.21333,-0.53333 0.96,-0.74667 1.38667,-1.17333 0.96,-0.96 1.6,-1.92 2.24,-3.30667 0,-2.98667 1.28,-5.44 0.10666,-7.89333 -0.64,-1.28 -2.77333,-2.56 -5.01333,-2.34667 0,0 -0.10667,0 -0.10667,0 -0.42666,0 -0.85333,-0.10667 -1.28,0 -2.02666,0.21333 -3.84,1.38667 -4.48,2.98667 -0.21333,0.53333 0,1.28 -0.32,1.92 -0.10666,0.42666 -0.74666,0.53333 -0.85333,1.17333 -0.21333,0.96 -0.21333,2.34667 0.42667,3.09333 0.10666,0.21334 0.74666,0.10667 0.85333,0.10667 0.64,2.34667 -0.10667,4.05333 -2.24,4.37333 -0.10667,0 -0.32,0 -0.42667,0 0,0 0,0.10667 -0.10666,0.10667 0,0 -0.10667,0 -0.10667,0 0.64,-0.96 0.85333,-2.88 0,-3.09333 0.64,0.10666 0.64,-3.41334 0.53333,-3.84 -0.21333,-0.85334 -0.74666,-1.49334 -1.28,-2.13334 -0.21333,-0.21333 -0.96,-0.53333 -1.06666,-0.74666 -0.10667,-0.42667 -0.42667,-0.64 -0.64,-1.06667 -0.42667,-0.53333 -2.02667,-0.85333 -2.66667,-0.74667 -0.21333,0 -0.42667,0 -0.64,0.10667 -0.32,0 -0.64,-0.10667 -0.74667,-0.10667 -2.88,0.10667 -4.26666,1.6 -5.65333,3.84 -0.96,1.49334 -0.53333,2.77334 -0.32,4.48 -0.85333,0.21334 -0.32,2.02667 -0.21333,2.66667 0.21333,1.06667 1.17333,0.74667 1.38666,1.38667 0.32,0.74666 0.32,1.49333 -0.42666,2.02666 -0.53334,0.21334 -0.74667,0.10667 -1.17334,0.53334 -0.21333,0.32 -0.64,0.32 -1.06666,0.32 -1.17334,0.10666 -2.34667,0.32 -3.52,0.53333 0.10666,-1.92 0.10666,-4.26667 -2.34667,-4.8 -0.42667,-0.10667 -0.85333,0.10667 -1.28,-0.10667 -0.42667,-0.21333 0.32,-0.21333 -0.42667,-0.32 -0.42666,0 -1.28,0 -1.6,-0.21333 -0.32,-0.10667 -0.96,0 -1.38666,0 -0.10667,0 -0.42667,0 -0.64,0 -0.85334,-0.10667 -1.38667,-0.53333 -2.13334,-0.85333 -1.38666,-0.64 -0.64,-3.09334 -0.64,-4.16 0,-0.64 1.17334,-0.85334 1.28,-1.70667 0.10667,-0.64 0.32,-1.92 -0.10666,-2.45333 -0.21334,-0.32 -0.21334,-1.17334 -0.21334,-1.6 0.10667,-0.96 -0.42666,-1.92 -0.85333,-2.77334 0,0 -0.10667,-0.10666 -0.10667,-0.21333 -1.28,-1.92 -3.30666,-2.66667 -5.22666,-2.34667 -2.24,-0.21333 -4.69334,0.85334 -6.08,2.77334 -1.06667,1.38666 -1.17334,3.30666 -0.53334,4.90666 0.21334,0.53334 -0.64,0.53334 -0.21333,1.38667 0.21333,0.53333 0.42667,2.34667 1.28,2.45333 0.85333,0.10667 0.74667,0.10667 0.96,0.96 0.21333,0.74667 -0.32,0.42667 -0.21333,1.06667 0.10666,0.74667 1.17333,0.10667 0.85333,1.38667 -0.21333,0.64 -1.49333,0.85333 -2.13333,1.17333 -0.32,0.21333 -0.53334,0.32 -0.85334,0.42667 -0.21333,-0.32 -0.32,-0.64 -0.42666,-0.96 -0.85334,-1.38667 -1.81334,-3.2 -3.2,-4.16 -1.6,-1.06667 -3.41334,-0.85334 -5.33334,-0.85334 -0.42666,0 -0.96,0 -1.38666,0 -0.74667,0 -1.38667,0.10667 -2.02667,0.21334 -0.42667,-0.21334 -0.85333,-0.64 -1.38667,-0.96 -0.64,-0.32 -0.74666,-0.74667 -1.49333,-0.21334 0,0 -0.10667,0.10667 -0.10667,0.10667 -0.42666,-0.32 -0.64,-0.53333 -1.28,-0.10667 -0.21333,0.10667 -0.42666,0.32 -0.74666,0.42667 -0.96,-0.42667 -1.70667,-1.38667 -1.70667,-2.34667 0,-0.53333 -0.21333,-1.06666 -0.21333,-1.70666 0,-0.32 0.53333,-0.53334 0.74666,-0.85334 0.64,-0.85333 0.53334,-2.56 0.21334,-3.52 -0.10667,-0.32 -0.64,-0.53333 -0.32,-0.74666 -0.21334,0.10666 -0.21334,-1.38667 -0.21334,-1.6 -0.10666,-0.32 -0.21333,-0.53334 -0.32,-0.74667 l -0.10666,-0.10667 c 0,0 0,0 0,0 -0.10667,-0.21333 -0.21334,-0.32 -0.32,-0.53333 0,-0.10667 -0.85334,-0.96 -0.74667,-0.85333 -1.38667,-0.42667 -1.49333,-3.09334 -3.2,-2.88 0.10667,0 0.10667,0 0.21333,-0.10667 -0.53333,0.10667 -1.38666,0 -1.81333,-0.21333 0.10667,-0.85334 -0.74667,-0.32 -1.17333,0.10666 -0.10667,0 -0.21334,-0.10666 -0.32,-0.10666 0,-0.64 -0.42667,-0.42667 -0.74667,-0.21334 -0.42667,-0.32 -0.85333,-0.74666 -1.17333,-0.53333 0.10666,0 0.21333,0.74667 -0.21334,0.42667 0.21334,0.21333 0.10667,0.32 0.21334,0.42666 -0.42667,-0.32 -0.85334,-0.74666 -1.17334,-0.85333 z m 10.24,5.54666 c 0,0 0,0.10667 0.10667,0.10667 0,-0.10667 0,-0.10667 -0.10667,-0.10667 z m 174.72,20.37334 c 0.10667,0 0.10667,0.10666 0.21334,0.10666 -0.10667,0 -0.10667,-0.10666 -0.21334,-0.21333 0,0 0,0 0,0.10667 z m 60.05334,-20.37334 c 0,0 0,0.10667 0.10666,0.10667 0,-0.10667 0,-0.10667 -0.10666,-0.10667 z M 65.706667,407.14667 c 0.106666,0 0.106666,0.10666 0.213333,0.10666 -0.106667,0 -0.106667,-0.10666 -0.213333,-0.21333 0,0 0,0 0,0.10667 z M 117.01333,381.76 c 0.21334,0.10667 0.32,0.21333 0.32,0.42667 C 117.01333,382.08 117.12,381.97333 117.12,381.76 Z m 234.77334,0 c 0.21333,0.10667 0.32,0.21333 0.32,0.42667 -0.32,-0.10667 -0.21334,-0.21334 -0.32,-0.42667 z m -233.49334,0 c 0.10667,-0.10667 0.32,0.42667 -0.10666,0.32 -0.10667,0 0.10666,-0.32 0.10666,-0.32 z m 1.38667,0 c 0.10667,-0.10667 0.32,0.42667 -0.10667,0.32 -0.10666,0 0.10667,-0.32 0.10667,-0.32 z m 233.38667,0 c 0.10666,-0.10667 0.32,0.42667 -0.10667,0.32 -0.10667,0 0.10667,-0.32 0.10667,-0.32 z m 1.38666,0 c 0.10667,-0.10667 0.32,0.42667 -0.10666,0.32 -0.10667,0 0.10666,-0.32 0.10666,-0.32 z m -237.54666,0.10667 c 0,0 0.10666,0.10666 0.10666,0.21333 -0.10666,0 -0.10666,0 -0.21333,-0.10667 0,-0.10666 0.10667,-0.10666 0.10667,-0.10666 z m 234.77333,0 c 0,0 0,0.10666 0,0.21333 -0.10667,0 -0.10667,0 -0.10667,-0.10667 0,-0.10666 0.10667,-0.10666 0.10667,-0.10666 z m -236.26667,0 c 0,0 0.10667,0 0.10667,0 0,0 0,0.10666 0,0.10666 -0.10667,0 -0.10667,0 -0.21333,-0.10666 0,0 0.10666,0 0.10666,-0.10667 z m 234.77334,0 c 0,0 0,0 0,0 0,0 0,0.10666 0,0.10666 -0.10667,0 -0.10667,0 -0.10667,-0.10666 0,0 0.10667,0 0.10667,-0.10667 z m -232.32,0 c 0,0 0,0 0.10666,0 0,0 0,0 0,0.10666 0,0 0,0 0,-0.10666 z m 1.49333,0 c 0,0.21333 -0.10667,0.21333 -0.32,0.21333 v -0.10667 c 0.10667,-0.10666 0.21333,-0.10666 0.32,-0.21333 z m 233.28,0 c 0,0 0,0 0.10667,0 0,0 0,0 0,0.10666 0,0 0,0 0,-0.10666 z m 1.49333,0 c 0,0.21333 -0.10666,0.21333 -0.32,0.21333 v -0.10667 c 0.10667,-0.10666 0.21334,-0.10666 0.32,-0.21333 z M 115.52,382.08 c 0,0 0,0 0,0.10667 0,0 -0.10667,0 -0.21333,-0.10667 0,0 0.10666,0 0.10666,0 z m 1.38667,0 c 0,0 0,0 0,0.10667 0,0 -0.10667,0 -0.10667,-0.10667 0,0 0.10667,0 0.10667,0 z m 233.38666,0 c 0,0 0,0 0,0.10667 0,0 -0.10666,0 -0.10666,-0.10667 0,0 0.10666,0 0.10666,0 z m 1.38667,0 c 0,0 0,0 0,0.10667 0,0 -0.10667,0 -0.10667,-0.10667 0,0 0.10667,0 0.10667,0 z m -229.54667,0.42667 c 0.10667,0 0.10667,0.10666 0.10667,0.21333 l -0.10667,-0.10667 0.10667,-0.10666 z m 234.77334,0 c 0.10666,0 0.10666,0.10666 0.10666,0.21333 l -0.10666,-0.10667 0.10666,-0.10666 z M 113.6,382.61333 c 0,0 0.10667,0.10667 0.10667,0.21334 0,0 -0.10667,-0.10667 -0.10667,-0.10667 0,0 0.10667,0 0.10667,-0.10667 z m 234.77333,0 c 0,0 0.10667,0.10667 0.10667,0.21334 0,0 -0.10667,-0.10667 -0.10667,-0.10667 0,0 0.10667,0 0.10667,-0.10667 z M 37.013333,398.50667 c 0,0 0,0.32 0,0.42666 -0.32,0.10667 -0.106666,-0.32 0,-0.42666 z m 69.119997,1.06666 c 0,0 0,0.74667 -0.10666,0.74667 -0.21334,0 0,-0.32 0,-0.42667 l 0.10666,-0.21333 z m 234.77334,0 c 0,0 0,0.74667 -0.10667,0.74667 -0.21333,0 0,-0.32 0,-0.42667 L 340.90667,399.68 Z M 20.373333,404.16 c 0.32,0 0.64,0 0.64,0.10667 0,0.10666 -0.426666,0.21333 -0.853333,0.10666 0,-0.10666 0,-0.10666 0,-0.21333 0,0 0,0 -0.106667,0 0.106667,0 0.106667,0 0.32,0 z M 104.32,404.90667 c 0,0 0.10667,0 0.10667,0 0,0.10666 -0.10667,0.21333 -0.10667,0.32 -0.10667,0.10666 -0.10667,-0.32 -0.10667,-0.21334 0,0 0,0 0.10667,-0.10666 z M 19.52,405.44 c 0.106667,0 0.106667,0 0.213333,0.10667 0.213334,0.10666 0.106667,0.74666 0,1.17333 -0.213333,-0.42667 -0.426666,-0.85333 -0.426666,-1.06667 0.106666,-0.10666 0.106666,-0.10666 0.32,-0.21333 z m 45.653333,1.6 c 0,0 0.106667,0 0.106667,0 0.106667,0.10667 0,0.10667 -0.106667,0 0,0 0,-0.10667 0,-0.10667 z m 234.773337,0 c 0,0 0.10666,0 0.10666,0 0.10667,0.10667 0,0.10667 -0.10666,0 0,0 0,-0.10667 0,-0.10667 z m 249.06666,1.70667 v 0.10666 c 0,0.64 0,1.28 0,1.92 0,0.10667 0.10667,0.32 0.10667,0.53334 -0.21333,0 -0.42667,0 -0.85333,0.32 -0.32,-0.32 -0.64,-0.64 -1.38667,0 0,0 0,-0.10667 0,-0.10667 0.21333,-0.85333 0.10667,-0.96 0.85333,-1.49333 0.53334,-0.32 0.85334,-0.85334 1.28,-1.28 z M 110.08,411.2 c 0,0.32 0,0.74667 0.21333,1.06667 0.10667,0.21333 0.32,0.42666 0.42667,0.74666 -0.42667,-0.32 -0.96,-0.74666 -1.06667,-1.06666 C 109.54667,411.73333 109.76,411.52 110.08,411.2 Z m 423.46667,14.18667 c 0.10666,0.21333 0.10666,0.32 0.21333,0.53333 0.21333,0.32 0.64,0.64 0.74667,0.85333 0.53333,1.17334 0,2.02667 -0.42667,3.2 -0.53333,1.70667 -0.85333,3.41334 -1.06667,5.12 -0.10666,0.53334 -0.21333,2.02667 -0.64,2.56 0.32,-2.77333 0.74667,-5.54666 0.96,-8.42666 0.10667,-1.06667 0.10667,-2.13334 0.10667,-3.2 0,-0.10667 0.10667,-0.32 0.10667,-0.64 z m -369.49334,0.74666 c 0,0.10667 0,0.21334 0,0.32 -0.10666,0.74667 0.10667,1.49334 0.21334,2.34667 -0.32,-0.32 -0.74667,-0.64 -0.74667,-1.17333 0,-0.64 0.21333,-1.06667 0.53333,-1.49334 z m 234.77334,0 c 0,0.10667 0,0.21334 0,0.32 -0.10667,0.85334 0.10666,1.6 0.21333,2.34667 -0.32,-0.32 -0.74667,-0.64 -0.74667,-1.17333 0,-0.64 0.21334,-1.06667 0.53334,-1.49334 z m -282.56,2.88 c 0.10666,0.10667 0.21333,0.10667 0.32,0.10667 0.96,0.32 1.06666,0.32 0.42666,1.17333 -0.32,0.53334 -0.42666,1.06667 -0.53333,1.6 0,-0.96 -0.21333,-1.92 -0.21333,-2.88 z m 282.88,1.38667 c -0.21334,1.06667 -0.74667,2.24 -0.21334,3.30667 0.53334,1.06666 -0.42666,2.34666 -0.21333,3.52 0,0.10666 0,0.21333 0.10667,0.32 -0.10667,-0.32 -0.10667,-0.53334 -0.21334,-0.96 -0.21333,-0.53334 0.10667,-0.85334 0,-1.38667 -0.21333,-0.96 -0.10666,-2.13333 -0.21333,-3.2 0,-0.64 0.42667,-1.06667 0.85333,-1.6 z m -234.88,0.10667 c -0.21334,1.06666 -0.74667,2.24 -0.21334,3.2 0.53334,1.06666 -0.42666,2.34666 -0.21333,3.52 0,0.10666 0,0.21333 0,0.32 -0.10667,-0.32 -0.21333,-0.53334 -0.32,-0.96 -0.21333,-0.53334 0.10667,-0.85334 0,-1.38667 -0.21333,-0.96 -0.10667,-2.13333 -0.21333,-3.2 0,-0.64 0.42666,-1.06667 0.85333,-1.49333 z m 39.25333,2.88 c 1.06667,0.21333 1.92,0.53333 2.98667,0.74666 -0.10667,0.85334 -0.32,1.6 -0.42667,2.56 -0.10667,0.96 0,1.92 -0.21333,2.88 -0.21334,0.85334 -0.64,1.38667 -0.74667,2.13334 -0.21333,0.74666 -0.32,1.6 -0.21333,2.66666 0,0.21334 0,0.32 0,0.53334 C 204.8,444.69333 204.8,444.48 204.8,444.16 c -0.21333,-1.06667 -0.32,-2.24 -0.42667,-3.2 -0.10666,-0.85333 0.10667,-1.6 0.10667,-2.13333 0.21333,-1.38667 -0.21333,-2.45334 -0.53333,-3.52 -0.10667,-0.53334 -0.64,-1.17334 -0.32,-1.70667 z m 234.77333,0 c 1.06667,0.21333 1.92,0.53333 2.98667,0.74666 -0.10667,0.85334 -0.42667,1.6 -0.53333,2.56 -0.10667,0.96 0,1.92 -0.21334,2.88 -0.21333,0.85334 -0.64,1.38667 -0.74666,2.13334 -0.21334,0.74666 -0.32,1.6 -0.21334,2.66666 0,0.21334 0,0.42667 0,0.64 -0.10666,-0.21333 -0.10666,-0.53333 -0.21333,-0.74666 -0.21333,-1.06667 -0.32,-2.24 -0.42667,-3.2 -0.10666,-0.85334 0.10667,-1.6 0.10667,-2.13334 0.21333,-1.38666 -0.21333,-2.45333 -0.53333,-3.52 -0.10667,-0.53333 -0.64,-1.17333 -0.32,-1.70666 z"/>
    <path style="fill:#efebe0;stroke-width:1.06666672" inkscape:connector-curvature="0" id="path58" d="m 152.74667,397.33333 c -0.85334,0 -1.70667,0.21334 -2.56,0.53334 -1.28,0.53333 -2.34667,1.38666 -3.41334,2.34666 -0.21333,0.21334 -2.02666,2.34667 -2.02666,2.34667 -0.85334,0 -1.70667,3.30667 -1.81334,4.16 0,1.17333 0.21334,2.34667 0.32,3.52 0.10667,0.96 -0.42666,1.28 -0.42666,2.24 -0.10667,3.84 2.56,6.08 3.84,9.38667 1.49333,3.84 0.32,5.12 -3.41334,6.18666 -3.94666,1.17334 -7.78666,2.98667 -11.73333,4.16 -1.38667,-6.82666 0.32,-15.36 -4.26667,-21.22666 -3.73333,-4.69334 -11.52,-5.76 -14.61333,0.32 -1.38667,2.77333 -1.6,6.18666 -2.02667,9.17333 -0.53333,3.94667 -1.06666,7.89333 -1.06666,11.84 0,3.2 -0.85334,3.52 -4.16,3.94667 -1.49334,0.21333 -2.02667,0.10666 -2.77334,-1.28 C 101.86667,433.92 101.44,432.96 100.26667,432.21333 97.28,430.50667 90.666667,431.25333 89.6,427.52 c -0.32,-1.28 -0.64,-2.24 -0.426667,-3.62667 0.213334,-1.92 1.28,-2.13333 2.24,-3.62666 1.92,-2.98667 -0.213333,-5.76 -0.32,-8.64 -0.106666,-8.21334 -11.306666,-10.66667 -16.96,-6.29334 -3.2,2.45334 -3.413333,6.50667 -3.413333,10.13334 -0.106667,3.30666 -0.32,7.78666 1.386667,10.77333 1.173333,2.13333 2.026666,2.02667 1.706666,4.58667 -0.426666,0.64 -2.986666,2.34666 -3.733333,2.45333 -0.853333,0.21333 -1.6,-0.10667 -2.453333,-0.10667 -1.28,0 -2.346667,0.74667 -3.52,0.96 -1.28,-0.42666 -4.48,1.06667 -5.226667,2.02667 0.106667,-6.18667 0.426667,-14.18667 -3.84,-19.2 -2.026667,-2.45333 -4.48,-3.52 -7.68,-3.94667 -1.6,-0.21333 -2.026667,0.32 -3.2,1.06667 -0.64,0.42667 -1.493333,0.10667 -2.24,0.53333 -0.746667,0.53334 -1.173333,1.70667 -1.92,2.45334 -2.88,2.77333 -3.2,5.97333 -4.8,9.38666 -0.64,1.49334 0,3.73334 -0.106667,5.33334 C 34.88,433.81333 34.88,435.73333 34.56,437.65333 c -0.213333,1.06667 -1.92,1.28 -2.666667,1.81334 -1.28,0.74666 -2.026666,-1.38667 -3.626666,-0.53334 -1.493334,0.85334 -6.08,0.96 -7.466667,-0.21333 -0.533333,-0.42667 -0.746667,-1.38667 -1.28,-2.02667 -0.213333,-0.32 -1.066667,-2.34666 -0.96,-2.24 -1.066667,-0.32 -1.6,-2.56 -2.453333,-3.52 -1.493334,-1.70666 -0.64,-1.70666 -0.106667,-3.62666 0.426667,-1.49334 -0.64,-2.13334 -0.96,-3.41334 -0.32,-1.38666 -0.533333,-2.77333 -1.28,-3.94666 -1.813333,-2.88 -6.72,-5.54667 -10.24,-3.84 -1.28,0.64 -2.56,1.28 -3.52,2.13333 V 496 h 586.66667 v -49.06667 c -0.53334,-0.32 -1.06667,-0.64 -1.6,-0.74666 0.21333,-0.10667 0.42666,-0.32 0.64,-0.42667 -2.13334,0.96 -3.09334,-2.45333 -3.94667,-3.73333 -1.17333,-1.70667 -2.02667,-3.09334 -1.92,-5.33334 0.21333,-4.58666 -0.64,-8.85333 -1.70667,-13.33333 -1.06666,-4.37333 -5.54666,-14.08 -11.41333,-13.54667 -2.02667,0.21334 -5.22667,-0.42666 -6.72,1.49334 -0.64,0.74666 -2.02667,1.49333 -2.45333,2.45333 -0.53334,1.17333 -0.85334,2.34667 -1.28,3.62667 -1.49334,4.69333 -1.6,8.74666 -0.53334,13.65333 0.21334,0.74667 1.70667,6.82667 0.96,7.04 -1.49333,0.64 -1.70666,0.85333 -3.09333,0.32 -3.94667,-1.6 -8.10667,-3.62667 -11.73333,-5.86667 -3.30667,-2.02666 -6.18667,-4.8 -4.69334,-8.85333 1.70667,3.09333 3.62667,-2.02667 3.84,-3.2 0.53334,-2.98667 0.74667,-6.18667 0.32,-9.28 -0.96,-7.46667 -8.85333,-14.18667 -16.74666,-11.73333 -3.52,1.17333 -6.72,3.62666 -8.42667,6.93333 -2.02667,4.16 -1.38667,8.53333 -0.42667,12.8 0.42667,1.81333 1.17334,3.73333 2.45334,5.12 1.38666,1.38667 1.38666,2.02667 1.70666,4.05333 -1.81333,2.56 -4.05333,4.05334 -7.04,5.12 -0.53333,-2.77333 -1.49333,-5.76 -4.48,-6.4 -3.41333,-0.74666 -6.93333,-1.28 -10.34666,-1.81333 -1.38667,-0.21333 -9.17334,-1.17333 -8.53334,-3.30667 0.10667,-0.32 0.74667,-3.52 0.85334,-3.52 1.17333,0.53334 1.6,-3.41333 1.6,-3.84 0.10666,-2.13333 -0.85334,-3.84 -0.21334,-5.97333 0.85334,-1.17333 -0.32,-3.84 -0.74666,-5.01333 -0.53334,-1.38667 -2.45334,-2.02667 -3.52,-2.98667 -2.34667,-2.13333 -7.57334,-0.85333 -9.92,0.42667 -1.6,0.85333 -2.34667,3.09333 -2.34667,4.8 0,0.85333 0.21333,3.73333 -0.32,4.48 0,0.10666 -0.85333,-0.42667 -0.96,-0.42667 -0.96,0 -0.85333,1.81333 -0.74667,2.34667 0.10667,1.17333 0.21334,2.34666 0.53334,3.41333 0.32,1.06667 1.81333,1.06667 1.92,1.6 0.53333,3.52 0.64,7.14667 -3.2,8.64 -4.05334,1.28 -8.85334,1.38667 -12.58667,3.30667 -2.66667,-0.85334 -5.12,-1.92 -7.78667,-2.56 -1.49333,-1.38667 -2.45333,-2.45334 -3.41333,-4.16 0,0.10666 0,0.21333 0,0.32 -0.10667,-1.49334 -0.21333,-2.88 -0.10667,-4.37334 0.10667,-1.28 0.10667,-1.92 0.85334,-2.98666 0.64,-0.85334 0.85333,-1.70667 0.85333,-2.77334 0.10667,-0.96 0.10667,-1.92 0,-2.88 -0.21333,-1.17333 -1.06667,-1.70666 -1.38667,-2.77333 -0.21333,-0.64 -0.21333,-1.28 -0.42666,-1.92 -1.06667,-3.84 -3.73334,-5.76 -7.46667,-6.93333 -2.24,-0.64 -4.58667,-1.06667 -6.82667,-0.10667 -1.28,0.53333 -2.45333,1.38667 -3.41333,2.34667 -0.21333,0.21333 -1.92,2.34666 -1.92,2.34666 -0.85333,0 -1.70667,3.30667 -1.81333,4.16 0,1.17334 0.21333,2.34667 0.32,3.52 0.10666,0.96 -0.42667,1.28 -0.53334,2.24 -0.10666,3.84 2.56,6.08 3.84,9.38667 1.49334,3.84 0.32,5.12 -3.41333,6.18667 -3.94667,1.17333 -7.78667,2.98666 -11.84,4.16 -1.38667,-6.82667 0.32,-15.36 -4.26667,-21.22667 -3.73333,-4.69333 -11.52,-5.76 -14.61333,0.32 -1.38667,2.77333 -1.6,6.18667 -2.02667,9.17333 -0.53333,3.94667 -1.06666,7.89334 -1.06666,11.84 0,3.2 -0.85334,3.52 -4.16,3.94667 -1.49334,0.21333 -1.92,0.10667 -2.66667,-1.28 -0.74667,-1.06667 -1.17333,-2.02667 -2.34667,-2.77333 -2.98666,-1.70667 -9.6,-0.96 -10.66666,-4.69334 -0.32,-1.28 -0.64,-2.24 -0.42667,-3.62666 0.21333,-1.92 1.28,-2.13334 2.24,-3.62667 1.92,-2.98667 -0.21333,-5.76 -0.32,-8.64 -0.10667,-8.21333 -11.30667,-10.66667 -16.96,-6.29333 -3.2,2.45333 -3.41333,6.50666 -3.41333,10.13333 -0.10667,3.30667 -0.32,7.78667 1.38666,10.77333 1.17334,2.13334 2.02667,2.02667 1.70667,4.58667 -0.42667,0.64 -2.98667,2.34667 -3.73333,2.45333 -0.85334,0.21334 -1.6,-0.10666 -2.45334,-0.10666 -1.28,0 -2.34666,0.74666 -3.52,0.96 -1.28,-0.42667 -4.37333,1.06666 -5.22666,2.02666 0.10666,-6.18666 0.42666,-14.18666 -3.94667,-19.2 -2.02667,-2.45333 -4.48,-3.52 -7.68,-3.94666 -1.6,-0.21334 -2.02667,0.32 -3.2,1.06666 -0.64,0.42667 -1.49333,0.10667 -2.13333,0.53334 -0.74667,0.53333 -1.28,1.70666 -1.92,2.45333 -2.88,2.77333 -3.2,5.97333 -4.8,9.49333 -0.64,1.49334 0,3.73334 -0.10667,5.33334 -0.21333,2.02666 -0.21333,3.94666 -0.53333,5.86666 -0.21334,1.06667 -1.92,1.28 -2.66667,1.81334 -1.28,0.74666 -2.02667,-1.38667 -3.73333,-0.53334 -1.49334,0.85334 -6.08,0.96 -7.46667,-0.21333 -0.53333,-0.42667 -0.74667,-1.38667 -1.28,-2.02667 -0.21333,-0.32 -1.06667,-2.34666 -0.96,-2.24 -1.06667,-0.32 -1.70667,-2.56 -2.45333,-3.52 -1.49334,-1.70666 -0.64,-1.70666 -0.10667,-3.62666 0.42667,-1.49334 -0.64,-2.13334 -0.96,-3.41334 -0.32,-1.38666 -0.42667,-2.77333 -1.28,-3.94666 -0.96,-1.6 -2.88,-3.09334 -5.01333,-3.84 -2.02667,-3.52 -5.01334,-6.72 -8.42667,-6.4 -2.02667,0.21333 -5.22667,-0.42667 -6.72,1.38666 -0.64,0.74667 -2.02667,1.6 -2.45333,2.45334 -0.53334,1.17333 -0.85334,2.34666 -1.28,3.62666 -1.49334,4.69334 -1.6,8.74667 -0.42667,13.65334 0.21333,0.74666 1.70667,6.72 0.96,7.04 -1.49333,0.64 -1.6,0.85333 -3.09333,0.32 -3.94667,-1.6 -8.10667,-3.62667 -11.73334,-5.86667 -3.30666,-2.02667 -6.18666,-4.8 -4.69333,-8.85333 1.70667,3.09333 3.62667,-2.13334 3.84,-3.2 0.53333,-2.98667 0.74667,-6.18667 0.32,-9.28 C 257.92,403.84 250.02667,397.12 242.13333,399.68 c -3.52,1.17333 -6.72,3.62667 -8.42666,6.93333 -2.02667,4.16 -1.38667,8.53334 -0.53334,12.8 0.42667,1.81334 1.28,3.73334 2.56,5.12 1.38667,1.38667 1.38667,2.02667 1.70667,4.05334 -1.81333,2.56 -4.05333,4.05333 -7.14667,5.12 -0.53333,-2.77334 -1.38666,-5.76 -4.48,-6.4 -3.41333,-0.74667 -6.93333,-1.28 -10.45333,-1.92 -1.38667,-0.21334 -9.28,-1.17334 -8.53333,-3.30667 0.10666,-0.32 0.74666,-3.62667 0.85333,-3.52 1.17333,0.53333 1.6,-3.30667 1.6,-3.73333 0.10667,-2.13334 -0.85333,-3.84 -0.21333,-5.97334 0.85333,-1.17333 -0.32,-3.84 -0.74667,-4.90666 -0.53333,-1.38667 -2.45333,-2.02667 -3.52,-2.98667 -2.34667,-2.13333 -7.57333,-0.85333 -9.92,0.42667 -1.6,0.85333 -2.45333,3.09333 -2.45333,4.8 0,0.85333 0.21333,3.73333 -0.32,4.48 0,0.10666 -0.85334,-0.42667 -0.96,-0.42667 -0.96,0 -0.74667,1.81333 -0.74667,2.34667 0.10667,1.17333 0.10667,2.34666 0.42667,3.41333 0.32,1.06667 1.81333,1.06667 1.92,1.6 0.53333,3.52 0.64,7.14667 -3.2,8.64 -4.05334,1.28 -8.74667,1.38667 -12.58667,3.30667 -2.66667,-0.85334 -5.12,-1.92 -7.89333,-2.56 -1.49334,-1.38667 -2.45334,-2.45334 -3.41334,-4.16 0,0.10666 0,0.21333 0,0.32 -0.10666,-1.49334 -0.21333,-2.88 -0.10666,-4.37334 0.10666,-1.28 0.10666,-1.81333 0.85333,-2.88 0.64,-0.85333 0.85333,-1.70666 0.85333,-2.77333 0.10667,-0.96 0.10667,-1.92 0,-2.88 -0.21333,-1.17333 -1.06666,-1.70667 -1.38666,-2.77333 -0.21334,-0.64 -0.21334,-1.28 -0.32,-1.92 -1.06667,-3.84 -3.73334,-5.76 -7.46667,-6.93334 -1.38667,-0.42666 -2.88,-0.74666 -4.26667,-0.74666 z"/>
  </g></svg>