<svg
   xmlns:dc="http://purl.org/dc/elements/1.1/"
   xmlns:cc="http://creativecommons.org/ns#"
   xmlns:rdf="http://www.w3.org/1999/02/22-rdf-syntax-ns#"
   xmlns:svg="http://www.w3.org/2000/svg"
   xmlns="http://www.w3.org/2000/svg"
   xmlns:xlink="http://www.w3.org/1999/xlink"
   xmlns:sodipodi="http://sodipodi.sourceforge.net/DTD/sodipodi-0.dtd"
   xmlns:inkscape="http://www.inkscape.org/namespaces/inkscape"
   version="1"
   width="746.66669"
   height="496"
   id="svg2"
   inkscape:version="0.92.4 (5da689c313, 2019-01-14)"
   sodipodi:docname="sprite.svg"
   inkscape:export-filename="/home/huntingbears/Desarrollo/luisalejandro.github.io/static/img/site/sprite.png"
   inkscape:export-xdpi="90"
   inkscape:export-ydpi="90"><g xmlns="http://www.w3.org/2000/svg" style="display:none" id="g173" clip-path="url(#SVGID_12_)" transform="matrix(0.16666666,0,0,0.16666666,-13.630739,-70.308823)">
    <path style="clip-rule:evenodd;display:inline;fill:#841b1e;fill-rule:evenodd" inkscape:connector-curvature="0" id="path161" d="m 848.439,40.494 c 43.129,0.803 55.189,34.125 47.912,73.027 -1.7,9.077 -3.246,18.25 1.146,26.712 4.202,8.102 -6.982,8.447 -10.883,8.799 h -79.049 c -3.359,-0.012 -11.196,0.517 -12.577,-3.576 -0.981,-2.917 1.585,-6.723 2.922,-11.922 2.138,-8.312 -0.374,-17.854 -1.092,-26.391 -3.086,-36.803 6.615,-65.888 49.078,-66.648 0.851,-0.014 1.691,-0.016 2.543,-10e-4 z" display="inline"/>
    <path style="clip-rule:evenodd;display:inline;fill:#841b1e;fill-rule:evenodd" inkscape:connector-curvature="0" id="path163" d="m 870.713,139.555 -47.137,0.003 -2.47,9.499 c -15.549,7.388 -48.799,17.28 -51.721,34.626 l -7.42,44.148 h 170.353 l -7.423,-44.148 c -2.916,-17.346 -36.167,-27.238 -51.715,-34.624 z" display="inline"/>
    <path style="clip-rule:evenodd;display:inline;fill:#d22b31;fill-rule:evenodd" inkscape:connector-curvature="0" id="path165" d="m 822.46,156.228 5.087,-4.908 c 1.78,1.27 3.669,2.476 5.653,3.637 10.563,6.187 16.102,6.157 26.652,-0.029 2.794,-1.641 5.337,-3.355 7.643,-5.162 l 4.414,6.394 -16.045,17.846 h -17.442 z" display="inline"/>
    <path style="clip-rule:evenodd;display:inline;fill:#d22b31;fill-rule:evenodd" inkscape:connector-curvature="0" id="path167" d="m 814.352,112.159 c -1.431,-11.111 11.151,-14.12 19.377,-16.879 8.801,-2.954 19.541,-6.56 29.926,-13.983 3.178,-2.269 5.673,-3.091 7.682,2.762 1.094,3.195 1.742,7.358 3.624,9.646 1.381,1.685 2.354,0.302 3.357,-1.605 1.067,-2.017 2.275,-3.223 3.447,-3.223 2.779,0 4.33,6.73 3.47,15.03 -0.867,8.3 -3.818,15.033 -6.596,15.033 -0.523,0.024 -0.723,0.077 -0.827,0.625 -0.895,4.606 -2.243,8.786 -3.928,11.965 -4.104,7.754 -10.793,13.915 -20.491,19.177 -4.574,2.688 -9.041,2.688 -13.617,0 -5.605,-3.04 -12.318,-7.619 -16.146,-12.816 -3.744,-1.309 -7.304,-2.974 -10.723,-5.082 -2.408,-1.256 -3.076,-3.667 -3.216,-4.3 8.171,5.825 17.283,8.802 27.209,10.255 0.713,1.802 2.478,3.2 4.591,3.2 h 10.446 c 6.573,0 6.573,-10.648 0,-10.648 H 841.49 c -1.869,0 -3.268,1.149 -4.112,2.635 -6.862,-1.027 -14.043,-3.303 -19.796,-6.276 -1.782,-4.808 -2.819,-10.408 -3.23,-15.516 z" display="inline"/>
    <polygon style="clip-rule:evenodd;display:inline;fill:#d22b31;fill-rule:evenodd" id="polygon169" points="905.928,230.553 910.729,178.069 907.638,172.716 786.645,172.716 783.554,178.069 788.354,230.505 788.354,251.079 905.928,251.079 " display="inline"/>
    <path style="clip-rule:evenodd;display:inline;fill:#841b1e;fill-rule:evenodd" inkscape:connector-curvature="0" id="path171" d="m 795.209,239.748 h 103.866 v 7.146 H 795.209 Z m 0,-3.273 h 103.866 c 1.758,-19.22 3.518,-38.439 5.274,-57.657 l -114.415,-0.003 c 1.76,19.22 3.515,38.44 5.275,57.66 z" display="inline"/>
  </g></svg>