<svg
   xmlns:dc="http://purl.org/dc/elements/1.1/"
   xmlns:cc="http://creativecommons.org/ns#"
   xmlns:rdf="http://www.w3.org/1999/02/22-rdf-syntax-ns#"
   xmlns:svg="http://www.w3.org/2000/svg"
   xmlns="http://www.w3.org/2000/svg"
   xmlns:xlink="http://www.w3.org/1999/xlink"
   xmlns:sodipodi="http://sodipodi.sourceforge.net/DTD/sodipodi-0.dtd"
   xmlns:inkscape="http://www.inkscape.org/namespaces/inkscape"
   version="1"
   width="746.66669"
   height="496"
   id="svg2"
   inkscape:version="0.92.4 (5da689c313, 2019-01-14)"
   sodipodi:docname="sprite.svg"
   inkscape:export-filename="/home/huntingbears/Desarrollo/luisalejandro.github.io/static/img/site/sprite.png"
   inkscape:export-xdpi="90"
   inkscape:export-ydpi="90"><g xmlns="http://www.w3.org/2000/svg" id="g990">
    <path id="fa-tumblr-1-6-8-3" d="m 77.29213,31.999998 c -2.24209,0 -4.1323,0.795111 -5.70532,2.366667 -1.57302,1.578666 -2.36887,3.46711 -2.36887,5.7 0,0.597333 0.0649,1.233777 0.20018,1.866666 -3.30264,-0.163556 -6.41176,-1.006666 -9.30869,-2.5 -2.88981,-1.493333 -5.31874,-3.484888 -7.34019,-5.966666 -0.73312,1.251555 -1.10102,2.601778 -1.10102,4.066666 0,1.386667 0.31986,2.686222 0.96757,3.866667 0.64771,1.187555 1.49918,2.134222 2.60243,2.866667 -1.30255,-0.04978 -2.50501,-0.367112 -3.63673,-1 v 0.1 c 0,1.955555 0.61079,3.661333 1.83505,5.133333 1.22425,1.472 2.76569,2.382667 4.63766,2.766667 -0.69754,0.184888 -1.38308,0.3 -2.10197,0.3 -0.46976,0 -0.9867,-0.048 -1.53476,-0.133334 0.51248,1.621334 1.44802,2.928445 2.83598,3.966667 1.38796,1.038221 2.95342,1.597778 4.70439,1.633333 -2.93962,2.296889 -6.25828,3.433334 -10.00934,3.433334 -0.71889,0 -1.38485,-0.036 -1.9685,-0.1 3.75817,2.417778 7.89181,3.633333 12.41158,3.633333 2.86846,0 5.55452,-0.456445 8.0742,-1.366667 2.51969,-0.910222 4.68615,-2.111555 6.47271,-3.633333 1.77944,-1.521778 3.30887,-3.282667 4.6043,-5.266667 1.29543,-1.976888 2.26922,-4.038222 2.90271,-6.2 0.63348,-2.154666 0.9342,-4.331112 0.9342,-6.5 0,-0.462222 -0.012,-0.798666 -0.0333,-1.033333 1.58726,-1.14489 2.95297,-2.531113 4.07047,-4.166667 v -0.03333 c -1.55167,0.668445 -3.11937,1.069778 -4.67103,1.233333 1.75097,-1.045333 2.95075,-2.513333 3.57,-4.433333 -1.6015,0.952888 -3.3231,1.618222 -5.13813,1.966667 -1.60149,-1.699556 -3.57089,-2.566667 -5.90551,-2.566667 z" style="fill:#999999;fill-opacity:1;stroke:none;stroke-width:1.06716478"/>
  </g></svg>