<svg
   xmlns:dc="http://purl.org/dc/elements/1.1/"
   xmlns:cc="http://creativecommons.org/ns#"
   xmlns:rdf="http://www.w3.org/1999/02/22-rdf-syntax-ns#"
   xmlns:svg="http://www.w3.org/2000/svg"
   xmlns="http://www.w3.org/2000/svg"
   xmlns:xlink="http://www.w3.org/1999/xlink"
   xmlns:sodipodi="http://sodipodi.sourceforge.net/DTD/sodipodi-0.dtd"
   xmlns:inkscape="http://www.inkscape.org/namespaces/inkscape"
   version="1"
   width="746.66669"
   height="496"
   id="svg2"
   inkscape:version="0.92.4 (5da689c313, 2019-01-14)"
   sodipodi:docname="sprite.svg"
   inkscape:export-filename="/home/huntingbears/Desarrollo/luisalejandro.github.io/static/img/site/sprite.png"
   inkscape:export-xdpi="90"
   inkscape:export-ydpi="90"><g xmlns="http://www.w3.org/2000/svg" id="g999">
    <path id="path157" d="m 152.21209,31.999994 c -1.43779,0 -2.81818,0.187555 -4.17056,0.6 -1.35237,0.412444 -2.54726,1.053778 -3.53663,1.9 -0.8043,0.689778 -1.40576,1.511555 -1.86841,2.5 -0.46265,0.988444 -0.70066,2.014221 -0.70066,3.066666 0,1.898667 0.63259,3.462667 1.93515,4.7 1.30254,1.237334 2.90404,1.866667 4.80448,1.866667 0.28472,0 0.74381,-0.01689 1.33458,-0.06667 -0.27048,0.625778 -0.43374,1.171112 -0.43374,1.633334 0,0.526221 0.101,0.987555 0.30028,1.4 0.1993,0.405333 0.52137,0.892888 0.9342,1.433333 -3.50193,0.227555 -6.09413,0.847555 -7.77392,1.9 -0.95377,0.590222 -1.69937,1.318222 -2.26878,2.2 -0.56942,0.881778 -0.86748,1.861778 -0.86748,2.9 0,0.910222 0.22376,1.732 0.70066,2.5 0.73313,1.230222 1.85595,2.126222 3.33644,2.666667 1.46626,0.533333 3.04373,0.8 4.73776,0.8 2.03568,0 3.95214,-0.360445 5.73869,-1.1 1.77944,-0.739556 3.11179,-1.902222 4.0371,-3.466667 0.61213,-1.066667 0.93421,-2.181333 0.93421,-3.333333 0,-1.002667 -0.2211,-1.915556 -0.63393,-2.733334 -0.41283,-0.817778 -0.8915,-1.488 -1.46803,-2 -0.57654,-0.519111 -1.1513,-0.973333 -1.73496,-1.4 -0.58366,-0.433778 -1.08857,-0.859111 -1.5014,-1.3 -0.41283,-0.440888 -0.63393,-0.904445 -0.63393,-1.366666 0,-0.433779 0.15393,-0.854222 0.46711,-1.266667 0.31317,-0.412445 0.71933,-0.823112 1.16775,-1.2 0.44842,-0.376889 0.89328,-0.778222 1.33458,-1.233333 0.4413,-0.455112 0.82122,-1.060445 1.13439,-1.8 0.31319,-0.732445 0.46711,-1.542222 0.46711,-2.466667 0,-1.152 -0.25001,-2.204 -0.73403,-3.1 -0.49111,-0.896 -1.22202,-1.722667 -2.16868,-2.533333 h 2.5357 l 2.63579,-1.7 z" style="fill:#999999;fill-opacity:1;stroke:none;stroke-width:1.06716478"/>
    <path id="path153" d="m 164.2233,41.233327 v 4.166667 h -4.07047 v 2.066666 h 4.07047 v 4.233334 h 2.03523 V 47.46666 h 4.10383 v -2.066666 h -4.10383 v -4.166667 z" style="fill:#999999;fill-opacity:1;stroke:none;stroke-width:1.06716478"/>
    <path id="path151" d="m 151.27789,52.16666 c 0.41284,0 0.72779,0.03822 0.9342,0.06667 0.0427,0.02845 0.27359,0.194222 0.70066,0.5 0.43418,0.305778 0.7011,0.488445 0.80074,0.566667 0.10677,0.07822 0.33765,0.275111 0.70066,0.566666 0.36301,0.291555 0.60589,0.517334 0.73401,0.666667 0.12812,0.149333 0.31809,0.368 0.5672,0.666667 0.24912,0.305778 0.43419,0.572444 0.53383,0.8 0.0926,0.234666 0.17438,0.494221 0.26692,0.8 0.0926,0.305778 0.13345,0.613333 0.13345,0.933333 0,0.796445 -0.17794,1.495555 -0.53382,2.1 -0.35589,0.604445 -0.81765,1.065778 -1.40131,1.4 -0.58366,0.334222 -1.21847,0.603111 -1.90178,0.766667 -0.6833,0.163555 -1.42132,0.233333 -2.16869,0.233333 -0.83278,0 -1.6313,-0.08178 -2.4356,-0.266667 -0.8043,-0.184888 -1.57615,-0.456445 -2.30215,-0.833333 -0.72601,-0.384 -1.3199,-0.917333 -1.76832,-1.6 -0.44842,-0.689778 -0.66729,-1.504 -0.66729,-2.4 0,-0.753778 0.1517,-1.436 0.50047,-2.033333 0.34878,-0.597334 0.80075,-1.044445 1.33458,-1.4 0.53383,-0.362667 1.15663,-0.672445 1.86841,-0.9 0.71177,-0.227556 1.39953,-0.374222 2.06859,-0.466667 0.66908,-0.09245 1.35906,-0.166667 2.03524,-0.166667 z" style="fill:#ffffff;fill-opacity:1;stroke:none;stroke-width:1.06716478"/>
    <path id="path155" d="m 149.27602,33.56666 c 0.81855,0 1.58548,0.273778 2.26878,0.8 0.67619,0.526222 1.19579,1.196445 1.60149,2 0.3986,0.796445 0.71356,1.606222 0.93422,2.466667 0.22065,0.853333 0.33364,1.653333 0.33364,2.4 0,1.308445 -0.351,2.334222 -1.0343,3.066667 -0.33453,0.341333 -0.75537,0.62 -1.26785,0.833333 -0.50153,0.208773 -0.98696,0.32887 -1.46804,0.333333 -0.66907,0 -1.29899,-0.165778 -1.8684,-0.5 -0.56943,-0.334222 -1.0432,-0.773778 -1.43468,-1.3 -0.39148,-0.526222 -0.72334,-1.105333 -1.00094,-1.766666 -0.27759,-0.661334 -0.5058,-1.338667 -0.63392,-2 -0.12812,-0.661334 -0.16683,-1.276445 -0.16683,-1.866667 0,-1.294222 0.29584,-2.312889 0.90085,-3.066667 0.32029,-0.426666 0.74825,-0.784445 1.26785,-1.033333 0.5196,-0.248889 1.02718,-0.366667 1.56813,-0.366667 z" style="fill:#ffffff;fill-opacity:1;stroke:none;stroke-width:1.06716478"/>
  </g></svg>