<svg
   xmlns:dc="http://purl.org/dc/elements/1.1/"
   xmlns:cc="http://creativecommons.org/ns#"
   xmlns:rdf="http://www.w3.org/1999/02/22-rdf-syntax-ns#"
   xmlns:svg="http://www.w3.org/2000/svg"
   xmlns="http://www.w3.org/2000/svg"
   xmlns:xlink="http://www.w3.org/1999/xlink"
   xmlns:sodipodi="http://sodipodi.sourceforge.net/DTD/sodipodi-0.dtd"
   xmlns:inkscape="http://www.inkscape.org/namespaces/inkscape"
   version="1"
   width="746.66669"
   height="496"
   id="svg2"
   inkscape:version="0.92.4 (5da689c313, 2019-01-14)"
   sodipodi:docname="sprite.svg"
   inkscape:export-filename="/home/huntingbears/Desarrollo/luisalejandro.github.io/static/img/site/sprite.png"
   inkscape:export-xdpi="90"
   inkscape:export-ydpi="90"><g xmlns="http://www.w3.org/2000/svg" id="g1023">
    <path id="path979" d="m 703.65102,149.33333 q 11.57705,0 21.34851,5.76 9.77146,5.76 15.50687,15.57334 5.73542,9.81333 5.73542,21.44 0,11.62666 -5.73542,21.44 -5.73541,9.81333 -15.50687,15.57333 -9.77146,5.76 -21.34851,5.76 -11.57705,0 -21.3485,-5.76 -9.77146,-5.76 -15.50688,-15.57333 -5.73543,-9.81334 -5.73543,-21.44 0,-11.62667 5.73543,-21.44 5.73542,-9.81334 15.50688,-15.57334 9.77145,-5.76 21.3485,-5.76 z" style="fill:#c2beb2;stroke-width:1.06666672"/>
    <path id="path977" d="m 718.83926,178.24 q -0.10624,0.10667 -0.53106,0.53333 -0.42484,0.42667 -0.74347,0.53334 0.10624,0 0.21241,-0.32 0.10624,-0.32 0.31864,-0.64 0.10624,-0.32 0.21242,-0.42667 0.31864,-0.42667 1.16833,-0.85333 0.74348,-0.32 2.8677,-0.64 1.91181,-0.42667 2.86772,0.64 -0.10624,-0.10667 0.53106,-0.74667 0.63727,-0.64 0.84968,-0.64 0.21243,-0.10667 0.8497,-0.21333 0.63727,-0.10667 0.8497,-0.42667 l 0.10624,-1.17333 q -0.63727,0.10666 -0.95591,-0.42667 -0.31863,-0.42667 -0.31863,-1.17333 0,0.10666 -0.31864,0.42666 0,-0.42666 -0.21242,-0.42666 -0.21242,0 -0.63727,0.10666 -0.42485,0.10667 -0.53105,0.10667 -0.53107,-0.21333 -0.8497,-0.42667 -0.31864,-0.21333 -0.42484,-0.96 -0.21243,-0.64 -0.21243,-0.85333 -0.10624,-0.32 -0.53105,-0.53333 -0.42485,-0.32 -0.53106,-0.53334 0,-0.10666 -0.10624,-0.32 -0.10624,-0.21333 -0.21243,-0.32 -0.10624,-0.21333 -0.21243,-0.32 -0.10624,-0.10666 -0.31863,-0.10666 -0.21242,0 -0.42484,0.32 -0.21243,0.32 -0.42485,0.53333 -0.21242,0.32 -0.21242,0.32 -0.21242,-0.10667 -0.31864,-0.10667 -0.21241,0 -0.21241,0.10667 -0.10624,0 -0.21243,0.21333 -0.21243,0.10667 -0.31863,0.21334 -0.21243,0.10666 -0.42485,0.21333 -0.31863,0.10667 -0.42485,0.10667 0.8497,-0.32 0,-0.64 -0.53105,-0.21334 -0.84969,-0.21334 0.53106,-0.21333 0.42485,-0.64 -0.10624,-0.42666 -0.42485,-0.74666 h 0.31864 q 0,-0.21334 -0.42485,-0.42667 -0.42485,-0.21333 -0.95591,-0.42667 -0.53105,-0.21333 -0.74348,-0.32 -0.42484,-0.32 -1.9118,-0.53333 -1.48696,-0.21333 -1.80559,0 -0.31864,0.32 -0.21243,0.53333 0,0.21334 0.21243,0.74667 0.21241,0.53333 0.21241,0.64 0.10624,0.32 -0.31863,0.74667 -0.31864,0.42666 -0.31864,0.64 0,0.42666 0.74349,0.85333 0.74348,0.42667 0.53105,1.17333 -0.21241,0.42667 -0.84968,0.85334 -0.74349,0.42666 -0.8497,0.64 -0.31863,0.42666 -0.10624,1.06666 0.21242,0.53334 0.53105,0.96 0.10624,0.10667 0.10624,0.21334 0,0.10666 -0.21242,0.21333 -0.21243,0.10667 -0.31864,0.21333 -0.10624,0.10667 -0.31863,0.21334 l -0.21242,0.10666 q -0.63727,0.32 -1.16833,-0.32 -0.53106,-0.64 -0.74348,-1.49333 -0.42485,-1.38667 -0.84969,-1.70667 -1.27454,-0.42666 -1.59318,0.10667 -0.31863,-0.74667 -2.23044,-1.49333 -1.38075,-0.53334 -3.18634,-0.21334 0.31864,0 0,-0.85333 -0.42485,-0.85333 -1.06212,-0.64 0.21243,-0.32 0.21243,-0.96 0.10624,-0.64 0.10624,-0.74667 0.21242,-0.74666 0.63727,-1.28 0.10624,0 0.42485,-0.42666 0.31864,-0.42667 0.53105,-0.74667 0.21243,-0.32 0,-0.32 1.91181,0.21333 2.76151,-0.64 0.31863,-0.32 0.63726,-0.96 0.31864,-0.64 0.53106,-0.96 0.53106,-0.32 0.74347,-0.32 0.31864,0 0.8497,0.32 0.53106,0.32 0.84969,0.32 0.74348,0.10667 0.84969,-0.64 0.10624,-0.64 -0.42484,-1.06667 0.63727,0.10667 0.21242,-0.96 -0.31863,-0.42666 -0.42485,-0.53333 -0.63727,-0.21333 -1.48695,0.32 -0.42486,0.21333 0.10624,0.42667 0,0 -0.53107,0.53333 -0.42484,0.64 -0.95589,0.96 -0.42485,0.32 -0.84969,-0.32 0,0 -0.31864,-0.74667 -0.21243,-0.64 -0.53106,-0.74666 -0.42484,0 -0.84969,0.85333 0.21242,-0.42667 -0.63727,-0.85333 -0.74347,-0.42667 -1.27453,-0.42667 1.06211,-0.64 -0.42485,-1.49333 -0.42485,-0.21334 -1.16833,-0.32 -0.74347,0 -1.06211,0.21333 -0.31863,0.42667 -0.31863,0.64 0,0.21333 0.31863,0.42667 0.31864,0.21333 0.53105,0.32 0.31864,0.10666 0.63727,0.21333 0.31864,0.10667 0.42485,0.21333 0.74348,0.53334 0.42485,0.74667 -0.10624,0.10667 -0.42485,0.21333 -0.31863,0.10667 -0.63727,0.21334 -0.31863,0.10666 -0.31863,0.21333 -0.21243,0.21333 0,0.74667 0.21242,0.53333 -0.10624,0.74666 -0.31863,-0.32 -0.53105,-0.96 -0.21243,-0.64 -0.42485,-0.96 0.42485,0.53334 -1.38075,0.32 h -0.53105 q -0.21243,0 -0.8497,0.10667 -0.63727,0.10667 -1.16833,0.10667 -0.42484,0 -0.74348,-0.42667 -0.21242,-0.42667 0,-1.06667 0.10624,-0.21333 0.21243,-0.10666 -0.21243,-0.21334 -0.63727,-0.53334 -0.42485,-0.32 -0.53106,-0.42666 -2.54908,0.85333 -5.20436,2.24 0.31863,0.10666 0.63727,0 0.31863,-0.10667 0.74347,-0.32 0.42486,-0.21334 0.53107,-0.32 1.9118,-0.74667 2.33665,-0.42667 l 0.31863,-0.32 q 0.74348,0.85333 1.06211,1.38667 -0.42484,-0.21334 -1.69938,0 -1.06211,0.32 -1.16832,0.64 0.42484,0.64 0.31864,0.96 -0.21243,-0.21334 -0.63727,-0.53334 -0.42486,-0.42666 -0.8497,-0.64 -0.42484,-0.21333 -0.84969,-0.32 -0.84969,0 -1.16832,0.10667 -8.07208,4.48 -12.95781,12.37333 0.42485,0.42667 0.63727,0.42667 0.21243,0.10667 0.31864,0.53333 0.10624,0.42667 0.10624,0.64 0.10624,0.21334 0.63727,-0.21333 0.53106,0.42667 0.21242,1.06667 0.10624,0 2.44287,1.49333 1.06211,0.96 1.16832,1.17333 0.21243,0.64 -0.53106,0.96 0,-0.10666 -0.53105,-0.53333 -0.42484,-0.42667 -0.53106,-0.21333 -0.21242,0.32 0,1.06666 0.21243,0.74667 0.53106,0.64 -0.42484,0 -0.53106,0.85334 -0.10624,0.85333 -0.10624,1.92 0,1.06666 0,1.28 l 0.10624,0.10666 q -0.21242,0.64 0.31863,1.92 0.42485,1.28 1.16833,1.06667 -0.74348,0.21333 1.06212,2.34667 0.31863,0.42666 0.42484,0.53333 0.21243,0.10667 0.63727,0.42667 0.53106,0.32 0.84969,0.53333 0.31864,0.21333 0.53107,0.53333 0.21241,0.32 0.53105,1.28 0.31863,0.96 0.74347,1.28 -0.10624,0.32 0.53106,1.06667 0.63727,0.74667 0.53107,1.28 0,0 -0.10624,0.10667 -0.10624,0.10666 -0.10624,0.10666 0.21242,0.42667 0.84969,0.74667 0.63727,0.42667 0.84969,0.74667 0.10624,0.21333 0.10624,0.53333 0.10624,0.42667 0.21241,0.64 0.10624,0.21333 0.42486,0.10667 0.10624,-1.06667 -1.27454,-3.41334 -0.8497,-1.38666 -0.95591,-1.6 -0.21242,-0.32 -0.31863,-0.85333 -0.10624,-0.53333 -0.21243,-0.85333 0.10624,0 0.31864,0.10666 0.21242,0.10667 0.42484,0.21334 0.21243,0.10666 0.42485,0.21333 0.21242,0.10667 0.10624,0.21333 -0.21242,0.42667 0.10624,0.96 0.31864,0.53334 0.63727,1.06667 0.42486,0.42667 0.95591,1.06667 0.53106,0.64 0.63727,0.74666 0.31863,0.32 0.74347,1.06667 0.42486,0.74667 0,0.74667 0.53106,0 1.06213,0.53333 0.63727,0.53333 0.9559,1.06667 0.31863,0.42666 0.42484,1.49333 0.21243,0.96 0.31864,1.28 0.10624,0.42667 0.42484,0.74667 0.31863,0.32 0.63727,0.53333 l 0.8497,0.42667 0.74347,0.42666 q 0.31864,0.10667 1.06211,0.53334 0.74349,0.42666 1.16834,0.64 0.53106,0.21333 0.84968,0.21333 0.31864,0 0.8497,-0.10667 0.42484,-0.10666 0.74347,-0.21333 0.8497,-0.10667 1.59318,0.85333 0.74349,0.96 1.16833,1.17334 2.01801,1.06666 3.08013,0.64 -0.10624,0.10666 0,0.42666 0.10624,0.32 0.42485,0.85334 0.31863,0.53333 0.53105,0.85333 0.21243,0.32 0.31863,0.42667 0.31864,0.32 0.95591,0.85333 0.74348,0.53333 0.9559,0.85333 0.31864,-0.21333 0.42485,-0.53333 -0.21242,0.42667 0.42485,1.06667 0.53105,0.64 0.9559,0.53333 0.74348,-0.21333 0.74348,-1.81333 -1.69938,0.85333 -2.7615,-0.96 0,0 -0.10624,-0.32 -0.10624,-0.21334 -0.21243,-0.42667 -0.10624,-0.21333 -0.10624,-0.42667 0,-0.21333 0,-0.42666 0.10624,-0.21334 0.31863,-0.21334 0.53107,0 0.53107,-0.21333 0.10624,-0.21333 -0.10624,-0.64 -0.21242,-0.53333 -0.21242,-0.74667 0,-0.42666 -0.63727,-1.06666 -0.53106,-0.64 -0.63727,-0.85334 -0.31863,0.53334 -0.8497,0.42667 -0.63726,0 -0.84968,-0.53333 0,0.10666 -0.10624,0.32 -0.10624,0.21333 -0.10624,0.32 -0.74348,0 -0.8497,0 0.10624,-0.21334 0.10624,-0.96 0.10624,-0.85334 0.21242,-1.28 0.10624,-0.21334 0.31863,-0.64 0.21243,-0.42667 0.42486,-0.85334 0.21241,-0.32 0.21241,-0.64 0.10624,-0.32 -0.21241,-0.53333 -0.31864,-0.21333 -0.95591,-0.10667 -1.06212,0.10667 -1.48696,1.06667 0,0.21333 -0.21243,0.53333 -0.10624,0.42667 -0.31863,0.64 -0.21242,0.21334 -0.53105,0.42667 -0.42485,0.21333 -1.27454,0.10667 -0.95591,0 -1.27454,-0.32 -0.74348,-0.42667 -1.27454,-1.6 -0.53105,-1.17334 -0.53105,-2.02667 0,-0.53333 0.10624,-1.49333 0.10624,-0.96 0.21242,-1.38667 0,-0.42667 -0.31863,-1.38667 0.21242,-0.10666 0.53105,-0.53333 0.31864,-0.42667 0.53106,-0.53333 0.10624,0 0.21242,-0.10667 0.10624,0 0.21243,0 0.10624,0 0.21242,-0.10667 0.10624,-0.10666 0.21242,-0.32 0,0 -0.21242,-0.21333 -0.21242,-0.21333 -0.21242,-0.21333 0.42484,0.21333 1.59317,-0.10667 1.16833,-0.21333 1.48696,0.10667 0.84969,0.64 1.16832,-0.10667 0,0 -0.10624,-0.53333 -0.10624,-0.42667 0,-0.74667 0.31864,1.49333 1.59318,0.53333 0.21241,0.21334 0.84968,0.32 0.63727,0.10667 0.95591,0.32 0.21242,0.10667 0.42484,0.32 0.21243,0.21334 0.31863,0.21334 0.10624,0.10666 0.31864,0 0.21243,-0.10667 0.42485,-0.32 0.53105,0.74666 0.63727,1.28 0.63727,2.24 1.06211,2.45333 0.42485,0.21333 0.63727,0.10667 0.21243,0 0.21243,-0.53334 0,-0.42666 0,-0.74666 0,-0.32 -0.10624,-0.64 v -0.42667 -0.96 -0.42667 q -0.84969,-0.21333 -1.06211,-0.64 -0.21243,-0.53333 0.10624,-1.06666 0.31863,-0.53334 0.84969,-1.06667 0.10624,0 0.42485,-0.21333 0.42485,-0.10667 0.84969,-0.32 0.42485,-0.21334 0.63727,-0.42667 1.16832,-1.06667 0.84969,-1.92 0.42485,0 0.63727,-0.53333 0,0 -0.31864,-0.21334 -0.21241,-0.21333 -0.42484,-0.32 -0.21243,-0.10666 -0.21243,-0.10666 0.53106,-0.32 0.10624,-0.85334 0.31864,-0.21333 0.42485,-0.64 0.10624,-0.42666 0.42484,-0.53333 0.53106,0.64 1.16833,0.10667 0.42484,-0.42667 0.10624,-0.85334 0.31863,-0.42666 1.16833,-0.53333 0.84968,-0.21333 1.06211,-0.53333 0.42484,0.10666 0.42484,-0.10667 0.10624,-0.21333 0.10624,-0.64 0,-0.42667 0.21242,-0.64 0.21243,-0.32 0.8497,-0.53333 0.63727,-0.21334 0.74347,-0.32 l 0.95591,-0.64 q 0.21242,-0.21334 0,-0.21334 0.9559,0.10667 1.69938,-0.64 0.53106,-0.64 -0.31864,-1.06666 0.21243,-0.32 -0.21241,-0.53334 -0.31864,-0.21333 -0.8497,-0.32 0.21243,0 0.63727,0 0.42484,0 0.53106,-0.10666 0.84969,-0.53334 -0.42485,-0.85334 -0.95589,-0.32 -2.33665,0.64 z" style="fill:#ffffff;stroke-width:1.06666672;fill-opacity:1"/>
    <path id="path60" d="m 709.81129,226.98667 q 11.36462,-2.02667 19.4367,-10.45334 -0.21243,-0.21333 -0.63727,-0.21333 -0.53106,-0.10667 -0.63727,-0.21333 -0.9559,-0.42667 -1.27454,-0.42667 0.10624,-0.42667 -0.10624,-0.74667 -0.21241,-0.32 -0.42484,-0.53333 -0.21243,-0.21333 -0.63727,-0.42667 -0.42484,-0.32 -0.63727,-0.42666 -0.10624,-0.10667 -0.42484,-0.32 -0.31864,-0.21334 -0.42484,-0.32 -0.10624,-0.10667 -0.42486,-0.21334 -0.31863,-0.21333 -0.42484,-0.10666 -0.21243,0.10666 -0.53106,0.10666 L 722.45043,212.8 q -0.21242,0.10667 -0.31863,0.10667 -0.10624,0.10666 -0.31864,0.21333 -0.21242,0.10667 -0.21242,0.21333 0,0.10667 0,0.10667 -1.16832,-0.96 -2.01802,-1.17333 -0.31863,0 -0.63727,-0.32 -0.31863,-0.21334 -0.53106,-0.42667 -0.21242,-0.10667 -0.53105,-0.10667 -0.31864,0.10667 -0.63727,0.42667 -0.31864,0.32 -0.31864,0.85333 0,0.53334 -0.10624,0.74667 -0.42484,-0.32 0,-0.96 0.42486,-0.64 0.10624,-1.06667 -0.21242,-0.32 -0.53106,-0.21333 -0.42484,0.10667 -0.63727,0.21333 -0.21241,0.21334 -0.63727,0.42667 -0.42484,0.32 -0.53105,0.32 -0.10624,0.10667 -0.42485,0.32 -0.31863,0.21333 -0.42484,0.42667 -0.21243,0.21333 -0.31864,0.64 -0.21242,0.42666 -0.31863,0.64 -0.10624,-0.21334 -0.63727,-0.32 -0.53106,-0.10667 -0.53106,-0.32 0.10624,0.53333 0.21242,1.92 0.10624,1.38666 0.31864,2.13333 0.42484,1.70667 -0.63727,2.66667 -1.48695,1.38666 -1.59317,2.24 -0.21242,1.17333 0.63727,1.49333 0,0.42667 -0.42485,1.17333 -0.42484,0.74667 -0.42484,1.17334 0,0.32 0.10624,0.85333 z" style="fill:#ffffff;stroke-width:1.06666672;fill-opacity:1"/>
  </g></svg>