<svg
   xmlns:dc="http://purl.org/dc/elements/1.1/"
   xmlns:cc="http://creativecommons.org/ns#"
   xmlns:rdf="http://www.w3.org/1999/02/22-rdf-syntax-ns#"
   xmlns:svg="http://www.w3.org/2000/svg"
   xmlns="http://www.w3.org/2000/svg"
   xmlns:xlink="http://www.w3.org/1999/xlink"
   xmlns:sodipodi="http://sodipodi.sourceforge.net/DTD/sodipodi-0.dtd"
   xmlns:inkscape="http://www.inkscape.org/namespaces/inkscape"
   version="1"
   width="746.66669"
   height="496"
   id="svg2"
   inkscape:version="0.92.4 (5da689c313, 2019-01-14)"
   sodipodi:docname="sprite.svg"
   inkscape:export-filename="/home/huntingbears/Desarrollo/luisalejandro.github.io/static/img/site/sprite.png"
   inkscape:export-xdpi="90"
   inkscape:export-ydpi="90"><g xmlns="http://www.w3.org/2000/svg" id="g5181" transform="translate(4.0430681)">
    <g id="g5173">
      <path id="svg_7" d="m 452.48919,15.707007 c -0.28025,-7.3784619 6.18263,-14.1970585 13.56852,-14.2855234 3.76439,-0.3210716 7.42671,1.1407633 10.27553,3.5249831 -1.1686,1.2849052 -2.35762,2.5549632 -3.62768,3.74398 -2.50794,-1.5236984 -5.5275,-2.6848766 -8.4586,-1.6536118 -4.7276,1.3461501 -7.59065,6.9280951 -5.84115,11.5530111 1.44885,4.830304 7.32402,7.481155 11.92852,5.452032 2.38422,-0.853717 3.95618,-3.053583 4.64595,-5.417388 -2.73251,-0.05444 -5.46564,-0.02041 -8.19815,-0.09589 -0.007,-1.625773 -0.0136,-3.24536 -0.007,-4.871133 4.55686,-0.0068 9.12053,-0.02041 13.68421,0.02041 0.28024,3.983392 -0.30747,8.246407 -2.89707,11.443513 -3.54602,4.563672 -10.09737,5.903017 -15.42691,4.112687 -5.65618,-1.857762 -9.76948,-7.55601 -9.64637,-13.527076 z" inkscape:connector-curvature="0" style="fill:#505050;fill-opacity:1;stroke:none;stroke-width:0.24745406;stroke-miterlimit:4;stroke-dasharray:none;stroke-opacity:1"/>
      <path id="svg_8-6-0" d="m 484.2752,13.386229 c 0.85285,0 1.70532,0 2.56207,0 0.004,0.857122 0.0129,1.718534 0.0175,2.575267 0.85674,0.0086 1.71817,0.01287 2.57532,0.01715 0,0.857122 0,1.709565 0,2.566687 -0.85675,0.0043 -1.71819,0.0086 -2.57532,0.01286 -0.009,0.861413 -0.0129,1.718145 -0.0175,2.579557 -0.85675,-0.0043 -1.71429,0 -2.56675,0 -0.008,-0.861412 -0.008,-1.718144 -0.0171,-2.575267 -0.85675,-0.009 -1.71818,-0.01286 -2.57533,-0.01755 0,-0.857123 0,-1.709565 0,-2.566687 0.85715,-0.0043 1.71429,-0.0086 2.57533,-0.01716 0.004,-0.856343 0.0129,-1.717755 0.0218,-2.574877 z" inkscape:connector-curvature="0" style="fill:#505050;fill-opacity:1;stroke:none;stroke-width:0.40000385;stroke-miterlimit:4;stroke-dasharray:none;stroke-opacity:1"/>
    </g>
    <g id="g5169">
      <path id="svg_7-5" d="m 452.48919,14.526176 c -0.28025,-7.3784619 6.18263,-14.19705853 13.56852,-14.28552336 3.76439,-0.32107164 7.42671,1.14076326 10.27553,3.52498306 -1.1686,1.2849052 -2.35762,2.5549632 -3.62768,3.74398 -2.50794,-1.5236984 -5.5275,-2.6848766 -8.4586,-1.6536118 -4.7276,1.3461501 -7.59065,6.9280951 -5.84115,11.5530111 1.44885,4.830304 7.32402,7.481155 11.92852,5.452032 2.38422,-0.853717 3.95618,-3.053583 4.64595,-5.417388 -2.73251,-0.05444 -5.46564,-0.02041 -8.19815,-0.09589 -0.007,-1.625773 -0.0136,-3.24536 -0.007,-4.871133 4.55686,-0.0068 9.12053,-0.02041 13.68421,0.02041 0.28024,3.983392 -0.30747,8.246407 -2.89707,11.443513 -3.54602,4.563672 -10.09737,5.903017 -15.42691,4.112687 -5.65618,-1.857762 -9.76948,-7.55601 -9.64637,-13.527076 z" inkscape:connector-curvature="0" style="fill:#ffffff;fill-opacity:1;stroke:#505050;stroke-width:0.39319247;stroke-miterlimit:4;stroke-dasharray:none;stroke-opacity:1"/>
      <path id="svg_8-6" d="m 484.2752,12.529728 c 0.85285,0 1.70532,0 2.56207,0 0.004,0.857122 0.0129,1.718534 0.0175,2.575267 0.85674,0.0086 1.71817,0.01287 2.57532,0.01715 0,0.857122 0,1.709565 0,2.566687 -0.85675,0.0043 -1.71819,0.0086 -2.57532,0.01286 -0.009,0.861413 -0.0129,1.718145 -0.0175,2.579557 -0.85675,-0.0043 -1.71429,0 -2.56675,0 -0.008,-0.861412 -0.008,-1.718144 -0.0171,-2.575267 -0.85675,-0.009 -1.71818,-0.01286 -2.57533,-0.01755 0,-0.857123 0,-1.709565 0,-2.566687 0.85715,-0.0043 1.71429,-0.0086 2.57533,-0.01716 0.004,-0.856343 0.0129,-1.717755 0.0218,-2.574877 z" inkscape:connector-curvature="0" style="fill:#ffffff;fill-opacity:1;stroke:#505050;stroke-width:0.40000385;stroke-miterlimit:4;stroke-dasharray:none;stroke-opacity:1"/>
    </g>
  </g></svg>