<svg
   xmlns:dc="http://purl.org/dc/elements/1.1/"
   xmlns:cc="http://creativecommons.org/ns#"
   xmlns:rdf="http://www.w3.org/1999/02/22-rdf-syntax-ns#"
   xmlns:svg="http://www.w3.org/2000/svg"
   xmlns="http://www.w3.org/2000/svg"
   xmlns:xlink="http://www.w3.org/1999/xlink"
   xmlns:sodipodi="http://sodipodi.sourceforge.net/DTD/sodipodi-0.dtd"
   xmlns:inkscape="http://www.inkscape.org/namespaces/inkscape"
   version="1"
   width="746.66669"
   height="496"
   id="svg2"
   inkscape:version="0.92.4 (5da689c313, 2019-01-14)"
   sodipodi:docname="sprite.svg"
   inkscape:export-filename="/home/huntingbears/Desarrollo/luisalejandro.github.io/static/img/site/sprite.png"
   inkscape:export-xdpi="90"
   inkscape:export-ydpi="90"><g xmlns="http://www.w3.org/2000/svg" id="g145">
    <path d="m 450,89.999997 c -16.58182,0 -30,13.418183 -30,30.000003 0,16.58182 13.41818,30 30,30 16.58182,0 30,-13.41818 30,-30 0,-16.58182 -13.41818,-30.000003 -30,-30.000003 z m 2.83636,37.854543 c -3.05455,4.36364 -9.38182,5.67273 -14.18182,3.81818 -4.90909,-1.85454 -8.4,-6.98181 -7.96363,-12.32727 0.10909,-6.43636 6,-12.10909 12.43636,-11.89091 3.05454,-0.10909 6,1.2 8.4,3.05455 -0.98182,1.2 -2.07273,2.29091 -3.16364,3.27273 -2.83636,-1.96364 -6.87272,-2.5091 -9.70909,-0.21819 C 434.61818,116.4 434.4,123.05454 438.32727,126 c 3.81818,3.49091 11.01818,1.74545 12,-3.49091 -2.4,0 -4.8,0 -7.2,-0.10909 0,-1.41818 0,-2.83637 0,-4.25455 3.92727,0 7.96364,0 12,0 0.21818,3.38182 -0.21818,6.98182 -2.29091,9.70909 z m 17.12727,-6.10909 c -1.2,0 -2.4,0 -3.6,0 0,1.2 0,2.4 0,3.6 -1.2,0 -2.4,0 -3.6,0 0,-1.2 0,-2.4 0,-3.6 -1.2,0 -2.4,0 -3.6,0 0,-1.2 0,-2.4 0,-3.6 1.2,0 2.4,0 3.6,0 0,-1.2 0,-2.4 0,-3.6 1.2,0 2.4,0 3.6,0 0,1.2 0,2.4 0,3.6 1.2,0 2.4,0 3.6,0 0,1.2 0,2.4 0,3.6 z" class="st0" id="XMLID_6_-5" inkscape:connector-curvature="0" style="fill:#e98b83;stroke-width:1.09090912;fill-opacity:1"/>
  </g></svg>