<?xml version="1.0" encoding="utf-8"?>
<!-- Generator: Adobe Illustrator 22.0.1, SVG Export Plug-In . SVG Version: 6.00 Build 0)  -->
<svg version="1.1" id="Capa_1" xmlns="http://www.w3.org/2000/svg" xmlns:xlink="http://www.w3.org/1999/xlink" x="0px" y="0px"
	 viewBox="0 0 512 512" style="enable-background:new 0 0 512 512;" xml:space="preserve">
<style type="text/css">
	.st0{fill:#FFFFFF;}
</style>
<g>
	<path class="st0" d="M448,64H64C28.7,64,0,92.7,0,128v256c0,35.3,28.7,64,64,64h384c35.3,0,64-28.7,64-64V128
		C512,92.7,483.3,64,448,64z M342.7,234.8l135.5-116.1c0.9,3,1.9,6,1.9,9.3v256c0,2.2-0.8,4.2-1.3,6.3L342.7,234.8z M448,96
		c2.1,0,4,0.8,6,1.2L256,266.9L58,97.2c2-0.4,3.9-1.2,6-1.2H448z M33.3,390.3c-0.4-2.1-1.3-4-1.3-6.3V128c0-3.3,1-6.3,1.9-9.3
		l135.4,116.1L33.3,390.3z M64,416c-3.2,0-6.2-0.9-9.1-1.8l138.8-158.6l52,44.5c3,2.6,6.7,3.9,10.4,3.9s7.4-1.3,10.4-3.9l52-44.5
		l138.8,158.6c-2.9,0.9-5.9,1.8-9.1,1.8H64z"/>
</g>
</svg>
