<svg version="1" viewBox="0 0 17.758 27.642" xmlns="http://www.w3.org/2000/svg">
 <path d="m13.821 1.7034e-7c-0.2957 0-0.56488 0.12294-0.78345 0.3415l-12.716 12.716c-0.21856 0.21856-0.32142 0.46766-0.32142 0.76336 0 0.2957 0.10285 0.56489 0.32142 0.78345l12.716 12.716c0.21856 0.21856 0.46766 0.32141 0.76336 0.32141s0.56488-0.10285 0.78345-0.32141l2.8325-2.8526c0.21856-0.21856 0.3415-0.46766 0.3415-0.76336 0-0.2957-0.12294-0.56488-0.3415-0.78345l-9.1-9.1 9.1-9.1h0.02009c0.21856-0.21856 0.32142-0.46766 0.32142-0.76336 0-0.2957-0.10285-0.5448-0.32142-0.76336l-2.8526-2.8526c-0.21856-0.21856-0.46766-0.3415-0.76336-0.3415z" filter="url(#filter4237-3)"/>
 <path d="m13.821 6e-6c-0.29571 0-0.56489 0.12294-0.78345 0.3415l-12.716 12.716c-0.21856 0.21856-0.32142 0.46766-0.32142 0.76336s0.10283 0.56488 0.32142 0.78345l12.716 12.716c0.21856 0.21856 0.46766 0.32142 0.76336 0.32142s0.56489-0.10283 0.78345-0.32142l2.8325-2.8525c0.21856-0.21856 0.34151-0.46766 0.34151-0.76336 0-0.2957-0.12295-0.56488-0.34151-0.78345l-9.1-9.1 9.1-9.1h0.0201c0.21856-0.21856 0.32142-0.46766 0.32142-0.76336 0-0.2957-0.10283-0.5448-0.32142-0.76336l-2.8526-2.8526c-0.21856-0.21856-0.46766-0.3415-0.76336-0.3415z" fill="#fff"/>
</svg>
