<?xml version="1.0" encoding="UTF-8" standalone="no"?>
<svg
   xmlns:dc="http://purl.org/dc/elements/1.1/"
   xmlns:cc="http://creativecommons.org/ns#"
   xmlns:rdf="http://www.w3.org/1999/02/22-rdf-syntax-ns#"
   xmlns:svg="http://www.w3.org/2000/svg"
   xmlns="http://www.w3.org/2000/svg"
   xmlns:sodipodi="http://sodipodi.sourceforge.net/DTD/sodipodi-0.dtd"
   xmlns:inkscape="http://www.inkscape.org/namespaces/inkscape"
   version="1"
   viewBox="0 0 17.758 27.642"
   id="svg6"
   sodipodi:docname="left-arrow.svg"
   inkscape:version="1.0.1 (3bc2e813f5, 2020-09-07)">
  <metadata
     id="metadata12">
    <rdf:RDF>
      <cc:Work
         rdf:about="">
        <dc:format>image/svg+xml</dc:format>
        <dc:type
           rdf:resource="http://purl.org/dc/dcmitype/StillImage" />
      </cc:Work>
    </rdf:RDF>
  </metadata>
  <defs
     id="defs10">
    <filter
       inkscape:collect="always"
       style="color-interpolation-filters:sRGB"
       id="filter1009"
       x="-0.22684202"
       width="1.453684"
       y="-0.14573312"
       height="1.2914662">
      <feGaussianBlur
         inkscape:collect="always"
         stdDeviation="1.4255388"
         id="feGaussianBlur1011" />
    </filter>
  </defs>
  <sodipodi:namedview
     pagecolor="#ffffff"
     bordercolor="#666666"
     borderopacity="1"
     objecttolerance="10"
     gridtolerance="10"
     guidetolerance="10"
     inkscape:pageopacity="0"
     inkscape:pageshadow="2"
     inkscape:window-width="1920"
     inkscape:window-height="1000"
     id="namedview8"
     showgrid="false"
     inkscape:zoom="26.589972"
     inkscape:cx="8.8789997"
     inkscape:cy="13.821"
     inkscape:window-x="0"
     inkscape:window-y="48"
     inkscape:window-maximized="1"
     inkscape:current-layer="svg6" />
  <path
     d="m 13.076086,2.0827864 c -0.251141,0 -0.479759,0.1044143 -0.665393,0.2900398 L 1.6108499,13.17267 c -0.1856255,0.185625 -0.2729857,0.397189 -0.2729857,0.64833 0,0.251142 0.087352,0.479768 0.2729857,0.665393 L 12.410693,25.286237 c 0.185626,0.185625 0.397189,0.272977 0.648331,0.272977 0.251141,0 0.479759,-0.08735 0.665393,-0.272977 l 2.405674,-2.422746 c 0.185626,-0.185626 0.29004,-0.397189 0.29004,-0.64833 0,-0.251142 -0.104414,-0.479759 -0.29004,-0.665393 L 8.4013575,13.821034 16.130091,6.0923004 h 0.01706 c 0.185625,-0.1856255 0.272985,-0.3971889 0.272985,-0.6483303 0,-0.2511414 -0.08735,-0.4627048 -0.272985,-0.6483303 L 13.724408,2.3728941 C 13.538783,2.1872687 13.327219,2.0828543 13.076078,2.0828543 Z"
     filter="url(#filter4237-3)"
     id="path2"
     style="opacity:0.724833;fill:#000000;fill-opacity:1;stroke-width:0.849311;filter:url(#filter1009)" />
  <path
     d="m 13.07608,2.0827821 c -0.25115,0 -0.479767,0.1044143 -0.665393,0.2900398 L 1.6108441,13.172666 c -0.1856255,0.185625 -0.2729857,0.397189 -0.2729857,0.64833 0,0.251141 0.087335,0.479759 0.2729857,0.665393 L 12.410687,25.286232 c 0.185626,0.185626 0.397189,0.272986 0.64833,0.272986 0.251142,0 0.479768,-0.08733 0.665393,-0.272986 l 2.405675,-2.42266 c 0.185625,-0.185626 0.290048,-0.397189 0.290048,-0.648331 0,-0.251141 -0.104423,-0.479759 -0.290048,-0.665393 L 8.4013518,13.821115 16.130085,6.092381 h 0.01707 c 0.185625,-0.1856255 0.272986,-0.3971889 0.272986,-0.6483303 0,-0.2511414 -0.08734,-0.4627049 -0.272986,-0.6483303 L 13.72441,2.3729747 C 13.538785,2.1873493 13.327221,2.0829349 13.07608,2.0829349 Z"
     fill="#fff"
     id="path4"
     style="fill:#ffffff;fill-opacity:1;stroke-width:0.849311" />
</svg>
