<svg
   xmlns:dc="http://purl.org/dc/elements/1.1/"
   xmlns:cc="http://creativecommons.org/ns#"
   xmlns:rdf="http://www.w3.org/1999/02/22-rdf-syntax-ns#"
   xmlns:svg="http://www.w3.org/2000/svg"
   xmlns="http://www.w3.org/2000/svg"
   xmlns:xlink="http://www.w3.org/1999/xlink"
   xmlns:sodipodi="http://sodipodi.sourceforge.net/DTD/sodipodi-0.dtd"
   xmlns:inkscape="http://www.inkscape.org/namespaces/inkscape"
   version="1"
   width="746.66669"
   height="496"
   id="svg2"
   inkscape:version="0.92.4 (5da689c313, 2019-01-14)"
   sodipodi:docname="sprite.svg"
   inkscape:export-filename="/home/huntingbears/Desarrollo/luisalejandro.github.io/static/img/site/sprite.png"
   inkscape:export-xdpi="90"
   inkscape:export-ydpi="90"><g xmlns="http://www.w3.org/2000/svg" id="g1013">
    <path id="path987" d="m 746.13561,475.73333 q 0,4.58667 -3.18634,7.78667 l -9.13419,9.28 q -3.39877,3.2 -7.85966,3.2 -4.56709,0 -7.75343,-3.2 l -31.22617,-31.36 q -3.29256,-3.09333 -3.29256,-7.78667 0,-4.58666 3.7174,-8.32 l -21.98577,-22.08 -10.83357,10.88 q -1.16833,1.17334 -2.86771,1.17334 -1.69938,0 -2.86771,-1.17334 0.21243,0.21334 1.06211,1.06667 0.9559,0.85333 1.06212,1.17333 0.21242,0.21334 0.84969,0.96 0.74348,0.74667 0.84969,1.17334 0.21242,0.42666 0.53106,1.17333 0.31863,0.74667 0.42485,1.38667 0.10624,0.74666 0.10624,1.6 0,3.30666 -2.44287,5.86666 -0.21242,0.21334 -1.38075,1.6 -1.16832,1.28 -1.59317,1.81334 -0.42484,0.42666 -1.59317,1.38666 -1.06212,0.96 -1.9118,1.38667 -0.74349,0.42667 -1.91181,0.74667 -1.06212,0.42666 -2.23044,0.42666 -3.39878,0 -5.84163,-2.45333 l -35.0498,-35.2 q -2.44289,-2.45333 -2.44289,-5.86667 0,-1.17333 0.42485,-2.24 0.42485,-1.17333 0.74348,-1.92 0.42485,-0.74666 1.38075,-1.92 0.9559,-1.17333 1.38075,-1.6 0.42484,-0.42666 1.8056,-1.6 1.27453,-1.17333 1.59316,-1.38666 2.54908,-2.45334 5.84163,-2.45334 0.8497,0 1.59318,0.10667 0.74348,0.10667 1.38075,0.42667 0.74348,0.32 1.16832,0.53333 0.42485,0.21333 1.16833,0.85333 0.74348,0.74667 0.95591,0.85334 0.21241,0.21333 1.16832,1.06666 0.84969,0.96 1.06211,1.06667 -1.16832,-1.17333 -1.16832,-2.98667 0,-1.70666 1.16832,-2.98666 l 29.95164,-30.08 q 1.16833,-1.17334 2.97392,-1.17334 1.69939,0 2.97393,1.17334 -0.21243,-0.21334 -1.06213,-1.06667 -0.84968,-0.85333 -1.06211,-1.17333 -0.21242,-0.21334 -0.84969,-0.96 -0.63727,-0.74667 -0.84969,-1.17334 -0.21243,-0.42666 -0.53106,-1.17333 -0.31863,-0.74667 -0.42484,-1.38667 -0.10624,-0.74666 -0.10624,-1.6 0,-3.30666 2.44286,-5.86666 0.21242,-0.21334 1.38074,-1.6 1.16833,-1.28 1.59318,-1.81334 0.42484,-0.42666 1.59317,-1.38666 1.16833,-0.96 1.91181,-1.38667 0.74347,-0.42667 1.91181,-0.74667 1.16832,-0.42666 2.23044,-0.42666 3.39876,0 5.84163,2.45333 l 35.04978,35.2 q 2.44287,2.45333 2.44287,5.86667 0,1.17333 -0.42485,2.24 -0.42485,1.17333 -0.74348,1.92 -0.42484,0.74666 -1.27454,1.92 -0.9559,1.17333 -1.38075,1.6 -0.42484,0.42666 -1.8056,1.6 -1.27453,1.17333 -1.59317,1.38666 -2.54907,2.45334 -5.84163,2.45334 -0.84969,0 -1.59316,-0.10667 -0.63727,-0.10667 -1.38076,-0.42667 -0.74348,-0.32 -1.16832,-0.53333 -0.42485,-0.21333 -1.16833,-0.85333 -0.74348,-0.74667 -0.95591,-0.85334 -0.21241,-0.21333 -1.06211,-1.06666 -0.84969,-0.96 -1.06211,-1.06667 1.16832,1.17333 1.16832,2.98667 0,1.70666 -1.16832,2.98666 l -10.83357,10.88 21.98577,22.08 q 3.7174,-3.73333 8.28449,-3.73333 4.46089,0 7.85965,3.2 l 31.22618,31.36 q 3.18638,3.41333 3.18638,7.89333 z" style="fill:#c2beb2;stroke-width:1.06666672"/>
  </g></svg>