<svg version="1" viewBox="0 0 50 50" xmlns="http://www.w3.org/2000/svg">
 <rect x="3.843" y="4.0083" width="42.149" height="42.149" ry="21.074" fill="#d8d7d2"/>
 <path d="m23.761 0c-5.1918 0.29596-10.331 2.1599-14.633 5.6753-10.764 8.7949-12.217 24.566-3.2449 35.226 8.9717 10.66 24.971 12.172 35.734 3.3766 4.3046-3.5173 7.1155-8.1517 8.3707-13.127 0.05223-0.37304 0.10478-3.7848-3.8775-4.1611-4.5866-0.43322-8.1281-0.76792-12.634-1.1937 0 0-2.4503-0.24684-5.7153 2.421-1.7942 1.466-4.4603 1.2141-5.9558-0.56275-1.4955-1.7768-1.2533-4.4051 0.54087-5.8711 0 0 3.2131-2.2734 3.4722-5.0862 0.38501-4.1774 0.79517-8.6357 1.1472-12.454 0 0 0.67696-4.1084-3.2051-4.2428z" fill="#e5616b"/>
 <path d="m24.929 3.9256c-4.7329-6.317e-4 -9.4865 1.5787-13.406 4.8192-8.9588 7.407-10.168 20.689-2.7007 29.667 7.4673 8.9775 20.783 10.251 29.742 2.8437 4.4793-3.7034 7.0211-8.8759 7.5102-14.245l-8.4125-0.80423-4.2059-0.40218s-2.4473-0.24946-5.7083 2.4467c-1.792 1.4816-4.4548 1.227-5.9485-0.56873-1.4936-1.7957-1.2518-4.4519 0.5402-5.9334 0 0 3.2092-2.2975 3.468-5.1402l0.28822-3.1653c0.03038-0.33375 0.06169-0.67849 0.09367-1.0297 0.09373-1.0322 0.19318-2.1224 0.28797-3.1637l0.09403-1.032 0.23918-2.6282c0.04363-0.47927 0.07927-0.87093 0.10404-1.1431l0.03867-0.42426c-0.67279-0.064288-1.3485-0.096659-2.0246-0.096717z" fill="#fcd67c"/>
 <path d="m24.943 8.2645c-3.7585-6.278e-4 -7.5332 1.2535-10.646 3.827-7.1142 5.8819-8.0745 16.43-2.1447 23.559 5.9298 7.129 16.505 8.1402 23.619 2.2583 3.5573-2.9411 5.5762-7.0484 5.964-11.312l-8.3503-0.79832s-2.4293-0.24763-5.6664 2.4288c-1.7788 1.4707-4.4221 1.218-5.9048-0.56454-1.4827-1.7825-1.2426-4.4191 0.53624-5.8898 0 0 3.1856-2.2806 3.4425-5.1024l0.28598-3.1422c0.03016-0.3313 0.06136-0.6735 0.09311-1.0222 0.09305-1.0246 0.19176-2.1067 0.28586-3.1404l0.09335-1.0244c-0.53428-0.051119-1.0709-0.076813-1.6079-0.076902z" fill="#15c68b"/>
 <path d="m24.957 12.397c-2.8305-6.28e-4 -5.6732 0.94393-8.0172 2.8819-5.3577 4.4297-6.0808 12.373-1.6151 17.742 4.4657 5.3689 12.429 6.1303 17.787 1.7006 2.6789-2.2149 4.1992-5.3079 4.4913-8.5188l-4.1921-0.40087s-2.4394-0.24865-5.6898 2.4388c-1.7861 1.4768-4.4402 1.223-5.929-0.56687s-1.2478-4.4372 0.53832-5.914c0 0 3.1989-2.2902 3.4568-5.1236l0.28716-3.155c0.03028-0.33266 0.06161-0.67628 0.09349-1.0264-0.40237-0.0385-0.80651-0.05785-1.2109-0.05792z" fill="#2197e2"/>
 <path d="m18.497 30.391c3.0016 3.6087 8.3538 4.1204 11.955 1.143 1.8004-1.4885 2.8226-3.5677 3.0189-5.7256 0 0-2.4593-0.2507-5.7363 2.4587-1.8007 1.4888-4.4766 1.233-5.9775-0.5715-1.5009-1.8045-1.258-4.4735 0.54277-5.9624 0 0 3.2249-2.3088 3.485-5.1653-2.1633-0.20691-4.4019 0.40985-6.2023 1.8984-3.6011 2.9774-4.0871 8.3161-1.0855 11.925" fill="#405761"/>
</svg>
