<svg
   xmlns:dc="http://purl.org/dc/elements/1.1/"
   xmlns:cc="http://creativecommons.org/ns#"
   xmlns:rdf="http://www.w3.org/1999/02/22-rdf-syntax-ns#"
   xmlns:svg="http://www.w3.org/2000/svg"
   xmlns="http://www.w3.org/2000/svg"
   xmlns:xlink="http://www.w3.org/1999/xlink"
   xmlns:sodipodi="http://sodipodi.sourceforge.net/DTD/sodipodi-0.dtd"
   xmlns:inkscape="http://www.inkscape.org/namespaces/inkscape"
   version="1"
   width="746.66669"
   height="496"
   id="svg2"
   inkscape:version="0.92.4 (5da689c313, 2019-01-14)"
   sodipodi:docname="sprite.svg"
   inkscape:export-filename="/home/huntingbears/Desarrollo/luisalejandro.github.io/static/img/site/sprite.png"
   inkscape:export-xdpi="90"
   inkscape:export-ydpi="90"><g xmlns="http://www.w3.org/2000/svg" id="g127">
    <path style="fill:#5a5a5a;fill-opacity:1;stroke-width:0.32249987" inkscape:connector-curvature="0" id="XMLID_4_" class="st0" d="M 8.9672728,96 C 8.8036366,96 8.6400006,95.9364 8.509091,95.80932 L 2.2581821,89.930085 C 2.1927244,89.86656 2.0945452,89.802967 1.9963639,89.67585 1.8654544,89.548732 1.7018184,89.358052 1.4400003,89.040255 1.1781821,88.722458 0.94909131,88.404668 0.7527271,88.08687 0.55636366,87.769072 0.36000025,87.355935 0.22909079,86.91102 0.06545473,86.43432 0,85.989412 0,85.576267 0,84.146182 0.42545422,83.033895 1.2763634,82.207627 2.1272727,81.381353 3.3054548,81 4.8109096,81 c 0.4254542,0 0.8509084,0.06352 1.2763634,0.222458 0.4254542,0.127117 0.8181818,0.317797 1.2109094,0.572032 0.3599994,0.222457 0.6872724,0.444915 0.9490905,0.667372 C 8.509091,82.68432 8.7709092,82.906778 9,83.129235 9.2290914,82.906778 9.4909095,82.68432 9.7527276,82.461862 10.014546,82.239405 10.341819,82.016947 10.701818,81.79449 11.061819,81.572033 11.487273,81.381353 11.912727,81.222458 12.338182,81.09534 12.763635,81 13.189091,81 c 1.505454,0 2.683637,0.413138 3.534544,1.207627 C 17.574545,83.002117 18,84.146182 18,85.576267 c 0,1.430085 -0.752728,2.891955 -2.290909,4.385595 L 9.4254552,95.80932 C 9.2945448,95.936437 9.1309095,96 8.9672728,96 Z"/>
  </g></svg>