<svg version="1" viewBox="0 0 17.778 27.64" xmlns="http://www.w3.org/2000/svg">
 <path d="m3.9447 3.2122e-7c-0.29396 0-0.53748 0.13221-0.75651 0.35124l-2.8369 2.8369c-0.21903 0.21327-0.35124 0.45679-0.35124 0.75652 0 0.29396 0.13221 0.56451 0.35124 0.78354l9.1052 9.1052-9.1052 9.1052c-0.21903 0.21327-0.35124 0.45679-0.35124 0.75652 0 0.29396 0.13221 0.56451 0.35124 0.78354l2.8369 2.8369c0.21327 0.21903 0.45679 0.32422 0.75651 0.32422 0.29397 0 0.56452-0.1052 0.78354-0.32422l12.726-12.699c0.21903-0.21327 0.32422-0.48381 0.32422-0.78354 0-0.29396-0.1052-0.53749-0.32422-0.75652l-12.726-12.726c-0.21326-0.21903-0.4838-0.35124-0.78354-0.35124z" filter="url(#filter4205-5)"/>
 <path id="fa-chevron-left" d="m3.9447 4e-6c-0.29396 0-0.53748 0.13221-0.75651 0.35124l-2.8369 2.8369c-0.21903 0.21327-0.35123 0.45679-0.35123 0.75652 0 0.29396 0.1322 0.56451 0.35123 0.78354l9.1052 9.1052-9.1052 9.1052c-0.21903 0.21327-0.35123 0.45679-0.35123 0.75652 0 0.29396 0.1322 0.56451 0.35123 0.78354l2.8369 2.8369c0.21327 0.21903 0.45679 0.32422 0.75651 0.32422 0.29397 0 0.56452-0.10517 0.78353-0.32422l12.726-12.699c0.21903-0.21327 0.32422-0.48381 0.32422-0.78354 0-0.29396-0.10517-0.53749-0.32422-0.75652l-12.726-12.726c-0.21326-0.21903-0.4838-0.35124-0.78353-0.35124z" fill="#fff"/>
</svg>
