<svg
   xmlns:dc="http://purl.org/dc/elements/1.1/"
   xmlns:cc="http://creativecommons.org/ns#"
   xmlns:rdf="http://www.w3.org/1999/02/22-rdf-syntax-ns#"
   xmlns:svg="http://www.w3.org/2000/svg"
   xmlns="http://www.w3.org/2000/svg"
   xmlns:xlink="http://www.w3.org/1999/xlink"
   xmlns:sodipodi="http://sodipodi.sourceforge.net/DTD/sodipodi-0.dtd"
   xmlns:inkscape="http://www.inkscape.org/namespaces/inkscape"
   version="1"
   width="746.66669"
   height="496"
   id="svg2"
   inkscape:version="0.92.4 (5da689c313, 2019-01-14)"
   sodipodi:docname="sprite.svg"
   inkscape:export-filename="/home/huntingbears/Desarrollo/luisalejandro.github.io/static/img/site/sprite.png"
   inkscape:export-xdpi="90"
   inkscape:export-ydpi="90"><g xmlns="http://www.w3.org/2000/svg" id="g4977" transform="matrix(0.99893865,0,0,0.99926007,0.54130134,0.0221729)">
    <path d="m 530.68909,13.490343 q 0,-3.178215 -2.33964,-5.4498955 -2.33965,-2.2610164 -5.63944,-2.2610164 -3.28873,0 -5.63942,2.2610164 -2.33966,2.2610165 -2.33966,5.4498955 0,3.178226 2.33966,5.449894 2.33966,2.261018 5.63942,2.261018 3.29979,0 5.63944,-2.261018 2.33964,-2.261004 2.33964,-5.449894 z m 9.11579,14.312655 q 0,0.89588 -0.67319,1.546447 -0.6732,0.650581 -1.60021,0.650581 -0.96016,0 -1.60024,-0.650581 l -6.10295,-5.887181 q -3.18943,2.133047 -7.10724,2.133047 -2.54931,0 -4.86691,-0.959876 -2.31756,-0.959862 -4.00606,-2.580966 -1.67749,-1.621102 -2.67074,-3.871447 -0.99324,-2.250351 -0.99324,-4.703343 0,-2.463655 0.99324,-4.7033443 0.98221,-2.2503403 2.67074,-3.8714457 1.67746,-1.6211039 4.00606,-2.5809704 2.32865,-0.9598665 4.86691,-0.9598665 2.54935,0 4.8669,0.9598665 2.32861,0.9598665 4.0061,2.5809704 1.6775,1.6211054 2.67072,3.8714457 0.99325,2.2503523 0.99325,4.7033443 0,3.786134 -2.20723,6.868359 l 6.10296,5.89784 q 0.66216,0.639908 0.66216,1.546447 z" id="fa-search-2" inkscape:connector-curvature="0" style="fill:#505050;fill-opacity:1;stroke:none;stroke-width:0.29129636;stroke-miterlimit:4;stroke-dasharray:none;stroke-opacity:1"/>
    <path d="m 530.68909,12.304178 q 0,-3.1782155 -2.33964,-5.4498958 -2.33965,-2.2610166 -5.63944,-2.2610166 -3.28873,0 -5.63942,2.2610166 -2.33966,2.2610154 -2.33966,5.4498958 0,3.178227 2.33966,5.449895 2.33966,2.261012 5.63942,2.261012 3.29979,0 5.63944,-2.261012 2.33964,-2.261005 2.33964,-5.449895 z m 9.11579,14.312661 q 0,0.895873 -0.67319,1.54644 -0.6732,0.650579 -1.60021,0.650579 -0.96016,0 -1.60024,-0.650579 l -6.10295,-5.887183 q -3.18943,2.133051 -7.10724,2.133051 -2.54931,0 -4.86691,-0.959877 -2.31756,-0.959864 -4.00606,-2.580969 -1.67749,-1.621093 -2.67074,-3.871442 -0.99324,-2.250353 -0.99324,-4.703345 0,-2.4636563 0.99324,-4.7033455 0.98221,-2.2503398 2.67074,-3.8714447 1.67746,-1.6211049 4.00606,-2.5809707 2.32865,-0.95986646 4.86691,-0.95986646 2.54935,0 4.8669,0.95986646 2.32861,0.9598658 4.0061,2.5809707 1.6775,1.6211049 2.67072,3.8714447 0.99325,2.2503529 0.99325,4.7033455 0,3.786134 -2.20723,6.868356 l 6.10296,5.897844 q 0.66216,0.639906 0.66216,1.546452 z" id="fa-search-2-7" inkscape:connector-curvature="0" style="fill:#ffffff;fill-opacity:1;stroke:#505050;stroke-width:0.40000001;stroke-miterlimit:4;stroke-dasharray:none;stroke-opacity:1"/>
  </g></svg>