<svg
   xmlns:dc="http://purl.org/dc/elements/1.1/"
   xmlns:cc="http://creativecommons.org/ns#"
   xmlns:rdf="http://www.w3.org/1999/02/22-rdf-syntax-ns#"
   xmlns:svg="http://www.w3.org/2000/svg"
   xmlns="http://www.w3.org/2000/svg"
   xmlns:xlink="http://www.w3.org/1999/xlink"
   xmlns:sodipodi="http://sodipodi.sourceforge.net/DTD/sodipodi-0.dtd"
   xmlns:inkscape="http://www.inkscape.org/namespaces/inkscape"
   version="1"
   width="746.66669"
   height="496"
   id="svg2"
   inkscape:version="0.92.4 (5da689c313, 2019-01-14)"
   sodipodi:docname="sprite.svg"
   inkscape:export-filename="/home/huntingbears/Desarrollo/luisalejandro.github.io/static/img/site/sprite.png"
   inkscape:export-xdpi="90"
   inkscape:export-ydpi="90"><g xmlns="http://www.w3.org/2000/svg" id="g130">
    <path id="XMLID_4_-3" class="st0" d="m 11.879563,114.73626 c 0.875912,0 1.614963,0.3022 2.217153,0.9066 C 14.698905,116.24725 15,116.98901 15,117.86813 c 0,0.87912 -0.301095,1.62088 -0.903284,2.22528 C 13.494526,120.6978 12.755475,121 11.879563,121 c -0.875913,0 -1.614963,-0.3022 -2.2171534,-0.90659 -0.6021891,-0.6044 -0.9032841,-1.34616 -0.9032841,-2.22528 0,-0.0824 0,-0.19231 0.02737,-0.32967 l -3.5310213,-1.75824 c -0.6021896,0.57692 -1.3138683,0.85165 -2.135036,0.85165 -0.875913,0 -1.6149638,-0.3022 -2.21715381,-0.9066 C 0.30109503,115.12088 0,114.37912 0,113.5 c 0,-0.87912 0.30109503,-1.62088 0.90328409,-2.22527 0.60219001,-0.6044 1.34124081,-0.9066 2.21715331,-0.9066 0.8211677,0 1.5328464,0.27473 2.135036,0.85165 l 3.5310208,-1.75824 c 0,-0.13736 -0.02737,-0.24725 -0.02737,-0.32967 0,-0.87912 0.301095,-1.62088 0.9032851,-2.22528 C 10.264599,106.3022 11.00365,106 11.879563,106 c 0.875911,0 1.614963,0.3022 2.217152,0.90659 0.60219,0.6044 0.903285,1.34616 0.903285,2.22528 0,0.87912 -0.301095,1.62088 -0.903285,2.22527 -0.602189,0.6044 -1.341241,0.9066 -2.217152,0.9066 -0.821168,0 -1.532847,-0.27473 -2.1350372,-0.85165 l -3.5310209,1.75824 c 0,0.13736 0.027373,0.24725 0.027373,0.32967 0,0.0824 0,0.19231 -0.027373,0.32967 l 3.5310209,1.75824 c 0.6021902,-0.57692 1.3138692,-0.85165 2.1350372,-0.85165 z" inkscape:connector-curvature="0" style="fill:#5a5a5a;fill-opacity:1;stroke-width:0.27422348"/>
  </g></svg>