<svg
   xmlns:dc="http://purl.org/dc/elements/1.1/"
   xmlns:cc="http://creativecommons.org/ns#"
   xmlns:rdf="http://www.w3.org/1999/02/22-rdf-syntax-ns#"
   xmlns:svg="http://www.w3.org/2000/svg"
   xmlns="http://www.w3.org/2000/svg"
   xmlns:xlink="http://www.w3.org/1999/xlink"
   xmlns:sodipodi="http://sodipodi.sourceforge.net/DTD/sodipodi-0.dtd"
   xmlns:inkscape="http://www.inkscape.org/namespaces/inkscape"
   version="1"
   width="746.66669"
   height="496"
   id="svg2"
   inkscape:version="0.92.4 (5da689c313, 2019-01-14)"
   sodipodi:docname="sprite.svg"
   inkscape:export-filename="/home/huntingbears/Desarrollo/luisalejandro.github.io/static/img/site/sprite.png"
   inkscape:export-xdpi="90"
   inkscape:export-ydpi="90"><g xmlns="http://www.w3.org/2000/svg" id="g139">
    <path d="m 330,89.999997 c -16.58182,0 -30,13.418183 -30,30.000003 0,16.58182 13.41818,30 30,30 16.58182,0 30,-13.41818 30,-30 0,-16.58182 -13.41818,-30.000003 -30,-30.000003 z M 345.16363,114 c 0,0.32727 0,0.65454 0,0.98182 0,10.03636 -7.63636,21.49091 -21.49091,21.49091 -4.25454,0 -8.29091,-1.2 -11.56363,-3.38182 0.54545,0.10909 1.2,0.10909 1.85454,0.10909 3.49091,0 6.76364,-1.2 9.38182,-3.27273 -3.27273,-0.10909 -6.10909,-2.29091 -7.09091,-5.23636 0.43637,0.10909 0.98182,0.10909 1.41818,0.10909 0.65455,0 1.30909,-0.10909 1.96364,-0.21818 -3.49091,-0.65455 -6.10909,-3.7091 -6.10909,-7.41819 v -0.10909 c 0.98182,0.54546 2.18182,0.87273 3.38182,0.98182 -2.07273,-1.30909 -3.38182,-3.70909 -3.38182,-6.32727 0,-1.41818 0.32727,-2.72727 0.98182,-3.81818 3.70909,4.58181 9.27272,7.63636 15.6,7.85454 C 330,115.2 329.89091,114.65454 329.89091,114 c 0,-4.14546 3.38181,-7.52728 7.52727,-7.52728 2.18182,0 4.14545,0.87273 5.56364,2.4 1.74545,-0.32727 3.38181,-0.98181 4.8,-1.85454 -0.54546,1.74545 -1.74546,3.27273 -3.27273,4.14545 1.52727,-0.21818 2.94545,-0.54545 4.36363,-1.2 -0.98181,1.63637 -2.2909,2.94546 -3.70909,4.03637 z" class="st0" id="XMLID_5_-5-6" inkscape:connector-curvature="0" style="fill:#73c5f7;stroke-width:1.09090912;fill-opacity:1"/>
  </g></svg>