<svg
   xmlns:dc="http://purl.org/dc/elements/1.1/"
   xmlns:cc="http://creativecommons.org/ns#"
   xmlns:rdf="http://www.w3.org/1999/02/22-rdf-syntax-ns#"
   xmlns:svg="http://www.w3.org/2000/svg"
   xmlns="http://www.w3.org/2000/svg"
   xmlns:xlink="http://www.w3.org/1999/xlink"
   xmlns:sodipodi="http://sodipodi.sourceforge.net/DTD/sodipodi-0.dtd"
   xmlns:inkscape="http://www.inkscape.org/namespaces/inkscape"
   version="1"
   width="746.66669"
   height="496"
   id="svg2"
   inkscape:version="0.92.4 (5da689c313, 2019-01-14)"
   sodipodi:docname="sprite.svg"
   inkscape:export-filename="/home/huntingbears/Desarrollo/luisalejandro.github.io/static/img/site/sprite.png"
   inkscape:export-xdpi="90"
   inkscape:export-ydpi="90"><g xmlns="http://www.w3.org/2000/svg" id="g4957" transform="matrix(0.99910533,0,0,0.99926384,0.26986258,0.0220798)">
    <path d="m 342.31878,4.7811673 q -1.47563,2.1954359 -3.5716,3.7322387 0.0283,0.3150025 0.0283,0.9354492 0,2.9113368 -0.83652,5.8035808 -0.83648,2.901778 -2.54711,5.555392 -1.71059,2.663149 -4.06032,4.705851 -2.35916,2.042713 -5.6864,3.264514 -3.32725,1.221812 -7.11501,1.221812 -5.96836,0 -10.93101,-3.245433 0.77069,0.08598 1.72001,0.08598 4.95325,0 8.83503,-3.08314 -2.31215,-0.04779 -4.14496,-1.441361 -1.83279,-1.393615 -2.50952,-3.569958 0.72373,0.114559 1.34405,0.114559 0.94931,0 1.87042,-0.248176 -2.47194,-0.515446 -4.08856,-2.491333 -1.61665,-1.975888 -1.61665,-4.600874 v -0.08586 q 1.49444,0.849542 3.21447,0.916356 -1.45684,-0.983159 -2.31216,-2.577241 -0.85529,-1.5845239 -0.85529,-3.445864 0,-1.9663528 0.9681,-3.646331 2.66927,3.3313284 6.48527,5.3358558 3.82538,2.0045272 8.1865,2.2240642 -0.17856,-0.8495301 -0.17856,-1.6513387 0,-2.9972563 2.08655,-5.1163193 2.08658,-2.1095283 5.03787,-2.1095283 3.08285,0 5.19763,2.2813435 2.4061,-0.4677246 4.51149,-1.7467926 -0.81769,2.5772411 -3.12985,3.9804031 2.04897,-0.2195483 4.09795,-1.1167993 z" id="fa-twitter-1" inkscape:connector-curvature="0" style="fill:#505050;fill-opacity:1;stroke:none;stroke-width:0.22743282;stroke-miterlimit:4;stroke-dasharray:none;stroke-opacity:1"/>
    <path d="m 342.31878,3.5949802 q -1.47563,2.1954359 -3.5716,3.7322386 0.0283,0.3150026 0.0283,0.9354493 0,2.9113369 -0.83652,5.8035809 -0.83648,2.901778 -2.54711,5.555404 -1.71059,2.663136 -4.06032,4.705838 -2.35916,2.042714 -5.6864,3.264514 -3.32725,1.221813 -7.11501,1.221813 -5.96836,0 -10.93101,-3.245421 0.77069,0.08598 1.72001,0.08598 4.95325,0 8.83503,-3.083141 -2.31215,-0.04779 -4.14496,-1.44136 -1.83279,-1.393627 -2.50952,-3.569958 0.72373,0.114559 1.34405,0.114559 0.94931,0 1.87042,-0.248188 -2.47194,-0.515446 -4.08856,-2.491333 -1.61665,-1.975888 -1.61665,-4.600862 v -0.08586 q 1.49444,0.849529 3.21447,0.916344 -1.45684,-0.983159 -2.31216,-2.5772411 -0.85529,-1.584524 -0.85529,-3.4458641 0,-1.9663528 0.9681,-3.646331 2.66927,3.3313284 6.48527,5.3358558 3.82538,2.0045274 8.1865,2.2240758 -0.17856,-0.8495417 -0.17856,-1.6513503 0,-2.9972444 2.08655,-5.1163193 2.08658,-2.1095158 5.03787,-2.1095158 3.08285,0 5.19763,2.2813311 2.4061,-0.4677247 4.51149,-1.74679264 -0.81769,2.57724104 -3.12985,3.98040314 2.04897,-0.2195365 4.09795,-1.1167994 z" id="fa-twitter-1-3" inkscape:connector-curvature="0" style="fill:#ffffff;fill-opacity:1;stroke:#505050;stroke-width:0.40000001;stroke-miterlimit:4;stroke-dasharray:none;stroke-opacity:1"/>
  </g></svg>