<svg version="1.1" viewBox="0 0 1024 1024" xmlns="http://www.w3.org/2000/svg">
 <g transform="matrix(1.1 0 0 .44444 101.42 751.35)"></g>
 <g transform="translate(-645.89 100.3)"></g>
 <text x="-291.02454" y="-315.33878" fill="#000000" font-family="sans-serif" font-size="40px" letter-spacing="0px" word-spacing="0px" style="line-height:1.25" xml:space="preserve"><tspan x="-291.02454" y="-279.94815"/></text>
 <rect x="131.17" y="134.15" width="758.68" height="758.68" ry="379.34" fill="#d8d7d2"/>
 <path d="m489.69 62c-93.452 5.3273-185.95 38.878-263.39 102.16-193.75 158.31-219.9 442.19-58.407 634.07 161.49 191.87 449.47 219.09 643.22 60.779 77.483-63.311 128.08-146.73 150.67-236.29 0.94024-6.7148 1.886-68.127-69.796-74.9-82.558-7.798-146.31-13.823-227.41-21.487 0 0-44.105-4.4431-102.88 43.578-32.295 26.388-80.286 21.854-107.2-10.13s-22.56-79.292 9.7357-105.68c0 0 57.837-40.921 62.5-91.551 6.9302-75.194 14.313-155.44 20.65-224.17 0 0 12.185-73.952-57.691-76.37z" fill="#e5616b"/>
 <path d="m510.71 132.66c-85.191-0.01137-170.76 28.417-241.3 86.746-161.26 133.33-183.02 372.41-48.612 534 134.41 161.6 374.1 184.51 535.36 51.187 80.627-66.661 126.38-159.77 135.18-256.4l-151.43-14.476-75.706-7.2392s-44.051-4.4903-102.75 44.041c-32.256 26.668-80.187 22.086-107.07-10.237-26.885-32.323-22.532-80.134 9.7237-106.8 0 0 57.765-41.355 62.423-92.524l5.1879-56.976c0.54686-6.0075 1.1105-12.213 1.6861-18.535 1.6872-18.58 3.4772-38.204 5.1834-56.947l1.6926-18.575 4.3053-47.308c0.78526-8.6268 1.4268-15.677 1.8727-20.576l0.69602-7.6366c-12.11-1.1572-24.272-1.7399-36.442-1.7409z" fill="#fcd67c"/>
 <path d="m510.98 210.76c-67.652-0.0113-135.6 22.564-191.62 68.886-128.06 105.87-145.34 295.74-38.605 424.06 106.74 128.32 297.08 146.52 425.14 40.649 64.031-52.94 100.37-126.87 107.35-203.61l-150.31-14.37s-43.727-4.4573-101.99 43.718c-32.019 26.472-79.598 21.923-106.29-10.162-26.688-32.085-22.366-79.545 9.6523-106.02 0 0 57.341-41.052 61.965-91.844l5.1476-56.56c0.54285-5.9634 1.1045-12.123 1.6759-18.399 1.6748-18.443 3.4517-37.921 5.1454-56.527l1.6803-18.439c-9.617-0.92015-19.277-1.3826-28.941-1.3842z" fill="#15c68b"/>
 <path d="m511.23 285.14c-50.949-0.0113-102.12 16.991-144.31 51.875-96.438 79.734-109.45 222.72-29.072 319.36 80.382 96.64 223.73 110.34 320.17 30.611 48.22-39.867 75.586-95.543 80.843-153.34l-75.457-7.2156s-43.909-4.4758-102.42 43.898c-32.151 26.582-79.924 22.014-106.72-10.204-26.798-32.218-22.461-79.87 9.6898-106.45 0 0 57.58-41.223 62.222-92.224l5.1688-56.791c0.54508-5.988 1.109-12.173 1.6828-18.475-7.2426-0.69298-14.517-1.0413-21.796-1.0426z" fill="#2197e2"/>
 <path d="m394.95 609.04c54.029 64.956 150.37 74.167 215.19 20.574 32.407-26.794 50.806-64.219 54.341-103.06 0 0-44.267-4.5126-103.25 44.256-32.413 26.799-80.578 22.194-107.59-10.287-27.017-32.481-22.643-80.524 9.7699-107.32 0 0 58.049-41.558 62.73-92.976-38.94-3.7244-79.235 7.3772-111.64 34.171-64.82 53.593-73.568 149.69-19.54 214.64" fill="#405761"/>
</svg>
