<svg version="1.1" viewBox="0 0 900 200" xmlns="http://www.w3.org/2000/svg">
 <g transform="matrix(1.1 0 0 .44444 101.42 -72.648)"></g>
 <g transform="translate(-645.89 -723.7)"></g>
 <text x="-291.02454" y="-1139.3387" fill="#000000" font-family="sans-serif" font-size="40px" letter-spacing="0px" word-spacing="0px" style="line-height:1.25" xml:space="preserve"><tspan x="-291.02454" y="-1103.9481"/></text>
 <g transform="matrix(.12856 0 0 .12856 26.357 140.11)">
  <rect x="145.17" y="-689.85" width="758.68" height="758.68" ry="379.34" fill="#d8d7d2"/>
  <path d="m503.68-762c-93.452 5.3273-185.95 38.878-263.39 102.16-193.75 158.31-219.9 442.19-58.407 634.07 161.49 191.87 449.47 219.09 643.22 60.779 77.483-63.311 128.08-146.73 150.67-236.29 0.94024-6.7148 1.886-68.127-69.796-74.9-82.558-7.798-146.31-13.823-227.41-21.487 0 0-44.105-4.4431-102.88 43.578-32.295 26.388-80.286 21.854-107.2-10.13s-22.56-79.292 9.7357-105.68c0 0 57.837-40.921 62.5-91.551 6.9302-75.194 14.313-155.44 20.65-224.17 0 0 12.185-73.952-57.691-76.37z" fill="#e5616b"/>
  <path d="m524.71-691.34c-85.191-0.0114-170.76 28.417-241.3 86.746-161.26 133.33-183.02 372.41-48.612 534 134.41 161.6 374.1 184.51 535.36 51.187 80.627-66.661 126.38-159.77 135.18-256.4l-151.43-14.476-75.706-7.2392s-44.051-4.4903-102.75 44.041c-32.256 26.668-80.187 22.086-107.07-10.237-26.885-32.323-22.532-80.134 9.7237-106.8 0 0 57.765-41.355 62.423-92.524l5.1879-56.976c0.54686-6.0075 1.1105-12.213 1.6861-18.535 1.6872-18.58 3.4772-38.204 5.1834-56.947l1.6926-18.575 4.3053-47.308c0.78526-8.6268 1.4268-15.677 1.8727-20.576l0.69602-7.6366c-12.11-1.1572-24.272-1.7399-36.442-1.7409z" fill="#fcd67c"/>
  <path d="m524.97-613.24c-67.652-0.0113-135.6 22.564-191.62 68.886-128.06 105.87-145.34 295.74-38.605 424.06 106.74 128.32 297.08 146.52 425.14 40.649 64.031-52.94 100.37-126.87 107.35-203.61l-150.31-14.37s-43.727-4.4573-101.99 43.718c-32.019 26.472-79.598 21.923-106.29-10.162-26.688-32.085-22.366-79.545 9.6523-106.02 0 0 57.341-41.052 61.965-91.844l5.1476-56.56c0.54285-5.9634 1.1045-12.123 1.6759-18.399 1.6748-18.443 3.4517-37.921 5.1454-56.527l1.6803-18.439c-9.617-0.92015-19.277-1.3826-28.941-1.3842z" fill="#15c68b"/>
  <path d="m525.22-538.86c-50.949-0.0113-102.12 16.991-144.31 51.875-96.438 79.734-109.45 222.72-29.072 319.36 80.382 96.64 223.73 110.34 320.17 30.611 48.22-39.867 75.586-95.543 80.843-153.34l-75.457-7.2156s-43.909-4.4758-102.42 43.898c-32.151 26.582-79.924 22.014-106.72-10.204-26.798-32.218-22.461-79.87 9.6898-106.45 0 0 57.58-41.223 62.222-92.224l5.1688-56.791c0.54508-5.988 1.109-12.173 1.6828-18.475-7.2426-0.69298-14.517-1.0413-21.796-1.0426z" fill="#2197e2"/>
  <path d="m408.94-214.96c54.029 64.956 150.37 74.167 215.19 20.574 32.407-26.794 50.806-64.219 54.341-103.06 0 0-44.267-4.5126-103.25 44.256-32.413 26.799-80.578 22.194-107.59-10.287-27.017-32.481-22.643-80.524 9.7699-107.32 0 0 58.049-41.558 62.73-92.976-38.94-3.7244-79.235 7.3772-111.64 34.171-64.82 53.593-73.568 149.69-19.54 214.64" fill="#405761"/>
  <g transform="translate(0,-824)" fill="#405761" aria-label="Collage">
   <path d="m775.95 438.43q-0.45573 2.7344-1.595 3.8737-1.1393 1.1393-22.331 5.013-21.191 3.8737-42.839 3.8737-35.547 0-54.46-23.014t-18.913-62.663q0-70.41 16.862-163.61 8.8867-50.13 21.875-70.41 13.672-21.191 32.812-29.622 23.926-10.482 51.042-10.482 27.344 0 36.458 1.5951 9.3424 1.3672 10.482 1.5951 2.9622 0.91146 2.9622 5.6966l-5.2409 42.383q-0.91146 5.9245-4.5573 5.9245-3.6458 0-16.862-1.8229-13.216-2.0508-21.419-2.0508-21.875 0-33.268 11.165-11.393 10.938-17.09 42.383-5.4688 31.217-10.71 84.082-5.2409 52.637-5.2409 80.664 0 33.04 29.167 33.04 8.431 0 29.395-2.7344 20.964-2.9622 23.926-2.9622 4.7852 0 4.7852 5.6966z" style="font-feature-settings:normal;font-variant-caps:normal;font-variant-ligatures:normal;font-variant-numeric:normal"/>
   <path d="m911.75 451.19q-40.332 0-59.245-24.154-18.685-24.382-18.685-70.866 0-21.647 4.7852-56.51 4.7852-34.863 8.8867-50.586 4.1016-15.951 11.621-30.99 7.5195-15.267 17.773-25.065 22.559-21.875 61.068-21.875 54.688 0 70.866 40.104 8.6588 21.419 8.6588 51.953 0 30.306-4.7851 62.891-4.5573 32.585-8.6589 48.307-4.1015 15.495-11.621 30.534-7.2917 14.811-17.546 24.609-22.559 21.647-63.118 21.647zm40.332-99.805q2.5065-12.077 6.3802-45.117 4.1016-33.268 4.1016-49.219 0-38.737-28.027-38.737-13.216 0-21.875 12.533-8.431 12.533-13.672 41.699-10.482 59.245-10.482 96.159 0 36.914 27.799 36.914 13.216 0 21.875-12.533 8.8867-12.76 13.9-41.699z" style="font-feature-settings:normal;font-variant-caps:normal;font-variant-ligatures:normal;font-variant-numeric:normal"/>
   <path d="m1160.1 69.291-41.927 372.33q-0.4558 3.1901-1.5951 4.5573t-4.3294 1.595l-45.801 1.8229q-5.013-0.45573-5.013-4.3294l42.155-374.38q0.4558-3.1901 1.5951-4.5573 1.1393-1.3672 4.3294-1.5951l44.662-1.5951q5.9244 0.68359 5.9244 6.1523z" style="font-feature-settings:normal;font-variant-caps:normal;font-variant-ligatures:normal;font-variant-numeric:normal"/>
   <path d="m1284.1 69.291-41.927 372.33q-0.4558 3.1901-1.5951 4.5573t-4.3294 1.595l-45.801 1.8229q-5.013-0.45573-5.013-4.3294l42.155-374.38q0.4558-3.1901 1.5951-4.5573 1.1393-1.3672 4.3294-1.5951l44.662-1.5951q5.9245 0.68359 5.9245 6.1523z" style="font-feature-settings:normal;font-variant-caps:normal;font-variant-ligatures:normal;font-variant-numeric:normal"/>
   <path d="m1511.5 179.12-29.622 262.73q-0.6836 5.9245-5.9245 6.1524l-46.029 1.595q-4.7851-0.45573-4.7851-4.3294l4.3294-30.99q-10.482 17.773-23.014 27.344-12.305 9.5703-27.8 9.5703t-26.432-5.2409q-10.938-5.4688-18.001-14.128-6.8359-8.8867-11.165-21.191-7.9752-21.875-7.9752-59.701 0-38.053 5.013-64.486 5.2409-26.432 9.1146-40.104 3.8737-13.9 10.254-28.483 6.6081-14.583 14.811-24.382 18.685-22.331 47.168-22.331 21.191 0 32.357 10.254 11.165 10.026 18.685 29.85l2.7344-30.99q0.4557-5.013 5.6966-5.4688l44.662-1.595q5.9245 0.45573 5.9245 5.9245zm-139 165.2q0 54.46 29.167 54.46 12.76 0 20.736-11.621 7.9753-11.849 13.672-47.168 5.9245-35.319 5.9245-51.497 0-16.178-0.2279-20.508t-0.9115-11.393q-0.6836-7.2917-2.5065-12.077-1.8229-5.013-4.7851-10.026-5.9245-9.7982-19.141-9.7982-13.216 0-20.964 11.849-7.7474 11.621-12.077 31.217-8.8867 41.927-8.8867 76.562z" style="font-feature-settings:normal;font-variant-caps:normal;font-variant-ligatures:normal;font-variant-numeric:normal"/>
   <path d="m1667.6 456.89 5.9245-48.991q-11.393 20.964-24.382 32.129-12.76 11.165-29.167 11.165-16.178 0-27.116-5.2409-10.938-5.4688-18.001-14.128-6.8359-8.8867-11.165-21.191-7.9752-21.875-7.9752-59.701 0-38.053 5.013-64.486 5.2409-26.432 9.1146-40.104 3.8737-13.9 10.254-28.483 6.6081-14.583 14.811-24.382 18.685-22.331 47.168-22.331 20.964 0 32.129 10.026 11.165 10.026 18.913 29.85l2.2787-30.534q0.4557-5.4688 5.9245-5.6966l46.029-1.595q4.7852 0.68359 4.7852 4.7852l-30.99 276.4q-6.6081 61.296-38.053 87.272-24.837 20.736-66.764 20.736-26.66 0-54.004-6.1524-3.8737-0.68359-5.2409-2.0508-1.3672-1.1393-1.3672-4.5573l4.5573-41.243q0.6836-6.1523 5.013-6.1523 2.9622 0 16.634 4.5573t30.534 4.5573q16.862 0 26.204-3.1901 9.5703-2.9622 15.267-10.254 10.026-12.305 13.672-41.016zm-54.46-112.57q0 54.46 29.167 54.46 12.76 0 20.736-11.621 7.9753-11.849 13.672-47.168 5.9245-35.319 5.9245-51.497 0-16.178-0.2279-20.508t-0.9115-11.393q-0.6836-7.2917-2.5065-12.077-1.8229-5.013-4.7851-10.026-5.9245-9.7982-19.141-9.7982-13.216 0-20.964 11.849-7.7474 11.621-12.077 31.217-8.8867 41.927-8.8867 76.562z" style="font-feature-settings:normal;font-variant-caps:normal;font-variant-ligatures:normal;font-variant-numeric:normal"/>
   <path d="m1803.6 406.08q-5.2409-13.672-7.2916-26.888-1.823-13.444-1.823-36.686t5.0131-57.422q16.634-113.93 103.45-113.93 33.496 0 51.27 23.014 17.774 23.014 17.774 59.701 0 36.686-4.5573 71.322-0.6836 6.1523-7.0638 6.3802l-112.57 3.8737q-0.2279 3.418-0.2279 9.1146 0 25.749 8.8867 40.788 9.1146 15.039 27.344 15.039 18.229 0 33.724-5.2409 15.723-5.4688 18.457-5.4688 2.7343 0 4.7851 1.8229 2.0508 1.8229 2.0508 5.013l-4.5573 40.104q-0.2279 3.418-1.3672 4.5573-0.9114 0.91146-3.8737 2.0508-27.572 7.9753-53.092 7.9753-25.521 0-39.648-6.1523t-22.786-15.723q-8.431-9.7982-13.9-23.242zm49.674-127.83-2.0508 14.583 59.473-2.9622q3.8737-0.22786 5.013-1.3672 3.418-3.418 3.418-18.685 0-15.495-1.1393-21.647-0.9115-6.3802-3.418-12.988-5.2409-14.583-18.001-14.583-12.533 0-19.824 4.3294-16.178 10.026-23.47 53.32z" style="font-feature-settings:normal;font-variant-caps:normal;font-variant-ligatures:normal;font-variant-numeric:normal"/>
  </g>
  <g transform="translate(0,-824)" fill="#788890" aria-label="Labs">
   <path d="m1128.1 538.37-32.585 289.62 87.272-3.418q5.9245 0.22786 5.9245 5.9245l-5.9245 47.168q-0.6836 5.9245-5.9244 6.1524l-140.36 5.013q-4.7852 0-4.7852-4.3294l38.965-344.76q0.4557-2.7344 1.3671-3.8737 1.1394-1.1393 4.3295-1.3672l45.801-1.595q5.9244 0.22786 5.9244 5.4688z" style="font-feature-settings:normal;font-variant-caps:normal;font-variant-ligatures:normal;font-variant-numeric:normal"/>
   <path d="m1434.3 618.35-29.622 262.73q-0.6836 5.9245-5.9245 6.1524l-46.029 1.595q-4.7852-0.45573-4.7852-4.3294l4.3295-30.99q-10.482 17.773-23.014 27.344-12.305 9.5703-27.8 9.5703t-26.432-5.2409q-10.938-5.4688-18.001-14.128-6.836-8.8867-11.165-21.191-7.9752-21.875-7.9752-59.701 0-38.053 5.013-64.486 5.2409-26.432 9.1146-40.104 3.8737-13.9 10.254-28.483 6.608-14.583 14.811-24.382 18.685-22.331 47.168-22.331 21.191 0 32.357 10.254 11.165 10.026 18.685 29.85l2.7344-30.99q0.4557-5.013 5.6966-5.4688l44.661-1.595q5.9245 0.45572 5.9245 5.9245zm-139 165.2q0 54.46 29.167 54.46 12.76 0 20.736-11.621 7.9752-11.849 13.672-47.168 5.9245-35.319 5.9245-51.497 0-16.178-0.2278-20.508-0.2279-4.3294-0.9115-11.393-0.6836-7.2917-2.5065-12.077-1.8229-5.013-4.7852-10.026-5.9244-9.7982-19.141-9.7982-13.216 0-20.964 11.849-7.7474 11.621-12.077 31.217-8.8867 41.927-8.8867 76.562z" style="font-feature-settings:normal;font-variant-caps:normal;font-variant-ligatures:normal;font-variant-numeric:normal"/>
   <path d="m1571.5 508.52-19.141 145.61q11.393-21.191 24.382-32.357 13.216-11.393 29.394-11.393 16.406 0 27.344 5.4688 10.938 5.2409 17.773 14.128 7.0638 8.6588 11.621 20.964 7.7474 21.875 7.7474 59.928 0 37.826-5.2409 64.258-5.013 26.432-8.8867 40.332-3.8737 13.672-10.482 28.255-6.3802 14.583-14.583 24.382-18.685 22.331-43.978 22.331-25.065 0-36.23-10.482-11.165-10.71-19.141-32.129l-2.5065 33.268q-0.4557 5.9245-5.6966 6.1524l-46.029 1.595q-5.0131-0.45573-5.0131-4.3294l42.383-374.38q0.4557-3.1901 1.3671-4.5573 1.1394-1.3672 4.3295-1.595l44.661-1.5951q5.9245 0.6836 5.9245 6.1524zm41.699 208.72q0-54.46-29.167-54.46-12.76 0-20.736 11.849-7.9753 11.621-13.9 46.94-5.6966 35.319-5.6966 51.497 0 16.178 0.2279 20.508 0.2279 4.3294 0.9114 11.621 0.6836 7.0638 2.5066 12.077 1.8229 4.7852 4.7851 9.5703 5.9245 10.026 19.141 10.026 13.216 0 20.964-11.621 7.7474-11.849 11.849-31.445 9.1146-41.927 9.1146-76.562z" style="font-feature-settings:normal;font-variant-caps:normal;font-variant-ligatures:normal;font-variant-numeric:normal"/>
   <path d="m1839 665.52-25.749-1.1393q-10.938 0-17.318 5.013-6.1523 5.013-6.1523 14.583 0 9.3424 3.418 20.736 4.5572 15.267 15.723 35.547 11.393 20.28 15.723 28.711 13.216 26.204 13.216 49.902 0 34.408-20.28 53.092-20.052 18.457-61.068 18.457-20.28 0-32.357-2.2786-12.077-2.0508-13.444-3.1901-1.1393-1.3672-1.1393-4.1016l5.9244-42.155q0.4558-5.6966 3.8737-5.6966 3.6459 0 13.672 2.5065t17.546 2.5065q27.8 0 27.8-22.103 0-15.723-6.836-29.395-6.6081-13.672-14.583-28.255-7.7474-14.583-12.077-23.242-4.3295-8.8867-9.1146-24.382-4.5573-15.495-4.5573-29.167 0-31.901 18.913-51.497 19.141-19.596 55.599-19.596 23.47 0 36.686 2.2786 5.6966 0.91146 5.6966 5.9245l-5.013 40.56q0 6.3802-4.1016 6.3802z" style="font-feature-settings:normal;font-variant-caps:normal;font-variant-ligatures:normal;font-variant-numeric:normal"/>
  </g>
 </g>
</svg>
