<?xml version="1.0" encoding="UTF-8" standalone="no"?>
<!-- Created with Inkscape (http://www.inkscape.org/) -->

<svg
   xmlns:dc="http://purl.org/dc/elements/1.1/"
   xmlns:cc="http://creativecommons.org/ns#"
   xmlns:rdf="http://www.w3.org/1999/02/22-rdf-syntax-ns#"
   xmlns:svg="http://www.w3.org/2000/svg"
   xmlns="http://www.w3.org/2000/svg"
   xmlns:sodipodi="http://sodipodi.sourceforge.net/DTD/sodipodi-0.dtd"
   xmlns:inkscape="http://www.inkscape.org/namespaces/inkscape"
   width="1024"
   height="1024"
   id="svg2"
   version="1.1"
   viewBox="0 0 1024 1024"
   inkscape:version="0.92.2 (5c3e80d, 2017-08-06)"
   sodipodi:docname="logo.svg"
   inkscape:export-filename="/home/alecive/Scrivania/firefoxTest1.png"
   inkscape:export-xdpi="100"
   inkscape:export-ydpi="100">
  <sodipodi:namedview
     id="base"
     pagecolor="#ffffff"
     bordercolor="#666666"
     borderopacity="1.0"
     inkscape:pageopacity="0.0"
     inkscape:pageshadow="2"
     inkscape:zoom="0.22596352"
     inkscape:cx="-625.3811"
     inkscape:cy="838.99365"
     inkscape:document-units="px"
     inkscape:current-layer="svg2"
     showgrid="false"
     inkscape:window-width="1600"
     inkscape:window-height="852"
     inkscape:window-x="0"
     inkscape:window-y="48"
     inkscape:window-maximized="1"
     inkscape:object-paths="false"
     inkscape:snap-intersection-paths="false"
     inkscape:object-nodes="true"
     inkscape:snap-smooth-nodes="true"
     inkscape:snap-nodes="true"
     showguides="true"
     inkscape:guide-bbox="true"
     inkscape:lockguides="false" />
  <defs
     id="defs4" />
  <metadata
     id="metadata7">
    <rdf:RDF>
      <cc:Work
         rdf:about="">
        <dc:format>image/svg+xml</dc:format>
        <dc:type
           rdf:resource="http://purl.org/dc/dcmitype/StillImage" />
        <dc:title />
      </cc:Work>
    </rdf:RDF>
  </metadata>
  <g
     transform="translate(0,-98.519692)"
     inkscape:label="Livello 1"
     inkscape:groupmode="layer"
     id="layer1" />
  <g
     transform="matrix(1.1,0,0,0.44444,101.4198,751.35202)"
     id="g2036">
    <g
       transform="matrix(1.0526,0,0,1.2857,-1.3474133,-14.324267)"
       style="opacity:0.4"
       id="g3712" />
  </g>
  <g
     id="g3541"
     transform="translate(103.9798,724.56695)" />
  <g
     id="g3536"
     transform="translate(103.9798,724.56695)" />
  <g
     transform="translate(-645.88727,100.30042)"
     id="g4076">
    <g
       id="g4038"
       transform="translate(-988.44542,730.01011)" />
  </g>
  <g
     aria-label="L"
     style="font-style:normal;font-variant:normal;font-weight:normal;font-stretch:normal;font-size:400px;line-height:1.25;font-family:Devonshire;-inkscape-font-specification:'Devonshire, Normal';font-variant-ligatures:normal;font-variant-caps:normal;font-variant-numeric:normal;font-feature-settings:normal;text-align:start;letter-spacing:0px;word-spacing:0px;writing-mode:lr-tb;text-anchor:start;fill:#2f4047;fill-opacity:1;stroke:none"
     id="text3839"
     transform="matrix(1.3566899,-0.00504995,0.00550305,1.2449875,1041.1846,282.99323)" />
  <text
     xml:space="preserve"
     style="font-style:normal;font-weight:normal;font-size:40px;line-height:1.25;font-family:sans-serif;letter-spacing:0px;word-spacing:0px;fill:#000000;fill-opacity:1;stroke:none"
     x="-291.02454"
     y="-315.33878"
     id="text3843"><tspan
       sodipodi:role="line"
       id="tspan3841"
       x="-291.02454"
       y="-279.94815" /></text>
  <rect
     style="fill:#d8d7d2;fill-opacity:1;stroke:none;stroke-width:6.54032516"
     id="rect4154"
     width="758.67767"
     height="758.67767"
     x="131.17355"
     y="134.14877"
     ry="379.33884" />
  <path
     style="fill:#e5616b;fill-opacity:1;fill-rule:nonzero;stroke:none;stroke-width:2.56236768"
     d="M 489.6929,62.000032 C 396.24139,67.327355 303.74223,100.87811 226.30026,164.15529 32.553524,322.46389 6.4027976,606.3499 167.89285,798.22444 329.3829,990.09888 617.36604,1017.3115 811.11277,859.00297 888.5956,795.6924 939.191,712.27312 961.78583,622.71347 c 0.94024,-6.71479 1.88598,-68.12728 -69.79552,-74.90035 -82.55836,-7.79804 -146.30553,-13.82253 -227.41108,-21.48703 0,0 -44.10484,-4.44308 -102.87622,43.57843 -32.29529,26.38822 -80.28601,21.85368 -107.20441,-10.1295 -26.9184,-31.98318 -22.55962,-79.29154 9.73567,-105.67965 0,0 57.83658,-40.92074 62.50037,-91.55124 6.93019,-75.19362 14.31304,-155.44209 20.64959,-224.17372 0,0 12.18519,-73.951854 -57.69133,-76.370378 z"
     id="path4871"
     inkscape:connector-curvature="0"
     sodipodi:nodetypes="csssccccscccc" />
  <path
     style="fill:#fcd67c;fill-opacity:1;fill-rule:nonzero;stroke:none;stroke-width:2.57435274"
     d="M 510.71478,132.66117 C 425.52338,132.6498 339.95867,161.07806 269.4099,219.40669 108.15154,352.73309 86.387337,591.81286 220.79809,753.40825 355.20875,915.0037 594.89732,937.92172 756.15579,804.59537 836.78277,737.93392 882.53637,644.82888 891.33882,548.1935 l -75.71256,-7.23917 -75.71254,-7.2369 -75.70591,-7.23919 c 0,0 -44.05054,-4.49026 -102.74955,44.04129 -32.25551,26.66848 -80.18713,22.08579 -107.07238,-10.23708 -26.88526,-32.32288 -22.53184,-80.1337 9.72368,-106.80209 0,0 57.76535,-41.35547 62.4234,-92.5236 l 5.18794,-56.97612 c 0.54686,-6.00752 1.11047,-12.21287 1.68611,-18.53544 1.68723,-18.57979 3.47722,-38.20386 5.18344,-56.94736 l 1.69264,-18.57535 4.30531,-47.30762 c 0.78526,-8.62682 1.42678,-15.6767 1.8727,-20.57615 l 0.69602,-7.63665 c -12.1102,-1.15719 -24.27223,-1.73987 -36.44234,-1.7409 z"
     id="path3061-5-2"
     inkscape:connector-curvature="0" />
  <path
     style="fill:#15c68b;fill-opacity:1;fill-rule:nonzero;stroke:none;stroke-width:2.55543756"
     d="m 510.97766,210.76034 c -67.65214,-0.0113 -135.59668,22.56351 -191.624,68.88603 -128.05531,105.87419 -145.34015,295.73948 -38.60463,424.06205 106.73552,128.32246 297.08375,146.52327 425.13906,40.6492 64.03123,-52.94014 100.37078,-126.87143 107.35155,-203.61392 l -75.15632,-7.18597 -75.1498,-7.18384 c 0,0 -43.72694,-4.45726 -101.99476,43.71762 -32.01856,26.4725 -79.59809,21.92348 -106.28585,-10.16174 -26.68776,-32.08532 -22.36632,-79.54467 9.65226,-106.01729 0,0 57.34101,-41.05154 61.96484,-91.84363 l 5.14757,-56.55965 c 0.54285,-5.96337 1.1045,-12.123 1.6759,-18.39911 1.67485,-18.44312 3.45171,-37.92094 5.1454,-56.52669 l 1.68026,-18.43883 c -9.61705,-0.92015 -19.27688,-1.38264 -28.94148,-1.38423 z"
     id="path3063-5-9"
     inkscape:connector-curvature="0" />
  <path
     style="fill:#2197e2;fill-opacity:1;fill-rule:nonzero;stroke:none;stroke-width:2.5659678"
     d="m 511.2315,285.14051 c -50.94877,-0.0113 -102.11792,16.99072 -144.31028,51.87466 -96.43834,79.73373 -109.45417,222.71806 -29.0717,319.35762 80.38246,96.63956 223.7289,110.34454 320.16723,30.61093 48.21985,-39.86749 75.58552,-95.5428 80.84273,-153.33752 l -75.45729,-7.21558 c 0,0 -43.90934,-4.47575 -102.41728,43.89764 -32.15052,26.58157 -79.92393,22.01392 -106.72168,-10.20361 -26.79774,-32.21753 -22.4607,-79.87028 9.68983,-106.45175 0,0 57.57952,-41.22296 62.2224,-92.22433 l 5.16879,-56.79054 c 0.54508,-5.98795 1.10904,-12.17296 1.68281,-18.47493 -7.2426,-0.69298 -14.51717,-1.04134 -21.79556,-1.04259 z"
     id="path3065-2-4"
     inkscape:connector-curvature="0" />
  <path
     id="path3067-3"
     style="fill:#405761;fill-opacity:1;fill-rule:nonzero;stroke:none;stroke-width:2.5869348"
     d="m 394.94893,609.03671 c 54.0286,64.95579 150.36887,74.16689 215.18935,20.57421 32.4073,-26.79388 50.8065,-64.21944 54.34104,-103.06091 0,0 -44.26744,-4.51255 -103.25342,44.25613 -32.41318,26.7988 -80.57794,22.19371 -107.59466,-10.2871 -27.01675,-32.48081 -22.64327,-80.52378 9.76992,-107.32245 0,0 58.04874,-41.55778 62.72953,-92.97592 -38.93975,-3.72445 -79.2346,7.37725 -111.64189,34.17115 -64.82049,53.59256 -73.56846,149.68911 -19.53987,214.64489"
     inkscape:connector-curvature="0" />
</svg>
