<?xml version="1.0" encoding="utf-8"?>
<!-- Generator: Adobe Illustrator 16.0.0, SVG Export Plug-In . SVG Version: 6.00 Build 0)  -->
<!DOCTYPE svg PUBLIC "-//W3C//DTD SVG 1.1//EN" "http://www.w3.org/Graphics/SVG/1.1/DTD/svg11.dtd">
<svg version="1.1" id="Layer_1" xmlns="http://www.w3.org/2000/svg" xmlns:xlink="http://www.w3.org/1999/xlink" x="0px" y="0px"
	 width="2000px" height="416.608px" viewBox="0 283.796 2000 416.608" enable-background="new 0 283.796 2000 416.608"
	 xml:space="preserve">
<g id="Layer_1_1_">
</g>
<g id="Layer_2">
</g>
<g id="Layer_3">
</g>
<g id="Layer_4">
	
		<linearGradient id="SVGID_1_" gradientUnits="userSpaceOnUse" x1="420.9028" y1="291.3423" x2="420.9028" y2="727.4565" gradientTransform="matrix(1 0 0 -1 579.04 1003.7441)">
		<stop  offset="0" style="stop-color:#080D15"/>
		<stop  offset="1" style="stop-color:#316684"/>
	</linearGradient>
	<path fill="url(#SVGID_1_)" d="M2059.369,276.36c-1.063-0.033-2.125-0.072-3.196-0.072c-39.566,0-73.275,22.284-86.119,53.503
		c-9.031-6.438-20.056-10.264-31.994-10.264c-14.996,0-28.578,5.998-38.533,15.694c-10.131-11.561-24.961-18.896-41.541-18.896
		c-19.5,0-36.604,10.131-46.437,25.395c-16.415-13.751-38.515-22.191-62.849-22.191c-19.029,0-36.701,5.157-51.354,13.98
		c-13.773-20.819-39.229-34.799-68.361-34.799c-30.858,0-57.594,15.68-70.688,38.562c-20.038-13.392-44.868-19.774-70.62-16.188
		c-48.695,6.785-84.53,46.921-87.65,94.125c-5.481,2.153-10.638,4.842-15.388,7.993c-6.732-10.093-18.303-16.64-31.327-16.371
		c-4.173-1.83-8.555-3.338-13.102-4.498c-7.485-25.173-30.438-43.54-57.624-44.344c-9.363-30.358-37.969-52.102-71.297-51.313
		c-40.201,0.949-72.021,34.313-71.071,74.519c0,0.025,0.002,0.05,0.002,0.08c-11.21,0.728-20.991,6.43-27.233,14.909
		c-6.343-2.868-13.393-4.443-20.821-4.269c-20.112,0.476-37.029,13.289-43.707,31.033c-14.994-8.765-32.695-13.124-51.126-11.548
		c-17.884-40.715-61.149-66.363-107.365-59.926c-55.755,7.77-94.658,59.261-86.888,115.02c0.004,0.033,0.009,0.07,0.014,0.107
		c-15.475,2.812-28.161,12.31-35.475,25.105c-9.284-2.98-19.341-4.035-29.646-2.602c-11.85,1.651-22.532,6.318-31.407,13.101
		c-4.276-1.198-8.843-1.644-13.531-1.177c-3.98,0.396-7.738,1.429-11.211,2.958c-7.283-28.038-33.375-47.7-62.875-46.354
		c-11.617-29.564-41.776-49.094-74.948-45.8c-40.02,3.97-69.242,39.63-65.271,79.649c0.003,0.024,0.005,0.049,0.009,0.076
		c-11.125,1.567-20.447,7.991-26.031,16.919c-3.959-1.444-8.145-2.386-12.468-2.749c-5.847-20.655-24.792-35.801-47.326-35.801
		c-5.354,0-10.497,0.886-15.326,2.467c-5.996-38.32-38.155-67.957-77.631-70.061c-11.566-40.924-49.162-70.924-93.786-70.924
		c-53.831,0-97.473,43.645-97.473,97.479c0,0.033,0.002,0.066,0.002,0.104c-15.028,0.62-28.297,7.942-36.914,19.097
		c-3.896-1.875-8.01-3.362-12.287-4.438c-28.385-8.457-58.534,2.109-75.698,25.104c-14.722-4.755-30.085-3.433-43.247,2.672
		l-0.036,240.976h2118.816L2059.369,276.36z"/>
</g>
<g id="Layer_5">
</g>
</svg>
