<?xml version="1.0" encoding="utf-8"?>
<!-- Generator: Adobe Illustrator 16.0.0, SVG Export Plug-In . SVG Version: 6.00 Build 0)  -->
<!DOCTYPE svg PUBLIC "-//W3C//DTD SVG 1.1//EN" "http://www.w3.org/Graphics/SVG/1.1/DTD/svg11.dtd">
<svg version="1.1" xmlns="http://www.w3.org/2000/svg" xmlns:xlink="http://www.w3.org/1999/xlink" x="0px" y="0px" width="2000px"
	 height="700.404px" viewBox="0 0 2000 700.404" enable-background="new 0 0 2000 700.404" xml:space="preserve">
<g id="Layer_1">
</g>
<g id="Layer_2">
</g>
<g id="Layer_3">
</g>
<g id="Layer_4">
	<linearGradient id="SVGID_1_" gradientUnits="userSpaceOnUse" x1="1000.1099" y1="823.0488" x2="1000.1099" y2="153.8536">
		<stop  offset="0" style="stop-color:#080D15"/>
		<stop  offset="1" style="stop-color:#265270"/>
	</linearGradient>
	<path fill="url(#SVGID_1_)" d="M2059.44,239.72c-15.296-11.286-34.915-18.099-56.344-18.099c-18.335,0-35.363,4.967-49.473,13.469
		c-13.273-20.057-37.79-33.528-65.859-33.528c-39.522,0-72.027,26.688-75.968,60.894c-6.093-2.432-12.726-3.809-19.689-3.809
		c-7.181,0-14.026,1.443-20.275,4.023c-9.688-10.068-23.272-16.364-38.348-16.364c-25.826,0-47.35,18.395-52.199,42.797
		c-6.391,5.46-11.681,11.966-15.497,19.273c-6.84-5.882-15.481-9.796-25.143-10.68c-9.223-0.845-18.037,1.179-25.591,5.316
		c-4.497-1.487-9.193-2.608-14.047-3.323c-6.794-5.796-15.363-9.641-24.939-10.516c-15.791-1.446-30.386,5.486-39.475,17.116
		c-12.27-12.349-29.531-20.816-49.229-22.618c-15.402-1.408-30.093,1.457-42.599,7.517c-9.611-17.874-29.18-31.077-52.762-33.233
		c-30.854-2.823-58.377,14.185-66.893,39.418c-7.388-3.437-15.771-5.86-24.821-6.924c-7.307-0.857-14.439-0.735-21.194,0.193
		c-5.691-30.907-69.244-31.437-79.837-8.663c-19.596-38.662-128.87-33.188-140.169,17.301
		c-0.707-27.894-46.253-60.729-86.415-25.201c-4.528-1.676-9.436-2.881-14.646-3.492c-5.61-0.658-11.096-0.584-16.286,0.119
		c-0.917-0.506-1.848-0.986-2.808-1.417c-4.576-16.518-19.867-28.476-37.78-28.053c-8.91,0.211-17.023,3.475-23.41,8.733
		c-8.843-15.774-25.888-26.261-45.226-25.804c-14.618,0.348-27.629,6.882-36.605,17.032c-9.68-10.659-25.728-17.43-43.74-17.006
		c-24.353,0.577-44.508,14.13-49.94,31.968c-3.706-1.564-7.849-2.41-12.226-2.308c-0.83,0.021-1.647,0.078-2.457,0.163
		c-4.487-31.992-31.947-56.608-65.176-56.608c-18.643,0-35.442,7.785-47.42,20.24c-7.732-3.192-16.196-4.976-25.083-4.976
		c-8.611,0-16.812,1.701-24.35,4.708c-4.871-42.306-45.074-75.31-93.952-75.31c-34.713,0-65.039,16.662-81.451,41.465
		c-17.455-10.516-38.513-16.657-61.188-16.657c-28.989,0-55.322,10.061-74.882,26.441c-11.711-18.188-32.091-30.257-55.329-30.257
		c-19.754,0-37.425,8.743-49.495,22.516c-11.862-11.559-28.04-18.7-45.914-18.7c-14.223,0-27.356,4.558-38.121,12.227
		c-13.307-32.347-45.417-56.63-84.568-62.414l0.155,595.714h2118.817L2059.44,239.72z"/>
</g>
<g id="Layer_5">
</g>
</svg>
