<?xml version="1.0" encoding="utf-8"?>
<!-- Generator: Adobe Illustrator 16.0.0, SVG Export Plug-In . SVG Version: 6.00 Build 0)  -->
<!DOCTYPE svg PUBLIC "-//W3C//DTD SVG 1.1//EN" "http://www.w3.org/Graphics/SVG/1.1/DTD/svg11.dtd">
<svg version="1.1" xmlns="http://www.w3.org/2000/svg" xmlns:xlink="http://www.w3.org/1999/xlink" x="0px" y="0px" width="2000px"
	 height="700.404px" viewBox="0 0 2000 700.404" enable-background="new 0 0 2000 700.404" xml:space="preserve">
<g id="Layer_1">
</g>
<g id="Layer_2">
</g>
<g id="Layer_3">
</g>
<g id="Layer_4">
	<linearGradient id="SVGID_1_" gradientUnits="userSpaceOnUse" x1="1017.6875" y1="720.2324" x2="987.6254" y2="167.4395">
		<stop  offset="0" style="stop-color:#080D15"/>
		<stop  offset="1" style="stop-color:#265270"/>
	</linearGradient>
	<path fill="url(#SVGID_1_)" d="M2059.107,70.656c-2.229-0.759-4.539-1.384-6.941-1.818c-21.614-3.905-42.027,7.477-47.567,25.792
		c-3.091-1.928-6.581-3.337-10.387-4.023c-3.933-0.712-7.816-0.597-11.492,0.196c-4.302-6.467-11.109-11.25-19.352-12.74
		c-16.083-2.904-31.471,7.771-34.375,23.85c-0.344,1.896-0.482,3.79-0.457,5.647c-7.038,0.124-13.712,1.829-19.511,4.806
		c-6.109-9.936-16.914-17.551-30.161-19.947c-18.486-3.341-36.088,4.508-44.26,18.312c-4.851-24.257-27.481-43.853-56.254-46.416
		c-26.727-2.379-50.839,10.652-61.386,30.97c-5.72-4.893-12.936-8.141-21-8.856c-10.133-0.899-19.668,2.332-26.975,8.29
		c-6.143-8.424-15.719-14.271-26.921-15.266c-13.177-1.173-25.341,4.645-32.896,14.365c-10.264-10.277-24.686-17.307-41.117-18.768
		c-12.862-1.142-25.107,1.278-35.529,6.359c-8.059-14.893-24.41-25.87-44.093-27.616c-27.709-2.466-52.166,14.219-57.065,37.954
		c-4.118-2.083-8.683-3.463-13.564-3.896c-5.038-0.449-9.924,0.139-14.469,1.556c-6.166-7.663-15.297-12.924-25.866-13.867
		c-20.616-1.831-38.807,13.39-40.64,34.007c-0.217,2.429-0.176,4.831,0.064,7.17c-8.865,0.96-17.091,3.869-24.066,8.286
		c-8.836-11.836-23.332-20.217-40.316-21.729c-25.835-2.297-48.836,12.044-55.802,33.232c-7.19-7.303-16.979-12.667-28.317-14.719
		c-20.849-3.768-40.729,4.767-50.466,19.994c-4.149-4.253-9.595-7.319-15.882-8.455c-7.905-1.427-15.632,0.439-21.803,4.604
		c-4.233-7.059-11.35-12.338-20.086-13.917c-10.278-1.855-20.254,1.854-26.889,8.962c-7.34-8.813-18.178-15.36-31-17.676
		c-10.027-1.814-19.83-0.781-28.388,2.475c-5.28-12.28-17.357-22.074-32.708-24.846c-21.615-3.906-42.027,7.477-47.567,25.791
		c-3.091-1.928-6.581-3.337-10.387-4.023c-3.933-0.712-7.816-0.596-11.492,0.196c-4.301-6.467-11.109-11.25-19.351-12.739
		c-16.083-2.905-31.468,7.77-34.375,23.849c-0.341,1.897-0.48,3.79-0.457,5.647c-7.036,0.124-13.712,1.829-19.511,4.806
		c-6.109-9.936-16.915-17.551-30.161-19.946c-23.067-4.169-44.769,9.075-48.476,29.577c0,0-19.29-3.039-41.067,4.382
		c-22.178-11.842-42.886-12.857-42.886-12.857c0.656-24.836-21.455-45.571-49.392-46.314c-16.048-0.422-30.513,5.845-40.056,15.955
		c-6.045-4.885-13.422-8.497-21.606-10.353c0.478-2.164,0.775-4.407,0.838-6.707c0.517-19.472-14.848-35.675-34.323-36.193
		c-9.986-0.267-19.095,3.661-25.688,10.166c-4.098-1.821-8.604-2.896-13.366-3.024c-4.609-0.122-9.028,0.672-13.106,2.176
		c-2.011-22.729-23.071-40.98-49.252-41.674c-18.592-0.494-35.074,7.998-44.218,21.048c-9.2-5.877-20.388-9.469-32.536-9.789
		c-15.533-0.414-29.776,4.597-40.486,13.098c-6.014-9.914-16.759-16.666-29.205-16.997c-10.58-0.283-20.172,4.147-26.828,11.363
		c-6.19-6.367-14.759-10.422-24.329-10.679c-7.617-0.205-14.717,2.054-20.597,6.01c-7.663-20.144-28.798-34.936-54.047-35.608
		c-30.889-0.814-56.728,19.79-59.618,46.693c-8.112-14.47-24.689-24.625-44.083-25.139c-18.592-0.494-35.074,7.998-44.218,21.048
		c-9.2-5.877-20.388-9.469-32.536-9.789c-5.573-0.149-10.977,0.411-16.116,1.572l-0.154,677.933h2118.436L2059.107,70.656z"/>
</g>
<g id="Layer_5">
</g>
</svg>
