<?xml version="1.0" encoding="utf-8"?>
<!-- Generator: Adobe Illustrator 16.0.0, SVG Export Plug-In . SVG Version: 6.00 Build 0)  -->
<!DOCTYPE svg PUBLIC "-//W3C//DTD SVG 1.1//EN" "http://www.w3.org/Graphics/SVG/1.1/DTD/svg11.dtd">
<svg version="1.1" xmlns="http://www.w3.org/2000/svg" xmlns:xlink="http://www.w3.org/1999/xlink" x="0px" y="0px" width="2000px"
	 height="700.404px" viewBox="0 0 2000 700.404" enable-background="new 0 0 2000 700.404" xml:space="preserve">
<g id="Layer_1">
</g>
<g id="Layer_2">
</g>
<g id="Layer_3">
</g>
<g id="Layer_4">
	<linearGradient id="SVGID_1_" gradientUnits="userSpaceOnUse" x1="999.8125" y1="842.1943" x2="999.8124" y2="57.2042">
		<stop  offset="0" style="stop-color:#080D15"/>
		<stop  offset="1" style="stop-color:#265270"/>
	</linearGradient>
	<path fill="url(#SVGID_1_)" d="M2059.107,105.845c-5.606,1.591-10.863,3.878-15.636,6.756
		c-9.189-13.889-26.166-23.215-45.599-23.215c-27.365,0-49.872,18.476-52.604,42.16c-4.219-1.687-8.81-2.639-13.63-2.639
		c-4.975,0-9.713,1-14.04,2.788c-6.707-6.973-16.112-11.332-26.551-11.332c-20.355,0-36.858,16.5-36.858,36.854
		c0,2.402,0.255,4.747,0.689,7.024c-8.596,1.705-16.397,5.275-22.85,10.21c-9.688-10.821-24.623-17.771-41.393-17.771
		c-22.334,0-41.423,12.319-49.173,29.725c-4.22,3.851-7.806,8.285-10.582,13.194c-5.54-5.094-12.634-8.597-20.667-9.599
		c-10.094-1.267-19.736,1.628-27.254,7.319c-5.838-8.637-15.201-14.823-26.356-16.217c-13.129-1.641-25.491,3.733-33.393,13.18
		c-9.889-10.637-24.048-18.173-40.42-20.222c-12.81-1.603-25.136,0.382-35.733,5.083c-7.522-15.169-23.469-26.719-43.077-29.171
		c-27.604-3.451-52.638,12.35-58.385,35.893c-4.04-2.229-8.553-3.769-13.414-4.376c-5.021-0.626-9.924-0.216-14.521,1.038
		c-5.884-7.88-14.821-13.464-25.352-14.78c-20.536-2.567-39.261,11.995-41.828,32.531c-0.305,2.419-0.35,4.821-0.192,7.17
		c-8.892,0.641-17.217,3.256-24.344,7.42c-8.409-12.144-22.598-21.035-39.518-23.153c-25.6-3.202-48.979,10.153-56.821,30.89
		c-6.074-15.245-21.1-25.863-38.467-25.457c-9.407,0.224-17.966,3.671-24.708,9.222c-9.334-16.65-27.322-27.719-47.735-27.235
		c-15.427,0.364-29.159,7.262-38.637,17.977c-10.216-11.25-27.154-18.396-46.165-17.947c-25.547,0.604-46.709,14.74-52.599,33.396
		c-10.325-10.376-26.569-16.876-44.715-16.447c-18.521,0.438-34.739,7.987-44.504,19.215c-5.631-6.208-14.665-9.614-24.25-8.278
		c-0.083,0.015-0.165,0.033-0.247,0.045c-3.053-14.31-16.669-24.046-31.39-21.996c-3.033,0.422-5.876,1.326-8.486,2.604
		c-6.415-21.225-26.964-35.471-49.486-33.548c-9.778-22.261-33.434-36.282-58.704-32.765c-30.485,4.248-51.754,32.403-47.507,62.888
		c0.003,0.019,0.004,0.04,0.008,0.06c-8.461,1.535-15.398,6.731-19.397,13.727c-5.075-1.63-10.576-2.207-16.209-1.423
		c-2.387,0.333-4.686,0.895-6.883,1.649c-8.237-16.741-23.158-31.123-42.838-39.198c-30.862-12.661-64.279-6.067-84.284,14.172
		c-4.988-7.909-12.359-14.422-21.668-18.242c-11.701-4.798-24.209-4.463-35.079-0.086c-4.202-12.257-13.42-22.728-26.352-28.029
		c-15.21-6.239-31.792-3.812-44.342,4.947c-8.405-15.977-22.939-29.634-41.915-37.417c-14.844-6.091-30.277-7.723-44.527-5.528
		c-4.082-20.642-19.46-39.691-42.183-49.014c-31.993-13.125-67.173-2.316-81.721,24.066c-4.127-3.991-9.038-7.311-14.674-9.624
		c-5.818-2.385-11.839-3.488-17.755-3.473c-4.497-11.373-13.404-20.98-25.607-25.983c-23.8-9.765-51.006,1.612-60.77,25.411
		c-1.154,2.809-1.987,5.671-2.565,8.542c-10.872-2.128-21.708-1.695-31.621,0.979C5.492,42.508-8.639,27.223-28.247,19.18
		c-10.296-4.224-20.918-5.954-31.082-5.499l-0.154,698.724h2118.435L2059.107,105.845z"/>
</g>
<g id="Layer_5">
</g>
</svg>
