<?xml version="1.0" encoding="UTF-8" standalone="no"?>
<!-- Created with Inkscape (http://www.inkscape.org/) -->

<svg
   xmlns:dc="http://purl.org/dc/elements/1.1/"
   xmlns:cc="http://creativecommons.org/ns#"
   xmlns:rdf="http://www.w3.org/1999/02/22-rdf-syntax-ns#"
   xmlns:svg="http://www.w3.org/2000/svg"
   xmlns="http://www.w3.org/2000/svg"
   xmlns:sodipodi="http://sodipodi.sourceforge.net/DTD/sodipodi-0.dtd"
   xmlns:inkscape="http://www.inkscape.org/namespaces/inkscape"
   width="357.46179mm"
   height="156.11977mm"
   viewBox="0 0 357.46179 156.11977"
   version="1.1"
   id="svg72068"
   sodipodi:docname="backup-clouds.svg"
   inkscape:version="0.92.1 r15371">
  <defs
     id="defs72062" />
  <sodipodi:namedview
     id="base"
     pagecolor="#ffffff"
     bordercolor="#666666"
     borderopacity="1.0"
     inkscape:pageopacity="0.0"
     inkscape:pageshadow="2"
     inkscape:zoom="1.979899"
     inkscape:cx="252.61395"
     inkscape:cy="136.37009"
     inkscape:document-units="mm"
     inkscape:current-layer="layer1"
     showgrid="false"
     fit-margin-top="0"
     fit-margin-left="0"
     fit-margin-right="0"
     fit-margin-bottom="0"
     inkscape:window-width="1920"
     inkscape:window-height="1017"
     inkscape:window-x="-8"
     inkscape:window-y="-8"
     inkscape:window-maximized="1" />
  <metadata
     id="metadata72065">
    <rdf:RDF>
      <cc:Work
         rdf:about="">
        <dc:format>image/svg+xml</dc:format>
        <dc:type
           rdf:resource="http://purl.org/dc/dcmitype/StillImage" />
        <dc:title></dc:title>
      </cc:Work>
    </rdf:RDF>
  </metadata>
  <g
     inkscape:label="Layer 1"
     inkscape:groupmode="layer"
     id="layer1"
     transform="translate(75.921375,-31.463927)">
    <path
       style="opacity:1;fill:#1c97e3;fill-opacity:1;fill-rule:nonzero;stroke:none;stroke-width:0.14478001;stroke-miterlimit:4;stroke-dasharray:none;stroke-opacity:1"
       id="path72672"
       sodipodi:type="arc"
       sodipodi:cx="268.13654"
       sodipodi:cy="120.36686"
       sodipodi:rx="7.1815481"
       sodipodi:ry="7.1815481"
       sodipodi:start="0"
       sodipodi:end="6.2507088"
       d="m 275.31808,120.36686 a 7.1815481,7.1815481 0 0 1 -7.12324,7.18131 7.1815481,7.1815481 0 0 1 -7.23891,-7.0647 7.1815481,7.1815481 0 0 1 7.0057,-7.29603 7.1815481,7.1815481 0 0 1 7.35267,6.94623"
       sodipodi:open="true" />
    <path
       inkscape:connector-curvature="0"
       style="fill:#1c97e3;fill-opacity:1;fill-rule:nonzero;stroke:none;stroke-width:0.35322505"
       d="m -51.935015,187.58327 v -1.05146 c 0.04145,-0.15709 0.08012,-0.31418 0.129864,-0.46715 -0.04421,-0.0427 -0.08704,-0.0882 -0.129864,-0.13091 v -15.18324 c 0.780567,-0.76616 1.675803,-1.41937 2.663598,-1.92098 -1.250287,-1.28157 -2.181442,-2.8732 -2.663598,-4.64951 v -5.58517 c 0.215519,-0.79788 0.519457,-1.55995 0.904905,-2.27238 -0.316371,-0.12542 -0.617546,-0.28113 -0.904905,-0.45615 v -10.31046 c 0.920102,-0.56225 1.999082,-0.89298 3.158189,-0.89298 3.348841,0 6.063556,2.70785 6.063556,6.04823 0,0.0194 -0.0028,0.0386 -0.0028,0.0579 0.364725,-0.0372 0.734978,-0.0579 1.109372,-0.0579 2.41078,0 4.628143,0.80476 6.418612,2.14697 0.835828,-0.43271 1.783561,-0.68213 2.7907,-0.68213 2.528208,0 4.691694,1.5434 5.602123,3.73585 1.07069,-0.35828 2.210454,-0.56085 3.401339,-0.56085 1.052728,0 2.066776,0.15847 3.026944,0.44097 1.077597,-0.97839 2.504723,-1.58062 4.076909,-1.58062 1.069308,0 2.0723,0.27838 2.94543,0.76345 1.949347,-2.05052 4.6999849,-3.33485 7.7573211,-3.33485 3.3087766,0 6.26525746,1.49794 8.2284183,3.85022 2.2463785,0.0579 4.2869052,0.93017 5.8397495,2.33303 1.1038492,-0.38446 2.2864421,-0.60357 3.5215321,-0.60357 2.499198,0 4.791166,0.86127 6.613407,2.29305 0.577481,-0.77999 1.501732,-1.28848 2.548933,-1.28848 1.476858,0 2.714709,1.01011 3.067001,2.37437 0.773668,-0.21498 1.586004,-0.33899 2.428747,-0.33899 2.622147,0 4.976285,1.11619 6.631364,2.89113 1.655079,-1.77494 4.009208,-2.89113 6.629981,-2.89113 4.235791,0 7.782197,2.90213 8.776894,6.81715 0.961554,-0.64078 2.117891,-1.01561 3.361278,-1.01561 2.767214,0 5.097863,1.85071 5.824552,4.37801 0.0801,0 0.158872,-0.0109 0.239005,-0.0109 3.768819,0 7.074836,1.94578 8.982735,4.88237 2.106843,0.41205 3.817182,1.91411 4.530056,3.8916 0.812346,0.16397 1.583237,0.44373 2.301636,0.80889 1.076213,-1.68533 2.960633,-2.80568 5.113061,-2.80568 3.181673,0 5.787247,2.44602 6.038684,5.55487 0.150591,-0.007 0.298415,-0.0219 0.451763,-0.0219 2.286437,0 4.368417,0.85027 5.962712,2.24346 0.866212,-0.47406 1.859547,-0.74553 2.917795,-0.74553 1.134241,0 2.191116,0.31556 3.098783,0.85577 1.047201,-0.54571 2.235325,-0.85852 3.499423,-0.85852 0.20309,0 0.4048,0.0138 0.60512,0.0303 0.87313,-2.26963 3.07253,-3.88468 5.65601,-3.88468 2.38177,0 4.43749,1.37389 5.42943,3.36656 0.88418,-0.23566 1.80981,-0.37346 2.76997,-0.37346 1.91205,0 3.70114,0.50575 5.25537,1.38219 1.65784,-2.13321 4.24408,-3.51127 7.15912,-3.51127 3.14851,0 5.91987,1.60267 7.54455,4.03352 1.95626,-2.53284 5.0205,-4.17269 8.47572,-4.17269 0.64794,0 1.2793,0.0661 1.89547,0.17639 -0.0442,-0.29489 -0.0746,-0.59394 -0.0746,-0.90124 0,-3.34035 2.71472,-6.0482 6.06356,-6.0482 1.77804,0 3.37094,0.76757 4.48032,1.983 1.032,-2.03814 2.81142,-3.62839 4.98182,-4.41939 -0.0788,-0.47815 -0.12987,-0.96601 -0.12987,-1.46621 0,-2.65688 1.15635,-5.03813 2.98411,-6.69178 -0.44761,-1.07071 -0.69629,-2.24483 -0.69629,-3.47676 0,-4.99266 4.05757,-9.04131 9.06425,-9.04131 1.58462,0 3.07391,0.40926 4.36979,1.12169 0.66591,-4.33803 4.41263,-7.66325 8.94821,-7.66325 0.13953,0 0.27631,0.0138 0.41446,0.0208 0.93391,-2.14009 3.07114,-3.63802 5.56069,-3.63802 1.32073,0 2.53926,0.4258 3.53534,1.14102 1.65368,-1.0432 3.60855,-1.65643 5.70987,-1.65643 4.23718,0 7.8872,2.46119 9.62241,6.02343 1.61638,-0.97843 3.50769,-1.55307 5.53857,-1.55307 0.30117,0 0.59683,0.0208 0.89107,0.0455 0,-0.0152 -0.003,-0.0303 -0.003,-0.0455 0,-5.89523 4.79117,-10.67565 10.70277,-10.67565 0.82199,0 1.62051,0.10199 2.39005,0.277 -0.19205,-0.80066 -0.30533,-1.6316 -0.30533,-2.49149 0,-5.89665 4.79115,-10.6757 10.70276,-10.6757 0.98918,0 1.94243,0.14471 2.85287,0.3955 0.98918,-2.00088 3.04766,-3.38031 5.43495,-3.38031 0.71288,0 1.39397,0.12816 2.02947,0.35415 1.95764,-2.13872 4.76493,-3.48781 7.89549,-3.48781 2.26018,0 4.35459,0.70005 6.0829,1.89343 v 17.55895 c -0.0539,0.0372 -0.10639,0.0772 -0.16027,0.113 0.0538,0.0233 0.10637,0.0524 0.16027,0.0772 v 41.01592 c -0.0483,0.0441 -0.0953,0.0882 -0.14368,0.13092 0.0483,0.0138 0.0953,0.0289 0.14368,0.0414 V 187.5837 Z M 193.37447,158.67891 c -0.0359,0.0537 -0.0705,0.10612 -0.10639,0.15847 0.0346,0.0346 0.0636,0.073 0.0967,0.10749 0.0346,-0.0551 0.0663,-0.11161 0.10223,-0.16675 -0.0331,-0.0317 -0.0608,-0.0661 -0.0925,-0.0992 m 44.80455,-16.15475 c -0.003,0 -0.004,0 -0.006,0 0.003,0.008 0.004,0.0166 0.006,0.0247 0,-0.007 0,-0.0152 0,-0.0233"
       id="path8135" />
    <path
       inkscape:connector-curvature="0"
       style="fill:#9ed9ff;fill-opacity:1;fill-rule:nonzero;stroke:none;stroke-width:0.35444009"
       d="m 39.606782,183.69142 c -1.209963,-4.12551 -5.590692,-6.50294 -9.783363,-5.31216 -1.610976,0.45748 -2.955061,1.37659 -3.936858,2.56736 -1.966349,-0.77354 -4.199584,-0.93572 -6.391334,-0.31328 -0.590459,0.16774 -1.151876,0.38678 -1.681493,0.64875 -2.418532,-5.09586 -8.3092889,-7.84481 -13.9732666,-6.23539 -3.82069843,1.08544 -6.6526888,3.90509 -7.873708,7.33609 -0.9264804,-0.004 -1.8626412,0.0846 -2.8001867,0.27032 -0.00411,-0.0167 -0.00692,-0.0348 -0.012453,-0.0514 -0.6319435,-2.15561 -2.9218723,-3.39909 -5.1150027,-2.77666 -0.909886,0.25782 -1.655222,0.79987 -2.17654,1.49575 -0.638859,-0.45886 -1.313668,-0.86502 -2.020283,-1.21017 0.01521,-0.93991 -0.10924,-1.89781 -0.387185,-2.84741 -0.670661,-2.28455 -2.122609,-4.13935 -3.986635,-5.36621 0.01797,-0.76796 -0.08021,-1.5526 -0.308365,-2.3303 -1.211341,-4.12411 -5.59069,-6.50154 -9.783362,-5.31212 -0.139664,0.0402 -0.271033,0.0914 -0.406546,0.13863 -1.027425,-1.10624 -2.634246,-1.61362 -4.196823,-1.17002 -0.503338,0.1428 -0.95552,0.37568 -1.348236,0.66956 -0.687254,-1.82846 -2.009216,-3.27017 -3.65061,-4.14073 -0.0885,-0.50323 -0.201889,-1.00644 -0.348468,-1.50687 -1.50726,-5.13472 -5.799494,-8.73344 -10.794194,-9.67192 0.424521,-2.08632 0.363679,-4.30017 -0.276562,-6.48632 -0.908504,-3.09411 -2.830606,-5.62822 -5.305831,-7.36242 1.623416,-1.91441 2.283015,-4.56215 1.526619,-7.13785 -1.125604,-3.83434 -4.989168,-6.15495 -8.894216,-5.50757 0.06361,-0.88721 -0.01798,-1.79798 -0.283475,-2.70184 -1.021896,-3.4795 -4.300532,-5.7072 -7.818394,-5.60599 -0.04425,-0.19685 -0.09265,-0.39371 -0.150725,-0.59195 -0.641631,-2.18752 -2.000931,-3.97997 -3.751565,-5.20541 v 79.67938 h 116.02171 c 0.308364,-1.26566 0.300065,-2.62421 -0.09262,-3.96194"
       id="path17913" />
    <ellipse
       style="opacity:1;fill:#1c97e3;fill-opacity:1;fill-rule:nonzero;stroke:none;stroke-width:0.47624999;stroke-miterlimit:4;stroke-dasharray:none;stroke-opacity:1"
       id="path72623"
       cx="194.09537"
       cy="159.47171"
       rx="4.6774554"
       ry="4.3939734" />
    <path
       id="path72658"
       d="m 173.05183,183.86264 c 1.14842,-4.12551 5.30633,-6.50294 9.28573,-5.31216 1.52903,0.45748 2.80475,1.37659 3.73661,2.56736 1.86632,-0.77354 3.98597,-0.93572 6.06623,-0.31328 0.56043,0.16774 1.09329,0.38678 1.59597,0.64875 2.29551,-5.09586 7.88663,-7.84481 13.26251,-6.23539 3.62636,1.08544 6.3143,3.90509 7.47321,7.33609 0.87935,-0.004 1.76789,0.0846 2.65775,0.27032 0.004,-0.0167 0.007,-0.0348 0.0118,-0.0514 0.59979,-2.15561 2.77324,-3.39909 4.85482,-2.77666 0.8636,0.25782 1.57103,0.79987 2.06582,1.49575 0.60637,-0.45886 1.24685,-0.86502 1.91752,-1.21017 -0.0145,-0.93991 0.10369,-1.89781 0.3675,-2.84741 0.63654,-2.28455 2.01464,-4.13935 3.78385,-5.36621 -0.0171,-0.76796 0.0761,-1.5526 0.29268,-2.3303 1.14972,-4.12411 5.30631,-6.50154 9.28572,-5.31212 0.13256,0.0402 0.25725,0.0914 0.38588,0.13863 0.97516,-1.10624 2.50025,-1.61362 3.98333,-1.17002 0.47775,0.1428 0.90693,0.37568 1.27967,0.66956 0.65229,-1.82846 1.90702,-3.27017 3.46492,-4.14073 0.084,-0.50323 0.19161,-1.00644 0.33075,-1.50687 1.43058,-5.13472 5.5045,-8.73344 10.24514,-9.67192 -0.40294,-2.08632 -0.34518,-4.30017 0.26249,-6.48632 0.8623,-3.09411 2.68663,-5.62822 5.03595,-7.36242 -1.54085,-1.91441 -2.16689,-4.56215 -1.44897,-7.13785 1.06835,-3.83434 4.7354,-6.15495 8.44182,-5.50757 -0.0604,-0.88721 0.0171,-1.79798 0.26904,-2.70184 0.96993,-3.4795 4.08179,-5.7072 7.42071,-5.60599 0.042,-0.19685 0.0879,-0.39371 0.14306,-0.59195 0.609,-2.18752 1.89916,-3.97997 3.56074,-5.20541 v 79.67938 h -110.1202 c -0.29268,-1.26566 -0.2848,-2.62421 0.0879,-3.96194"
       style="fill:#9ed9ff;fill-opacity:1;fill-rule:nonzero;stroke:none;stroke-width:0.34530807"
       inkscape:connector-curvature="0" />
  </g>
</svg>
