<?xml version="1.0" encoding="UTF-8" standalone="no"?>
<svg
   xmlns:dc="http://purl.org/dc/elements/1.1/"
   xmlns:cc="http://creativecommons.org/ns#"
   xmlns:rdf="http://www.w3.org/1999/02/22-rdf-syntax-ns#"
   xmlns:svg="http://www.w3.org/2000/svg"
   xmlns="http://www.w3.org/2000/svg"
   xmlns:sodipodi="http://sodipodi.sourceforge.net/DTD/sodipodi-0.dtd"
   xmlns:inkscape="http://www.inkscape.org/namespaces/inkscape"
   version="1.1"
   id="Layer_1"
   x="0px"
   y="0px"
   width="2000"
   height="1000"
   viewBox="0 229.761 2000 999.99995"
   enable-background="new 0 229.761 2000 470.644"
   xml:space="preserve"
   sodipodi:docname="5a81614438edac000188463b_venus-clouds-4.svg"
   inkscape:version="1.0.1 (3bc2e813f5, 2020-09-07)"><metadata
   id="metadata19"><rdf:RDF><cc:Work
       rdf:about=""><dc:format>image/svg+xml</dc:format><dc:type
         rdf:resource="http://purl.org/dc/dcmitype/StillImage" /><dc:title></dc:title></cc:Work></rdf:RDF></metadata><defs
   id="defs17">
	
		<linearGradient
   id="SVGID_1_"
   gradientUnits="userSpaceOnUse"
   x1="1579.7617"
   y1="201.6953"
   x2="1579.7617"
   y2="743.87183"
   gradientTransform="rotate(180,1276.8503,1167.4545)">
		<stop
   offset="0"
   style="stop-color:#080D15"
   id="stop5" />
		<stop
   offset="1"
   style="stop-color:#265270"
   id="stop7" />
	</linearGradient>
	
</defs><sodipodi:namedview
   pagecolor="#ffffff"
   bordercolor="#666666"
   borderopacity="1"
   objecttolerance="10"
   gridtolerance="10"
   guidetolerance="10"
   inkscape:pageopacity="0"
   inkscape:pageshadow="2"
   inkscape:window-width="1920"
   inkscape:window-height="1000"
   id="namedview15"
   showgrid="false"
   inkscape:zoom="0.33975"
   inkscape:cx="1067.4753"
   inkscape:cy="718.24825"
   inkscape:window-x="0"
   inkscape:window-y="48"
   inkscape:window-maximized="1"
   inkscape:current-layer="Layer_1" />
<g
   id="Layer_1_1_">
</g>
<g
   id="Layer_2">
</g>
<g
   id="Layer_3">
</g>
<path
   id="path10"
   style="fill:#ffffff;fill-opacity:1"
   d="m -92.42229,314.21609 c -61.21772,386.58483 42.615477,727.77081 42.521487,1060.05271 H 2068.9156 l -0.2617,-337.2812 c -16.815,-17.591 -41.4892,-28.3711 -69.4942,-28.3711 -39.565,0 -73.2712,22.2839 -86.1152,53.5019 -9.036,-6.437 -20.0581,-10.2617 -31.9961,-10.2617 -14.999,0 -26.7598,5.9954 -36.7148,15.6934 -10.129,-11.56 -24.9601,-18.8965 -41.5371,-18.8965 -19.503,0 -36.6065,10.1306 -46.4375,25.3926 -16.416,-13.748 -38.5187,-22.1895 -62.8477,-22.1895 -19.029,0 -36.7045,5.1545 -51.3535,13.9785 -13.774,-20.818 -39.2263,-34.7969 -68.3613,-34.7969 -12.7239,0 -24.7436,2.6689 -35.3985,7.4043 -5.0234,-6.1964 -11.6748,-11.0161 -19.3261,-13.8047 0.3868,-2.3473 0.6367,-4.7415 0.6367,-7.1972 0,-13.0431 -5.6757,-24.73538 -14.6485,-32.85348 2.1975,-5.2563 3.418,-11.0206 3.418,-17.0684 0,-24.5099 -19.9192,-44.3848 -44.498,-44.3848 -7.7792,0 -15.0893,2.0105 -21.4512,5.5079 -3.269,-21.2962 -21.6636,-37.6211 -43.9297,-37.6211 -0.6849,0 -1.3571,0.066 -2.0352,0.1015 -4.5849,-10.5062 -15.0772,-17.8594 -27.2988,-17.8594 -6.4837,0 -12.4656,2.0904 -17.3555,5.6016 -8.1182,-5.1213 -17.7135,-8.1308 -28.0293,-8.1309 -20.8012,0 -38.7217,12.0825 -47.2402,29.5704 -7.9351,-4.8035 -17.2193,-7.627 -27.1894,-7.627 -1.4784,0 -2.9305,0.1039 -4.375,0.2246 0,-0.074 0.017,-0.1498 0.017,-0.2246 0,-28.9406 -23.5236,-52.4062 -52.5449,-52.4062 -4.0352,0 -7.9546,0.5002 -11.7324,1.3593 0.9427,-3.9306 1.498,-8.011 1.498,-12.2324 0,-28.9478 -23.5198,-52.4062 -52.541,-52.4062 -4.8561,0 -9.5346,0.7081 -14.0039,1.9394 -4.8562,-9.8228 -14.964,-16.5937 -26.6836,-16.5937 -3.4998,0 -6.8411,0.6288 -9.9609,1.7382 -9.6099,-10.4993 -23.3932,-17.121 -38.7617,-17.121 v 0 c -11.0956,0 -21.3768,3.4365 -29.8613,9.295 v 0.9336 c -8.4847,-5.8585 -18.76564,-9.295 -29.86134,-9.295 -15.3685,0 -29.14781,6.6217 -38.75781,17.1211 -3.1198,-1.1094 -6.4671,-1.7363 -9.9668,-1.7363 -11.7197,0 -21.82359,6.7711 -26.67969,16.5938 -4.4695,-1.2312 -9.14976,-1.9415 -14.00586,-1.9414 -29.02123,0 -52.54101,23.4622 -52.54101,52.4101 0,4.2214 0.55531,8.3 1.49804,12.2305 -3.77782,-0.859 -7.69716,-1.3614 -11.73242,-1.3614 -29.02126,0 -52.54297,23.4673 -52.54297,52.4082 0,0.074 0.0156,0.1525 0.0156,0.2266 -1.4445,-0.1208 -2.8966,-0.2266 -4.375,-0.2266 -9.97003,0 -19.25452,2.8219 -27.18945,7.625 -8.51852,-17.4878 -26.43707,-29.5683 -47.23829,-29.5683 -10.3158,0 -19.91305,3.0096 -28.03125,8.1309 -4.88993,-3.5112 -10.86984,-5.6016 -17.35351,-5.6016 -12.22166,0 -22.71595,7.3532 -27.30078,17.8594 -0.67815,-0.035 -1.34832,-0.1016 -2.03321,-0.1016 -10.16251,0 -19.51281,3.4074 -26.99218,9.1289 -12.79133,-6.0269 -27.37001,-9.4531 -42.85547,-9.4531 -34.24448,0 -64.10005,16.6929 -79.83985,41.4199 -20.30816,-13.7397 -46.47602,-18.7581 -72.00586,-11.5156 -1.50689,0.4339 -2.92431,0.9865 -4.38671,1.4961 -11.0869,-11.9374 -28.42747,-17.4119 -45.28907,-12.625 -5.4315,1.5409 -10.30907,4.0532 -14.54687,7.2246 -7.4161,-19.7306 -21.68243,-35.2877 -39.39453,-44.6817 -0.955,-5.4304 -2.17807,-10.8596 -3.75977,-16.2597 -16.2649,-55.4081 -62.58141,-94.2422 -116.47851,-104.3692 4.581,-22.5132 3.92432,-46.4017 -2.98438,-69.9922 -9.8033,-33.3882 -30.54596,-60.7336 -57.25586,-79.4472 17.5182,-20.658 24.63701,-49.2293 16.47461,-77.0235 -12.1461,-41.3759 -53.837756,-66.4174 -95.976561,-59.4316 0.6864,-9.5737 -0.193794,-19.4026 -3.058594,-29.1562 -11.0272,-37.5466 -46.406588,-61.5843 -84.367187,-60.4922 -0.4777,-2.1242 -1.000254,-4.2497 -1.626954,-6.3887 -6.9238,-23.6053 -21.591424,-42.94653 -40.482424,-56.16993 z"
   sodipodi:nodetypes="ccccscscscscsccscsscscscscscsscsscscccccscsccscsscscscscscscccccccccccccccc" />
<g
   id="Layer_5">
</g>
<path
   style="fill:#1c97e3;fill-opacity:1;fill-rule:nonzero;stroke:none;stroke-width:1.33502"
   d="m 1742.9902,962.55469 v 0.65234 c -0.1829,-0.0473 -0.3604,-0.10425 -0.5429,-0.15625 0.1828,-0.1615 0.3603,-0.32939 0.5429,-0.49609 z"
   transform="translate(0,229.761)"
   id="path925" /><path
   style="fill:#1c97e3;fill-opacity:1;fill-rule:nonzero;stroke:none;stroke-width:1.33502"
   d="m 1742.9902,961.83594 c 0.1826,0.1667 0.3602,0.33264 0.543,0.49414 -0.1825,0.052 -0.3601,0.1109 -0.543,0.1582 z"
   transform="translate(0,229.761)"
   id="path923" /><path
   style="fill:#1c97e3;fill-opacity:1;fill-rule:nonzero;stroke:none;stroke-width:1.33502"
   d="m 1472.8184,897.13086 c 0.1198,0.1251 0.2245,0.2552 0.3496,0.375 -0.1358,0.2084 -0.2561,0.42266 -0.3868,0.63086 -0.1252,-0.1303 -0.2345,-0.27555 -0.3652,-0.40625 0.1356,-0.1979 0.2667,-0.39661 0.4024,-0.59961 z"
   transform="translate(0,229.761)"
   id="path921" /><path
   style="fill:#1c97e3;fill-opacity:1;fill-rule:nonzero;stroke:none;stroke-width:1.33502"
   d="m 2013.1641,896.41211 c 0.1357,0.203 0.2667,0.40171 0.4023,0.59961 -0.1307,0.1307 -0.24,0.27595 -0.3652,0.40625 -0.1307,-0.2082 -0.2509,-0.42246 -0.3867,-0.63086 0.1251,-0.1198 0.2298,-0.2499 0.3496,-0.375 z"
   transform="translate(0,229.761)"
   id="path919" /><path
   style="fill:#1c97e3;fill-opacity:1;fill-rule:nonzero;stroke:none;stroke-width:1.33502"
   d="m 1642.1348,836.07422 h 0.023 v 0.004 0.0898 c -0.01,-0.03 -0.012,-0.0637 -0.023,-0.0937 z"
   transform="translate(0,229.761)"
   id="path917" /><path
   style="fill:#1c97e3;fill-opacity:1;fill-rule:nonzero;stroke:none;stroke-width:1.33502"
   d="m 1843.8242,835.35547 h 0.022 c -0.011,0.03 -0.014,0.0618 -0.022,0.0918 v -0.0879 z"
   transform="translate(0,229.761)"
   id="path915" /><path
   style="fill:#1c97e3;fill-opacity:1;fill-rule:nonzero;stroke:none;stroke-width:1.33502"
   d="m 1742.9902,806.0957 c 0.2037,0.1406 0.4038,0.29244 0.6075,0.42774 -0.2034,0.088 -0.4038,0.19721 -0.6075,0.29101 v 0.72071 c -0.2037,-0.0938 -0.402,-0.20497 -0.6054,-0.29297 0.2037,-0.1353 0.4017,-0.28714 0.6054,-0.42774 z"
   transform="translate(0,229.761)"
   id="path913" /></svg>
