<?xml version="1.0" encoding="UTF-8" standalone="no"?>
<svg
   xmlns:dc="http://purl.org/dc/elements/1.1/"
   xmlns:cc="http://creativecommons.org/ns#"
   xmlns:rdf="http://www.w3.org/1999/02/22-rdf-syntax-ns#"
   xmlns:svg="http://www.w3.org/2000/svg"
   xmlns="http://www.w3.org/2000/svg"
   xmlns:sodipodi="http://sodipodi.sourceforge.net/DTD/sodipodi-0.dtd"
   xmlns:inkscape="http://www.inkscape.org/namespaces/inkscape"
   id="Icons"
   viewBox="0 0 48 48"
   version="1.1"
   sodipodi:docname="grinning-face.svg"
   inkscape:version="1.0.1 (3bc2e813f5, 2020-09-07)">
  <metadata
     id="metadata23">
    <rdf:RDF>
      <cc:Work
         rdf:about="">
        <dc:format>image/svg+xml</dc:format>
        <dc:type
           rdf:resource="http://purl.org/dc/dcmitype/StillImage" />
      </cc:Work>
    </rdf:RDF>
  </metadata>
  <sodipodi:namedview
     pagecolor="#ffffff"
     bordercolor="#666666"
     borderopacity="1"
     objecttolerance="10"
     gridtolerance="10"
     guidetolerance="10"
     inkscape:pageopacity="0"
     inkscape:pageshadow="2"
     inkscape:window-width="1920"
     inkscape:window-height="1000"
     id="namedview21"
     showgrid="false"
     inkscape:zoom="7.65625"
     inkscape:cx="55.28367"
     inkscape:cy="14.564962"
     inkscape:window-x="0"
     inkscape:window-y="48"
     inkscape:window-maximized="1"
     inkscape:current-layer="Icons" />
  <defs
     id="defs4">
    <style
       id="style2">.cls-1{fill:#ffe500;}.cls-2{fill:#ebcb00;}.cls-3{fill:#fff48c;}.cls-4,.cls-7{fill:#45413c;}.cls-4{opacity:0.15;}.cls-5{fill:none;}.cls-5,.cls-7,.cls-8,.cls-9{stroke:#45413c;stroke-linecap:round;stroke-linejoin:round;}.cls-6{fill:#ffaa54;}.cls-8{fill:#ffb0ca;}.cls-9{fill:#ff87af;}</style>
  </defs>
  <title
     id="title6">01-grinning-face</title>
  <circle
     id="_Ellipse_"
     data-name="&lt;Ellipse&gt;"
     class="cls-1"
     cx="24"
     cy="24"
     r="20"
     style="fill:#ffd658;fill-opacity:1" />
  <path
     id="_Compound_Path_"
     data-name="&lt;Compound Path&gt;"
     class="cls-2"
     d="m 24.000001,4 a 20,20 0 1 0 20,20 20,20 0 0 0 -20,-20 z m 0,37 a 18.25,18.25 0 1 1 18.25,-18.25 18.25,18.25 0 0 1 -18.25,18.25 z"
     style="fill:#000000;fill-opacity:1;opacity:0.05923007" />
  <ellipse
     id="_Ellipse_2"
     data-name="&lt;Ellipse&gt;"
     class="cls-3"
     cx="24"
     cy="8"
     rx="6"
     ry="1.5"
     style="opacity:0.38028056;fill:#fffffd;fill-opacity:1" />
  <circle
     id="_Ellipse_4"
     data-name="&lt;Ellipse&gt;"
     class="cls-5"
     cx="24"
     cy="24"
     r="20" />
  <path
     id="_Path_5"
     data-name="&lt;Path&gt;"
     class="cls-8"
     d="m 24,42.175502 a 9.2589458,9.2589458 0 0 0 9.34389,-7.789407 0.84944457,0.84944457 0 0 0 -0.263327,-0.713533 0.95137792,0.95137792 0 0 0 -0.772995,-0.229351 52.308797,52.308797 0 0 1 -16.598147,0 0.95137792,0.95137792 0 0 0 -0.772994,0.229351 0.84944457,0.84944457 0 0 0 -0.263328,0.713533 A 9.2589458,9.2589458 0 0 0 24,42.175502 Z"
     style="stroke-width:0.849445;fill:#723838;fill-opacity:1" />
  <path
     id="_Path_6"
     data-name="&lt;Path&gt;"
     class="cls-9"
     d="m 24,37.928279 a 15.145597,15.145597 0 0 0 -6.855018,1.435561 9.7601181,9.7601181 0 0 0 13.710036,0 A 15.145597,15.145597 0 0 0 24,37.928279 Z"
     style="stroke-width:0.849445;fill:#f47676;fill-opacity:1" />
  <path
     id="_Path_5-7"
     data-name="&lt;Path&gt;"
     class="cls-3"
     d="m 11.694018,32.042664 a 1.0797715,0.94720519 0 0 0 1.322511,0 c 2.134431,-1.387765 8.730244,-5.947566 9.818386,-9.905269 1.297399,-4.736026 -2.017247,-7.651068 -5.239822,-7.651068 a 6.5790726,5.7713432 0 0 0 -4.812933,2.246859 0.55244121,0.4846166 0 0 1 -0.837032,0 6.5790726,5.7713432 0 0 0 -4.8129364,-2.246859 c -3.2225746,0 -6.53722067,2.937069 -5.2398217,7.651068 1.0714011,3.957703 7.6672145,8.517504 9.8016481,9.905269 z"
     style="fill:#f15a62;fill-opacity:1;stroke-width:0.783968" />
  <path
     id="_Path_6-5"
     data-name="&lt;Path&gt;"
     class="cls-4"
     d="m 17.595093,14.486327 a 6.5790726,5.7713432 0 0 0 -4.812933,2.246859 0.55244121,0.4846166 0 0 1 -0.837032,0 6.5790726,5.7713432 0 0 0 -4.8129364,-2.246859 c -3.2225746,0 -6.53722067,2.937069 -5.2398217,7.651068 a 10.044386,8.811211 0 0 0 1.3057702,2.562593 C 3.131186,24.538445 3.0474727,24.376911 2.997253,24.215372 1.8421484,20.411866 4.8052418,18.076895 7.6762619,18.076895 a 6.746479,5.9181968 0 0 1 4.6790111,1.718185 6.746479,5.9181968 0 0 1 4.679009,-1.754898 c 2.87102,0 5.859226,2.33497 4.679009,6.138477 -0.05023,0.161543 -0.133925,0.323077 -0.200887,0.484616 a 10.128089,8.8846378 0 0 0 1.322511,-2.52588 c 1.297399,-4.743369 -2.017247,-7.651068 -5.239822,-7.651068 z"
     style="opacity:0.1243429;fill:#fff7f7;fill-opacity:1;stroke-width:0.783968" />
  <path
     id="_Path_7-3"
     data-name="&lt;Path&gt;"
     class="cls-5"
     d="m 11.694018,32.042664 a 1.0797715,0.94720519 0 0 0 1.322511,0 c 2.134431,-1.387765 8.730244,-5.947566 9.818386,-9.905269 1.297399,-4.736026 -2.017247,-7.651068 -5.239822,-7.651068 a 6.5790726,5.7713432 0 0 0 -4.812933,2.246859 0.55244121,0.4846166 0 0 1 -0.837032,0 6.5790726,5.7713432 0 0 0 -4.8129364,-2.246859 c -3.2225746,0 -6.53722067,2.937069 -5.2398217,7.651068 1.0714011,3.957703 7.6672145,8.517504 9.8016481,9.905269 z"
     style="fill:none;stroke:#45413c;stroke-width:0.783968;stroke-linecap:round;stroke-linejoin:round" />
  <text
     xml:space="preserve"
     style="font-size:4.35414px;line-height:1.25;font-family:'Sofia Pro';-inkscape-font-specification:'Sofia Pro';letter-spacing:0px;word-spacing:0px;stroke-width:0.816404;fill:#ffffff;fill-opacity:1;"
     x="5.0661077"
     y="25.000002"
     id="text888"><tspan
       sodipodi:role="line"
       id="tspan886"
       x="5.0661077"
       y="25.000002"
       style="font-style:normal;font-variant:normal;font-weight:900;font-stretch:normal;font-size:4.35414px;font-family:'Sofia Pro';-inkscape-font-specification:'Sofia Pro Heavy';fill:#ffffff;fill-opacity:1;stroke-width:0.816404;">HAPPY</tspan></text>
  <path
     id="_Path_5-7-3"
     data-name="&lt;Path&gt;"
     class="cls-3"
     d="m 34.966753,32.042664 a 1.0797715,0.94720519 0 0 0 1.322511,0 c 2.134431,-1.387765 8.730244,-5.947566 9.818386,-9.905269 1.297399,-4.736026 -2.017247,-7.651068 -5.239822,-7.651068 a 6.5790726,5.7713432 0 0 0 -4.812933,2.246859 0.55244121,0.4846166 0 0 1 -0.837032,0 6.5790726,5.7713432 0 0 0 -4.812936,-2.246859 c -3.222575,0 -6.537221,2.937069 -5.239822,7.651068 1.071401,3.957703 7.667215,8.517504 9.801648,9.905269 z"
     style="fill:#f15a62;fill-opacity:1;stroke-width:0.783968" />
  <path
     id="_Path_6-5-9"
     data-name="&lt;Path&gt;"
     class="cls-4"
     d="m 40.867828,14.486327 a 6.5790726,5.7713432 0 0 0 -4.812933,2.246859 0.55244121,0.4846166 0 0 1 -0.837032,0 6.5790726,5.7713432 0 0 0 -4.812936,-2.246859 c -3.222575,0 -6.537221,2.937069 -5.239822,7.651068 a 10.044386,8.811211 0 0 0 1.30577,2.562593 c -0.06695,-0.161543 -0.150667,-0.323077 -0.200887,-0.484616 -1.155104,-3.803506 1.807989,-6.138477 4.679009,-6.138477 a 6.746479,5.9181968 0 0 1 4.679011,1.718185 6.746479,5.9181968 0 0 1 4.679009,-1.754898 c 2.87102,0 5.859226,2.33497 4.679009,6.138477 -0.05023,0.161543 -0.133925,0.323077 -0.200887,0.484616 a 10.128089,8.8846378 0 0 0 1.322511,-2.52588 c 1.297399,-4.743369 -2.017247,-7.651068 -5.239822,-7.651068 z"
     style="opacity:0.1243429;fill:#fff7f7;fill-opacity:1;stroke-width:0.783968" />
  <path
     id="_Path_7-3-1"
     data-name="&lt;Path&gt;"
     class="cls-5"
     d="m 34.966753,32.042664 a 1.0797715,0.94720519 0 0 0 1.322511,0 c 2.134431,-1.387765 8.730244,-5.947566 9.818386,-9.905269 1.297399,-4.736026 -2.017247,-7.651068 -5.239822,-7.651068 a 6.5790726,5.7713432 0 0 0 -4.812933,2.246859 0.55244121,0.4846166 0 0 1 -0.837032,0 6.5790726,5.7713432 0 0 0 -4.812936,-2.246859 c -3.222575,0 -6.537221,2.937069 -5.239822,7.651068 1.071401,3.957703 7.667215,8.517504 9.801648,9.905269 z"
     style="fill:none;stroke:#45413c;stroke-width:0.783968;stroke-linecap:round;stroke-linejoin:round" />
  <text
     xml:space="preserve"
     style="font-size:4.24328px;line-height:1.25;font-family:'Sofia Pro';-inkscape-font-specification:'Sofia Pro';letter-spacing:0px;word-spacing:0px;stroke-width:0.795618;fill:#ffffff;fill-opacity:1;"
     x="28.437651"
     y="24.961809"
     id="text888-9"><tspan
       sodipodi:role="line"
       id="tspan886-6"
       x="28.437651"
       y="24.961809"
       style="font-style:normal;font-variant:normal;font-weight:900;font-stretch:normal;font-size:4.24328px;font-family:'Sofia Pro';-inkscape-font-specification:'Sofia Pro Heavy';fill:#ffffff;fill-opacity:1;stroke-width:0.795618;">CLIENT</tspan></text>
</svg>
